{"glyphs":{"0":{"ha":794,"x_min":36,"x_max":758,"o":"m 71 219 q 53 270 71 219 q 36 453 36 321 q 71 686 36 585 q 189 853 106 788 q 397 919 272 919 q 606 853 522 919 q 724 686 689 788 q 758 453 758 585 q 724 219 758 321 q 606 52 689 118 q 397 -14 522 -14 q 189 52 272 -14 q 71 219 106 118 m 397 104 q 464 104 397 104 q 531 453 531 104 q 397 801 531 801 q 264 453 264 801 q 397 104 264 104 z "},"1":{"ha":592,"x_min":50,"x_max":568,"o":"m 244 226 l 244 672 l 101 618 l 50 704 q 246 854 218 832 l 314 933 l 457 917 q 446 592 446 661 l 446 268 q 452 163 446 219 q 460 107 458 107 l 568 99 l 560 -7 q 294 0 453 0 l 115 -7 l 108 90 l 232 107 q 244 226 244 199 z "},"2":{"ha":760,"x_min":26,"x_max":703,"o":"m 58 871 q 344 919 194 919 q 576 857 493 919 q 658 683 658 794 q 579 463 658 572 q 275 164 500 354 l 442 164 q 563 178 507 164 l 585 249 l 594 300 l 703 292 l 692 24 l 650 -4 q 499 0 525 0 l 46 0 l 26 138 q 352 463 269 357 q 435 663 435 569 q 401 752 435 721 q 308 783 367 783 q 189 750 250 783 q 178 697 178 715 l 178 638 l 68 631 l 58 871 z "},"3":{"ha":682,"x_min":26,"x_max":628,"o":"m 26 879 q 288 919 147 919 q 509 858 429 919 q 589 676 589 796 q 549 555 589 611 q 435 461 508 499 q 572 381 517 443 q 628 242 628 318 q 465 -17 628 93 q 57 -146 303 -128 l 26 -40 q 298 52 196 -21 q 400 226 400 125 q 258 375 400 375 l 172 369 l 153 471 q 320 544 263 489 q 378 685 378 599 q 268 797 378 797 q 167 781 217 797 q 156 726 156 732 l 156 653 l 46 646 l 26 879 z "},"4":{"ha":782,"x_min":14,"x_max":736,"o":"m 408 379 l 408 514 l 603 581 l 603 392 l 733 399 l 733 253 l 603 253 l 603 222 q 615 107 603 169 l 736 99 l 729 -7 q 432 0 585 0 l 256 -7 l 249 90 l 396 107 q 401 140 399 124 q 404 172 403 156 q 407 202 406 188 q 408 224 408 217 l 408 253 l 117 253 l 14 381 l 506 1026 l 644 910 q 479 736 500 768 l 215 379 l 408 379 z "},"5":{"ha":675,"x_min":58,"x_max":625,"o":"m 368 724 l 238 724 l 225 526 q 311 532 263 532 q 544 460 463 532 q 625 260 625 388 q 90 -146 625 -64 l 60 -43 q 326 62 244 -1 q 408 228 408 125 q 247 389 408 389 q 124 369 190 389 l 58 444 l 93 881 l 119 906 l 242 906 l 579 919 l 588 743 q 368 724 410 724 z "},"6":{"ha":767,"x_min":42,"x_max":725,"o":"m 449 574 q 651 497 578 574 q 725 287 725 419 q 628 69 725 154 q 381 -15 532 -15 q 136 82 231 -15 q 42 342 42 179 q 196 772 42 574 q 393 940 271 868 q 667 1038 515 1011 l 689 946 q 490 841 575 908 q 356 690 404 774 q 263 342 263 528 q 313 150 263 214 q 397 113 343 113 q 476 163 450 113 q 503 288 503 214 q 477 413 503 361 q 394 464 451 464 l 347 460 l 339 560 q 449 574 381 574 z "},"7":{"ha":710,"x_min":49,"x_max":719,"o":"m 256 906 l 697 906 l 719 810 l 281 -146 l 107 -86 l 419 526 q 481 722 438 561 l 268 722 q 190 717 251 722 l 169 658 l 158 594 l 49 599 l 64 890 l 89 918 q 256 906 224 906 z "},"8":{"ha":754,"x_min":42,"x_max":710,"o":"m 72 725 q 164 888 72 829 q 376 947 256 947 q 588 887 497 947 q 679 721 679 826 q 532 485 679 596 q 663 373 615 435 q 710 226 710 311 q 658 88 710 142 q 375 -14 563 -14 q 139 48 236 -14 q 42 228 42 110 q 218 475 42 364 q 72 725 72 574 m 246 229 q 281 135 246 169 q 376 100 317 100 q 470 133 436 100 q 504 224 504 165 q 465 320 504 282 q 347 400 425 358 q 246 229 246 322 m 479 719 q 452 801 479 769 q 378 833 425 833 q 301 802 331 833 q 272 720 272 771 q 307 631 272 669 q 406 556 342 593 q 479 719 479 638 z "},"9":{"ha":767,"x_min":42,"x_max":725,"o":"m 332 331 q 119 406 196 331 q 42 611 42 481 q 139 831 42 742 q 375 919 236 919 q 633 821 540 919 q 725 563 725 722 q 575 128 725 329 q 381 -46 501 28 q 108 -146 260 -119 l 78 -43 q 255 33 178 -17 q 378 143 332 83 q 453 278 424 203 q 504 563 504 403 q 472 726 504 660 q 378 792 440 792 q 290 741 317 792 q 264 615 264 690 q 294 490 264 540 q 372 440 324 440 l 419 444 l 428 344 q 332 331 386 331 z "}," ":{"ha":249,"x_min":0,"x_max":0,"o":""},"!":{"ha":332,"x_min":76,"x_max":296,"o":"m 265 335 l 242 313 q 100 319 200 319 q 101 411 101 369 l 89 989 l 256 1001 l 296 963 q 261 442 261 660 l 265 335 m 103 169 q 117 185 103 169 q 179 200 131 200 q 255 170 228 200 q 282 90 282 140 q 255 9 282 39 q 179 -21 228 -21 q 103 9 131 -21 q 76 89 76 39 q 103 169 76 139 z "},"\"":{"ha":499,"x_min":56,"x_max":443,"o":"m 56 1050 l 221 1050 l 203 711 l 81 718 l 82 847 l 56 1050 m 278 1050 l 443 1050 l 425 711 l 303 718 l 304 847 l 278 1050 z "},"#":{"ha":792,"x_min":44,"x_max":760,"o":"m 732 194 l 544 194 l 511 -21 l 400 -7 l 432 194 l 306 194 l 272 -21 l 161 -7 l 193 194 l 44 194 l 44 314 l 211 315 l 233 456 l 72 454 l 72 581 l 253 581 l 288 794 l 399 781 l 367 581 l 493 581 l 526 794 l 638 781 l 606 581 l 760 581 l 760 461 l 586 460 l 564 319 l 732 321 l 732 194 m 347 457 l 325 317 l 451 318 l 474 458 l 347 457 z "},"$":{"ha":753,"x_min":61,"x_max":699,"o":"m 350 108 q 439 133 403 108 q 475 203 475 157 q 444 283 475 249 q 368 339 414 317 q 269 392 322 361 q 169 456 215 424 q 93 548 124 489 q 63 683 63 607 q 144 860 63 796 q 356 926 225 924 l 361 1054 l 450 1050 l 444 922 q 656 883 522 915 l 638 672 l 536 678 l 536 753 q 533 768 536 754 q 422 806 492 806 q 319 780 353 806 q 285 710 285 754 q 327 630 285 665 q 431 565 369 594 q 553 500 492 536 q 656 401 614 464 q 699 251 699 338 q 617 63 699 133 q 407 -19 536 -8 l 403 -128 l 313 -124 l 317 -18 q 183 3 247 -14 q 90 33 119 19 l 61 47 l 82 267 l 181 260 q 182 199 181 213 q 190 144 179 189 q 350 108 236 108 z "},"%":{"ha":1247,"x_min":25,"x_max":1213,"o":"m 960 -11 q 895 -11 960 -11 q 769 68 831 -11 q 707 270 707 147 q 769 472 707 393 q 960 551 831 551 q 1151 472 1089 551 q 1213 270 1213 393 q 1151 68 1213 147 q 960 -11 1089 -11 m 868 270 q 868 177 868 270 q 960 85 868 85 q 1051 270 1051 85 q 960 456 1051 456 q 868 270 868 456 m 85 520 q 55 559 85 520 q 25 717 25 597 q 85 913 25 836 q 267 989 144 989 q 449 913 389 989 q 508 717 508 836 q 449 520 508 597 q 267 443 389 443 q 85 520 144 443 m 267 536 q 311 536 267 536 q 354 717 354 536 q 267 897 354 897 q 181 717 181 897 q 267 536 181 536 m 822 1000 l 919 938 l 331 -68 l 232 -6 l 822 1000 z "},"&":{"ha":1053,"x_min":56,"x_max":1018,"o":"m 458 790 q 375 708 375 790 q 444 558 375 639 q 699 314 513 476 q 707 362 707 343 q 701 458 707 381 l 633 467 l 640 565 q 807 558 731 558 l 943 565 l 950 467 l 860 458 l 851 371 q 810 217 843 286 l 846 186 q 947 104 875 160 l 1018 99 l 1011 -7 q 754 0 911 0 l 732 0 q 675 61 731 1 q 401 -14 561 -14 q 149 49 242 -14 q 56 242 56 113 q 222 501 56 401 q 142 707 142 607 q 227 863 142 807 q 431 919 313 919 q 669 876 549 919 l 653 658 l 563 664 l 563 724 l 543 778 q 458 790 488 790 m 329 381 q 282 262 282 325 q 329 165 282 199 q 443 132 376 132 q 569 163 510 132 q 329 381 356 354 z "},"'":{"ha":276,"x_min":56,"x_max":221,"o":"m 56 1050 l 221 1050 l 203 711 l 81 718 l 82 847 l 56 1050 z "},"(":{"ha":442,"x_min":56,"x_max":400,"o":"m 311 867 q 232 440 232 656 q 311 14 232 225 q 381 -97 318 -8 l 400 -126 l 325 -187 q 56 440 56 63 q 325 1068 56 818 l 400 1007 q 311 867 321 894 z "},")":{"ha":442,"x_min":42,"x_max":386,"o":"m 131 14 q 210 440 210 225 q 131 867 210 656 q 61 978 124 889 l 42 1007 l 117 1068 q 386 440 386 818 q 117 -187 386 63 l 42 -126 q 131 14 121 -14 z "},"*":{"ha":568,"x_min":50,"x_max":517,"o":"m 221 897 q 228 951 228 946 l 228 1025 l 329 1036 l 343 900 q 378 914 363 908 q 394 921 393 919 l 457 957 l 517 875 l 406 794 q 450 761 433 772 l 513 725 l 471 632 l 346 688 q 339 633 339 643 l 339 561 l 238 550 l 224 686 q 174 665 179 668 l 110 629 l 50 711 l 160 790 q 118 824 131 815 l 54 861 l 96 954 l 221 897 z "},"+":{"ha":807,"x_min":46,"x_max":761,"o":"m 331 0 l 331 285 l 46 282 l 46 428 l 331 428 l 331 710 l 469 710 l 472 428 l 761 428 l 761 289 l 474 286 l 476 0 l 331 0 z "},",":{"ha":332,"x_min":38,"x_max":272,"o":"m 157 -14 q 87 21 111 -11 q 63 103 63 53 q 89 183 63 153 q 167 214 115 214 q 272 72 272 214 q 215 -94 272 -18 q 54 -189 158 -171 l 38 -144 q 157 -14 147 -107 z "},"-":{"ha":392,"x_min":42,"x_max":350,"o":"m 44 286 l 42 418 l 350 418 l 343 286 l 44 286 z "},".":{"ha":344,"x_min":63,"x_max":282,"o":"m 92 181 q 106 198 92 181 q 172 214 121 214 q 253 183 224 214 q 282 97 282 151 q 253 11 282 43 q 172 -21 224 -21 q 92 11 121 -21 q 63 96 63 43 q 92 181 63 149 z "},"/":{"ha":550,"x_min":10,"x_max":564,"o":"m 140 -90 l 10 -49 l 435 1074 l 564 1032 l 140 -90 z "},":":{"ha":331,"x_min":63,"x_max":268,"o":"m 90 646 q 103 661 90 646 q 165 676 117 676 q 241 647 214 676 q 268 566 268 617 q 241 485 268 515 q 165 456 214 456 q 90 485 117 456 q 63 565 63 515 q 90 646 63 615 m 90 169 q 103 185 90 169 q 165 200 117 200 q 241 170 214 200 q 268 90 268 140 q 241 9 268 39 q 165 -21 214 -21 q 90 9 117 -21 q 63 89 63 39 q 90 169 63 139 z "},";":{"ha":332,"x_min":38,"x_max":272,"o":"m 157 -14 q 87 21 111 -11 q 63 103 63 53 q 89 183 63 153 q 167 214 115 214 q 272 72 272 214 q 215 -94 272 -18 q 54 -189 158 -171 l 38 -144 q 157 -14 147 -107 m 90 632 q 103 647 90 632 q 165 663 117 663 q 241 633 214 663 q 268 552 268 603 q 241 472 268 501 q 165 442 214 442 q 90 472 117 442 q 63 551 63 501 q 90 632 63 601 z "},"<":{"ha":668,"x_min":56,"x_max":557,"o":"m 467 -21 l 56 346 l 467 713 l 557 608 l 258 346 l 557 83 l 467 -21 z "},"=":{"ha":813,"x_min":90,"x_max":722,"o":"m 90 547 l 722 547 l 722 407 l 90 400 l 90 547 m 90 283 l 722 283 l 722 143 l 90 136 l 90 283 z "},">":{"ha":668,"x_min":111,"x_max":613,"o":"m 201 711 l 613 344 l 201 -22 l 111 82 l 410 344 l 111 607 l 201 711 z "},"?":{"ha":586,"x_min":42,"x_max":586,"o":"m 266 546 q 294 546 266 546 q 361 597 322 546 q 400 726 400 647 q 363 856 400 806 q 258 907 325 907 q 158 885 192 907 q 150 807 150 856 l 153 757 l 58 750 l 42 956 q 265 1010 161 1010 q 501 935 415 1010 q 586 728 586 860 q 506 524 586 597 q 294 446 426 450 l 299 335 l 275 313 q 136 318 225 318 l 132 322 l 132 503 l 175 550 q 266 546 210 546 m 134 169 q 148 185 134 169 q 210 200 161 200 q 285 170 258 200 q 313 90 313 140 q 285 9 313 39 q 210 -21 258 -21 q 134 9 161 -21 q 107 89 107 39 q 134 169 107 139 z "},"@":{"ha":1325,"x_min":42,"x_max":1283,"o":"m 583 -14 q 434 39 489 -14 q 379 183 379 92 q 563 375 379 343 l 760 407 l 760 449 q 739 549 760 513 q 666 586 718 586 q 553 556 614 586 l 547 501 l 549 433 l 444 429 l 424 661 q 685 699 561 699 q 881 632 808 699 q 954 449 954 565 l 954 268 q 964 122 954 221 l 967 93 l 965 92 q 1057 158 1019 106 q 1124 399 1124 253 q 1001 712 1124 593 q 669 831 879 831 q 472 794 557 831 q 338 705 386 758 q 260 578 290 651 q 210 335 210 460 q 236 120 210 210 q 317 -39 263 31 q 676 -182 428 -182 q 894 -139 721 -182 l 951 -124 l 974 -176 q 676 -296 753 -296 q 419 -258 532 -296 q 236 -161 306 -221 q 122 -19 167 -101 q 42 322 42 128 q 183 736 42 561 q 379 875 254 824 q 669 926 504 926 q 1117 786 951 926 q 1283 399 1283 646 q 1182 142 1283 263 q 1056 46 1133 85 q 888 0 979 7 l 786 0 l 775 100 q 583 -14 711 -14 m 585 211 q 660 129 585 129 q 760 240 754 129 l 760 317 l 657 297 q 601 270 618 290 q 585 211 585 250 z "},"A":{"ha":926,"x_min":1,"x_max":928,"o":"m 928 90 l 921 -7 q 804 0 853 0 l 521 -7 l 514 94 l 596 107 l 589 179 l 569 249 l 307 249 l 283 160 l 275 107 l 356 90 l 349 -7 q 201 0 267 0 l 8 -7 l 1 94 l 64 104 l 122 224 l 385 979 l 540 994 l 818 178 l 850 103 l 928 90 m 444 692 l 344 363 l 533 365 l 444 692 z "},"B":{"ha":879,"x_min":71,"x_max":844,"o":"m 207 979 l 489 993 q 710 928 619 993 q 801 754 801 864 q 748 600 801 664 q 608 515 694 536 l 608 506 q 780 428 715 489 q 844 263 844 367 q 750 62 844 131 q 513 -7 656 -7 l 206 0 l 78 -7 l 71 90 l 154 107 q 167 226 167 165 l 167 711 q 154 865 167 808 l 72 882 l 79 986 q 207 979 142 979 m 382 753 l 382 268 q 386 111 382 169 q 464 107 424 107 q 586 153 540 107 q 632 282 632 200 q 449 444 632 444 l 435 444 l 444 565 l 453 565 q 561 609 522 565 q 600 725 600 653 q 559 838 600 797 q 454 879 518 879 q 386 874 431 879 q 382 753 382 840 z "},"C":{"ha":885,"x_min":38,"x_max":836,"o":"m 524 -21 q 163 117 288 -21 q 38 489 38 256 q 163 861 38 722 q 524 1000 288 1000 q 824 953 632 1000 l 807 704 l 700 710 l 696 794 q 679 851 696 808 q 524 871 590 871 q 345 767 403 871 q 288 490 288 663 q 344 213 288 318 q 522 108 401 108 q 694 129 600 108 q 701 148 696 132 q 712 178 707 164 q 717 197 717 192 l 721 263 l 825 265 l 836 26 q 524 -21 644 -21 z "},"D":{"ha":1026,"x_min":63,"x_max":989,"o":"m 210 979 l 500 993 q 863 856 736 993 q 989 491 989 719 q 863 127 989 263 q 500 -8 736 -8 q 208 0 500 -8 l 69 -7 l 63 90 l 154 107 q 167 226 167 199 l 167 711 q 158 842 167 783 l 154 865 l 64 882 l 71 986 q 210 979 144 979 m 481 878 q 388 867 451 878 q 382 753 382 772 l 382 268 q 388 111 382 178 q 478 107 433 107 q 691 211 625 107 q 757 492 757 315 q 696 764 757 660 q 481 878 629 878 z "},"E":{"ha":856,"x_min":63,"x_max":807,"o":"m 210 979 l 582 979 l 740 993 l 767 968 l 776 751 l 676 744 q 664 828 668 811 q 650 860 660 844 q 540 865 594 865 l 388 865 q 382 753 382 765 l 382 554 q 418 553 396 553 l 496 553 q 557 565 525 553 l 569 654 l 656 647 q 654 532 654 560 l 658 356 l 569 347 l 557 431 q 468 439 496 439 l 425 439 q 382 438 392 439 l 382 268 q 386 121 382 204 l 560 121 q 667 132 611 121 q 710 271 700 193 l 807 264 l 786 19 l 760 -6 q 601 0 629 0 l 210 0 l 69 -7 l 63 90 l 154 107 q 167 226 167 149 l 167 711 q 154 865 167 813 l 64 882 l 71 986 q 210 979 160 979 z "},"F":{"ha":790,"x_min":63,"x_max":776,"o":"m 540 865 l 388 865 q 382 753 382 765 l 382 539 q 415 538 397 538 l 496 538 q 557 550 517 538 l 569 639 l 656 632 q 654 517 654 544 l 658 340 l 569 332 l 557 415 q 468 424 496 424 l 417 424 q 382 422 393 424 l 382 264 q 394 107 382 160 l 526 99 l 519 -7 q 208 0 365 0 l 69 -7 l 63 90 l 154 107 q 167 226 167 149 l 167 711 q 154 865 167 822 l 64 882 l 71 986 q 210 979 144 979 l 582 979 l 740 993 l 767 968 l 776 751 l 676 744 q 666 819 668 811 q 651 858 664 828 q 540 865 582 865 z "},"G":{"ha":971,"x_min":38,"x_max":890,"o":"m 547 1000 q 865 953 661 1000 l 847 724 l 738 729 l 733 794 q 717 851 733 808 q 547 871 622 871 q 351 766 415 871 q 288 490 288 661 q 351 213 288 318 q 546 108 414 108 q 682 119 608 108 q 692 178 692 163 l 692 272 l 678 357 l 531 368 l 538 504 l 692 504 l 851 508 l 890 474 q 878 272 878 342 l 878 26 q 547 -21 674 -21 q 169 117 300 -21 q 38 489 38 256 q 169 861 38 722 q 547 1000 300 1000 z "},"H":{"ha":1149,"x_min":63,"x_max":1086,"o":"m 154 107 l 167 226 l 167 711 q 154 865 167 765 l 64 882 l 71 986 q 210 979 144 979 l 479 986 l 486 874 l 394 865 q 382 753 382 803 l 382 540 l 767 546 l 767 711 q 754 865 767 765 l 664 882 l 671 986 q 810 979 744 979 l 1079 986 l 1086 874 l 994 865 q 982 753 982 803 l 982 268 q 994 107 982 194 l 1085 99 l 1078 -7 q 808 0 965 0 l 669 -7 l 663 90 l 754 107 l 767 226 l 767 419 l 382 419 l 382 268 q 394 107 382 194 l 485 99 l 478 -7 q 208 0 365 0 l 69 -7 l 63 90 l 154 107 z "},"I":{"ha":563,"x_min":69,"x_max":493,"o":"m 161 107 l 174 226 l 174 711 q 161 865 174 765 l 71 882 l 78 986 q 217 979 151 979 l 486 986 l 493 874 l 401 865 q 389 753 389 803 l 389 268 q 401 107 389 194 l 492 99 l 485 -7 q 215 0 372 0 l 76 -7 l 69 90 l 161 107 z "},"J":{"ha":515,"x_min":44,"x_max":469,"o":"m 365 753 l 365 14 q 119 -278 365 -50 l 44 -235 q 150 15 150 -12 l 150 711 q 138 865 150 803 l 47 882 l 54 986 q 193 979 128 979 l 463 986 l 469 874 l 378 865 q 365 753 365 808 z "},"K":{"ha":1043,"x_min":67,"x_max":1050,"o":"m 1050 99 l 1043 -7 q 763 0 918 0 l 631 -7 l 624 90 l 678 101 q 596 228 618 197 l 388 490 l 613 801 l 651 874 l 608 882 l 615 986 q 750 979 683 979 l 981 986 l 988 874 l 907 865 q 801 758 843 804 l 622 514 q 907 179 715 410 q 983 107 918 165 l 1050 99 m 154 107 l 167 226 l 167 711 q 154 865 167 765 l 68 882 l 75 986 q 208 979 142 979 l 475 986 l 482 874 l 394 865 q 382 753 382 803 l 382 268 q 394 107 382 194 l 479 99 l 472 -7 q 207 0 363 0 l 74 -7 l 67 90 l 154 107 z "},"L":{"ha":785,"x_min":63,"x_max":771,"o":"m 154 107 l 167 226 l 167 711 q 154 865 167 765 l 64 882 l 71 986 q 210 979 144 979 l 479 986 l 486 874 l 394 865 q 382 753 382 803 l 382 268 q 393 121 382 199 l 524 121 q 631 132 578 121 q 663 213 656 186 q 674 271 669 239 l 771 264 l 750 19 l 724 -6 q 565 0 593 0 l 208 0 l 69 -7 l 63 90 l 154 107 z "},"M":{"ha":1361,"x_min":51,"x_max":1310,"o":"m 257 979 l 453 979 l 481 951 q 540 742 524 793 l 683 307 l 839 763 l 896 951 l 924 979 l 1058 979 l 1242 986 l 1247 886 l 1158 871 q 1154 790 1154 833 l 1199 183 q 1209 133 1203 156 q 1217 103 1215 111 l 1310 94 l 1303 -7 q 1053 0 1203 0 l 910 -7 l 903 86 l 996 103 q 1001 225 1001 167 l 979 719 l 724 0 l 596 0 l 347 719 l 321 225 q 326 103 321 167 l 421 94 l 413 -7 q 199 0 349 0 l 58 -7 l 51 86 l 146 103 q 165 183 151 121 l 204 790 q 196 869 204 819 l 103 886 l 110 986 q 257 979 197 979 z "},"N":{"ha":1114,"x_min":63,"x_max":1086,"o":"m 982 753 l 982 0 l 794 0 l 343 625 l 343 268 q 356 107 343 232 l 446 99 l 439 -7 q 208 0 365 0 l 69 -7 l 63 90 l 154 107 q 167 226 167 175 l 167 711 q 154 865 167 797 l 64 882 l 71 986 q 210 979 144 979 l 351 979 l 378 951 q 500 746 479 776 l 806 319 l 806 711 q 793 865 806 765 l 703 882 l 710 986 l 849 979 l 1079 986 l 1086 874 l 994 865 q 982 753 982 790 z "},"O":{"ha":1067,"x_min":38,"x_max":1029,"o":"m 533 1006 q 647 1006 533 1006 q 894 865 760 1006 q 1029 490 1029 725 q 894 114 1029 254 q 533 -26 760 -26 q 172 114 307 -26 q 38 490 38 254 q 172 865 38 725 q 533 1006 307 1006 m 533 871 q 471 871 533 871 q 348 777 408 871 q 288 490 288 683 q 348 202 288 296 q 533 108 408 108 q 719 202 658 108 q 779 490 779 296 q 719 777 779 683 q 533 871 658 871 z "},"P":{"ha":856,"x_min":63,"x_max":835,"o":"m 208 979 l 507 993 q 745 913 656 993 q 835 690 835 832 q 724 462 835 547 q 458 376 614 376 l 382 376 l 382 268 q 394 107 382 194 l 499 99 l 492 -7 q 208 0 365 0 l 69 -7 l 63 90 l 154 107 q 167 226 154 107 l 167 711 q 154 865 167 765 l 64 882 l 71 986 q 208 979 143 979 m 426 879 l 388 878 q 382 753 382 806 l 382 490 l 406 490 q 556 543 501 490 q 611 692 611 596 q 567 834 611 789 q 426 879 524 879 z "},"Q":{"ha":1075,"x_min":38,"x_max":1074,"o":"m 533 -26 q 172 114 307 -26 q 38 490 38 254 q 172 865 38 725 q 533 1006 307 1006 q 894 865 760 1006 q 1029 489 1029 725 q 958 200 1029 322 q 758 19 886 78 l 854 -44 l 1074 -139 l 949 -311 l 563 -26 l 533 -26 m 533 871 q 471 871 533 871 q 348 777 408 871 q 288 490 288 683 q 348 202 288 296 q 533 108 408 108 q 719 202 658 108 q 779 490 779 296 q 719 777 779 683 q 533 871 658 871 z "},"R":{"ha":918,"x_min":63,"x_max":919,"o":"m 214 979 l 500 993 q 736 915 647 993 q 825 700 825 836 q 779 546 825 614 q 656 436 733 478 q 804 182 699 350 l 853 104 l 919 99 l 913 -7 q 647 0 804 0 q 579 161 597 128 l 464 385 l 443 385 q 382 389 417 385 l 382 268 q 394 107 382 194 l 485 99 l 478 -7 q 208 0 365 0 l 69 -7 l 63 90 l 154 107 l 167 226 l 167 711 q 154 865 167 747 l 64 882 l 71 986 q 214 979 144 979 m 419 879 q 390 878 403 879 q 382 753 382 794 l 382 501 l 415 501 q 557 550 513 501 q 601 697 601 599 q 419 879 601 879 z "},"S":{"ha":796,"x_min":61,"x_max":742,"o":"m 197 307 q 199 213 199 226 q 218 153 199 200 q 361 114 292 114 q 472 144 431 114 q 513 226 513 174 q 480 315 513 278 q 398 376 447 353 q 292 430 349 399 q 185 494 235 461 q 103 587 136 528 q 71 724 71 646 q 162 925 71 850 q 394 1000 253 1000 q 703 950 536 1000 l 683 682 l 568 689 l 568 792 q 551 839 568 799 q 434 871 493 871 q 338 841 375 871 q 300 760 300 811 q 346 669 300 708 q 456 601 392 631 q 585 536 521 572 q 696 436 650 500 q 742 283 742 372 q 640 62 742 144 q 385 -21 539 -21 q 220 -4 301 -21 q 100 29 139 13 l 61 46 l 82 314 l 197 307 z "},"T":{"ha":869,"x_min":14,"x_max":857,"o":"m 315 107 l 328 226 l 328 711 q 315 865 328 758 l 250 865 q 139 858 208 865 q 122 812 126 828 q 114 731 118 796 l 14 738 l 24 968 l 50 993 q 208 979 181 979 l 661 979 l 819 993 l 846 968 l 857 738 l 757 731 q 749 812 753 796 q 732 858 744 828 q 626 865 669 865 l 556 865 q 543 753 543 799 l 543 268 q 556 107 543 194 l 646 99 l 639 -7 q 369 0 526 0 l 231 -7 l 224 90 l 315 107 z "},"U":{"ha":1082,"x_min":36,"x_max":1047,"o":"m 943 753 l 943 372 q 839 85 943 190 q 540 -21 735 -21 q 242 85 346 -21 q 139 372 139 190 l 139 711 q 126 865 139 807 l 36 882 l 43 986 q 182 979 117 979 l 458 986 l 465 874 l 374 865 q 361 753 361 819 l 361 361 q 415 201 361 264 q 569 138 468 138 q 715 194 669 138 q 760 361 760 251 l 760 711 q 747 865 760 772 l 657 882 l 664 986 q 803 979 738 979 l 1040 986 l 1047 874 l 956 865 q 943 753 943 807 z "},"V":{"ha":982,"x_min":-1,"x_max":979,"o":"m 410 0 l 119 801 q 82 876 111 825 l -1 889 l 6 986 q 133 979 82 979 l 422 986 l 429 885 l 339 872 q 350 800 342 825 l 511 288 l 688 819 l 697 872 l 608 889 l 615 986 q 768 979 703 979 l 972 986 l 979 885 l 910 875 q 847 756 863 797 l 569 0 l 410 0 z "},"W":{"ha":1429,"x_min":3,"x_max":1422,"o":"m 343 872 q 342 846 342 864 q 349 800 342 828 l 474 288 l 658 938 l 815 938 l 997 288 l 1138 819 q 1140 872 1146 847 l 1051 889 l 1058 986 q 1211 979 1146 979 l 1415 986 l 1422 885 l 1353 875 q 1297 756 1315 811 l 1056 0 l 896 0 l 718 588 l 532 0 l 372 0 l 118 801 l 86 876 l 3 889 l 10 986 q 138 979 86 979 l 426 986 l 433 885 l 343 872 z "},"X":{"ha":968,"x_min":10,"x_max":974,"o":"m 368 476 l 160 775 l 86 878 l 13 889 l 21 986 q 151 979 100 979 l 422 986 l 426 883 l 368 876 q 425 771 400 806 l 504 651 l 599 803 q 639 878 617 829 l 582 889 l 590 986 q 729 979 664 979 l 933 986 l 939 883 l 849 872 q 767 790 779 806 l 593 525 l 835 183 q 903 106 882 128 l 974 99 l 965 -7 q 694 0 851 0 l 572 -7 l 567 90 l 618 100 q 564 197 582 174 l 456 351 l 342 183 q 299 104 325 158 l 367 99 l 358 -7 q 154 0 269 0 l 15 -7 l 10 90 l 82 103 q 196 228 178 203 l 368 476 z "},"Y":{"ha":989,"x_min":-8,"x_max":986,"o":"m 376 107 l 389 226 l 389 346 l 142 801 q 88 865 125 832 l 75 876 l -8 889 l -1 986 q 126 979 75 979 l 415 986 l 422 885 l 349 872 q 372 800 358 826 l 518 513 l 671 819 l 676 872 l 615 889 l 622 986 q 775 979 710 979 l 979 986 l 986 885 l 903 875 q 817 756 840 800 l 604 347 l 604 268 q 617 107 604 194 l 707 99 l 700 -7 q 431 0 588 0 l 292 -7 l 285 90 l 376 107 z "},"Z":{"ha":849,"x_min":44,"x_max":803,"o":"m 299 856 q 183 849 253 856 l 165 810 q 144 704 150 753 l 44 711 l 54 968 l 82 993 q 242 979 214 979 l 768 979 l 782 868 l 633 644 l 417 294 l 328 124 l 546 124 q 663 135 604 124 q 697 222 689 189 q 708 282 706 256 l 803 275 l 782 19 l 754 -6 q 594 0 622 0 l 58 0 l 44 111 q 199 329 165 272 l 442 717 l 511 856 l 299 856 z "},"[":{"ha":368,"x_min":56,"x_max":326,"o":"m 218 835 l 218 56 q 228 -50 218 15 l 231 -69 l 326 -82 l 322 -174 q 89 -168 185 -168 l 56 -128 q 63 131 63 103 l 63 765 l 56 1018 l 89 1058 l 322 1064 l 326 972 l 231 960 q 218 835 218 890 z "},"\\":{"ha":553,"x_min":-10,"x_max":544,"o":"m 544 -49 l 414 -90 l -10 1032 l 119 1074 l 544 -49 z "},"]":{"ha":368,"x_min":42,"x_max":313,"o":"m 150 56 l 150 835 q 142 942 150 892 l 138 960 l 42 972 l 46 1064 q 279 1058 183 1058 l 313 1018 q 306 765 306 793 l 306 131 l 313 -128 l 279 -168 l 46 -174 l 42 -82 l 138 -69 q 150 56 150 0 z "},"^":{"ha":817,"x_min":28,"x_max":789,"o":"m 408 1017 l 789 518 l 665 436 l 408 803 l 151 436 l 28 518 l 408 1017 z "},"_":{"ha":700,"x_min":0,"x_max":700,"o":"m 3 -322 l 0 -190 l 700 -190 l 693 -322 l 3 -322 z "},"`":{"ha":500,"x_min":74,"x_max":426,"o":"m 426 865 l 361 785 l 268 853 l 74 943 l 139 1049 l 426 865 z "},"a":{"ha":726,"x_min":39,"x_max":710,"o":"m 243 -14 q 94 39 149 -14 q 39 183 39 92 q 222 375 39 346 l 419 407 l 419 447 q 396 544 419 515 q 315 572 372 572 q 203 546 258 572 l 193 490 l 194 431 l 90 426 l 69 661 q 324 699 219 699 q 538 633 461 699 q 614 449 614 567 l 614 268 q 622 132 614 197 l 626 107 l 710 99 l 701 -7 q 446 0 633 0 l 435 100 q 243 -14 372 -14 m 244 214 q 319 129 244 129 q 382 153 356 129 q 419 218 408 176 l 419 317 l 317 300 q 261 273 278 293 q 244 214 244 253 z "},"b":{"ha":796,"x_min":-12,"x_max":761,"o":"m 300 774 l 300 601 q 505 699 376 699 q 697 603 633 699 q 761 344 761 508 q 672 83 761 179 q 422 -14 582 -14 q 92 36 261 -14 q 106 226 106 199 l 106 815 l 92 936 l -12 960 l 0 1064 q 163 1050 104 1050 l 285 1053 l 314 1026 q 300 774 300 843 m 422 542 q 300 361 310 542 l 300 268 q 304 136 300 244 q 396 118 361 118 q 510 174 481 118 q 540 329 540 229 q 516 485 540 429 q 422 542 492 542 z "},"c":{"ha":647,"x_min":35,"x_max":633,"o":"m 375 699 q 586 674 485 699 l 621 665 l 600 419 l 482 424 l 483 499 q 478 553 481 535 q 388 589 438 589 q 288 528 319 589 q 256 340 256 468 q 422 114 256 114 q 506 125 465 114 q 565 147 546 136 l 585 158 l 633 78 q 382 -21 522 -21 q 124 72 213 -21 q 35 335 35 164 q 126 603 35 507 q 375 699 217 699 z "},"d":{"ha":817,"x_min":33,"x_max":785,"o":"m 510 104 q 299 -14 428 -14 q 102 76 171 -14 q 33 337 33 167 q 124 603 33 507 q 382 699 215 699 q 494 692 428 699 l 494 815 l 481 936 l 376 960 l 389 1064 q 551 1050 493 1050 l 674 1053 l 703 1026 q 689 774 689 843 l 689 268 q 697 132 689 197 l 701 107 l 785 99 l 776 -7 q 521 0 708 0 l 510 104 m 399 567 q 288 515 322 567 q 254 350 254 464 q 372 143 254 143 q 494 324 483 143 l 494 549 q 399 567 439 567 z "},"e":{"ha":692,"x_min":35,"x_max":661,"o":"m 35 338 q 35 423 35 338 q 126 603 35 508 q 367 699 217 699 q 589 614 517 699 q 661 396 661 529 q 660 361 661 379 l 631 307 l 257 307 q 306 157 264 201 q 431 113 347 113 q 517 124 475 113 q 579 147 560 136 l 599 158 l 647 78 q 376 -21 538 -21 q 125 73 215 -21 q 35 338 35 167 m 354 589 q 282 542 304 589 q 256 408 260 496 l 440 419 q 442 431 442 428 q 354 589 442 589 z "},"f":{"ha":501,"x_min":49,"x_max":594,"o":"m 56 669 l 139 696 l 139 806 q 208 995 139 921 q 390 1069 276 1069 q 564 1056 475 1069 l 594 1050 l 574 818 l 471 822 l 471 885 q 465 946 471 904 q 414 957 440 957 q 349 919 365 957 q 333 792 333 882 l 333 686 l 488 686 l 475 582 l 333 582 l 333 268 q 342 132 333 197 l 346 107 l 464 99 l 457 -7 q 194 0 351 0 l 56 -7 l 49 90 l 126 107 q 139 226 139 199 l 139 582 l 60 582 l 56 669 z "},"g":{"ha":728,"x_min":38,"x_max":715,"o":"m 656 450 q 574 266 656 336 q 357 196 492 196 q 263 207 307 196 q 243 165 243 183 q 358 117 243 129 q 643 75 601 90 q 715 -60 715 47 q 608 -247 715 -168 q 343 -326 500 -326 q 38 -128 38 -326 q 73 -72 38 -106 q 165 -6 108 -39 q 106 122 106 36 q 190 233 106 150 q 64 444 64 300 q 146 628 64 558 q 363 699 228 699 q 514 669 450 699 l 696 700 l 701 581 l 619 581 q 656 450 656 526 m 222 -106 q 404 -215 222 -215 q 508 -192 469 -215 q 546 -128 546 -168 q 500 -81 546 -87 l 319 -53 q 247 -39 274 -46 q 222 -106 222 -72 m 363 607 q 275 447 275 607 q 358 288 275 288 q 444 447 444 288 q 363 607 444 607 z "},"h":{"ha":876,"x_min":17,"x_max":867,"o":"m 329 774 l 329 604 q 522 699 406 699 q 701 635 639 699 q 764 451 764 572 l 764 268 q 772 132 764 197 l 776 107 l 867 99 l 860 -7 q 611 0 768 0 l 492 -7 l 485 90 l 563 107 q 565 156 564 126 q 568 203 567 185 q 569 226 569 221 l 569 432 q 544 524 569 489 q 465 560 518 560 q 370 508 411 560 q 329 368 329 457 l 329 268 q 339 132 329 219 l 342 107 l 432 99 l 425 -7 q 176 0 333 0 l 38 -7 l 31 90 l 122 107 q 135 226 135 175 l 135 815 l 121 936 l 17 960 l 29 1064 q 192 1050 133 1050 l 314 1053 l 343 1026 q 329 774 329 878 z "},"i":{"ha":461,"x_min":24,"x_max":439,"o":"m 142 226 l 142 451 l 128 572 l 24 596 l 36 699 q 199 686 140 686 l 321 689 l 350 663 q 336 410 336 479 l 336 268 q 344 132 336 197 l 349 107 l 439 99 l 432 -7 q 183 0 340 0 l 44 -7 l 38 90 l 129 107 q 142 226 142 199 m 154 990 q 169 1006 154 990 q 235 1021 183 1021 q 315 991 286 1021 q 344 910 344 961 q 316 830 344 860 q 235 800 288 800 q 153 830 182 800 q 125 910 125 860 q 154 990 125 960 z "},"j":{"ha":428,"x_min":7,"x_max":333,"o":"m 319 410 l 319 -14 q 261 -117 319 -39 q 144 -261 203 -194 l 86 -326 l 21 -290 q 125 29 125 -26 l 125 451 l 111 572 l 7 596 l 19 699 q 182 686 124 686 l 304 689 l 333 663 q 319 410 319 479 m 129 990 q 144 1006 129 990 q 210 1021 158 1021 q 290 991 261 1021 q 319 910 319 961 q 291 830 319 860 q 210 800 263 800 q 128 830 157 800 q 100 910 100 860 q 129 990 100 960 z "},"k":{"ha":849,"x_min":17,"x_max":846,"o":"m 329 774 l 329 268 q 339 132 329 219 l 342 107 l 432 99 l 425 -7 q 176 0 333 0 l 38 -7 l 31 90 l 122 107 q 135 226 135 175 l 135 815 l 121 936 l 17 960 l 29 1064 q 192 1050 133 1050 l 314 1053 l 343 1026 q 329 774 329 878 m 681 0 l 544 0 l 499 94 l 468 153 l 344 368 l 518 586 l 443 594 l 450 693 q 671 686 574 686 l 832 692 l 829 594 l 756 588 q 642 508 660 532 l 549 389 l 653 225 q 763 107 656 221 l 846 99 l 838 -7 q 681 0 761 0 z "},"l":{"ha":457,"x_min":17,"x_max":432,"o":"m 329 774 l 329 268 q 339 132 329 219 l 342 107 l 432 99 l 425 -7 q 176 0 333 0 l 38 -7 l 31 90 l 122 107 q 135 226 135 175 l 135 815 l 121 936 l 17 960 l 29 1064 q 192 1050 133 1050 l 314 1053 l 343 1026 q 329 774 329 878 z "},"m":{"ha":1274,"x_min":24,"x_max":1264,"o":"m 528 699 q 728 576 678 699 q 940 699 813 699 q 1105 635 1049 699 q 1161 451 1161 572 l 1161 268 q 1169 132 1161 197 l 1174 107 l 1264 99 l 1257 -7 q 1008 0 1165 0 l 889 -7 l 882 90 l 960 107 q 963 156 961 126 q 965 203 964 185 q 967 226 967 221 l 967 432 q 875 560 967 560 q 786 508 824 560 q 749 368 749 457 l 749 268 q 758 132 749 219 l 761 107 l 851 99 l 844 -7 q 596 0 753 0 l 476 -7 l 469 90 l 547 107 q 550 156 549 126 q 553 203 551 185 q 554 226 554 221 l 554 432 q 463 560 554 560 q 374 508 411 560 q 336 368 336 457 l 336 268 q 344 132 336 197 l 349 107 l 439 99 l 432 -7 q 183 0 340 0 l 44 -7 l 38 90 l 129 107 q 142 226 142 199 l 142 451 l 128 572 l 24 596 l 36 699 q 199 686 140 686 l 265 689 l 294 663 l 308 565 q 528 699 397 699 z "},"n":{"ha":883,"x_min":24,"x_max":874,"o":"m 539 699 q 712 635 653 699 q 771 451 771 572 l 771 268 q 781 132 771 219 l 783 107 l 874 99 l 867 -7 q 618 0 775 0 l 499 -7 l 492 90 l 569 107 q 572 156 571 126 q 575 203 574 185 q 576 226 576 221 l 576 432 q 551 524 576 489 q 472 560 525 560 q 377 508 418 560 q 336 368 336 457 l 336 268 q 344 132 336 197 l 349 107 l 439 99 l 432 -7 q 183 0 340 0 l 44 -7 l 38 90 l 129 107 q 142 226 142 199 l 142 451 l 128 572 l 24 596 l 36 699 q 199 686 140 686 l 265 689 l 294 663 l 308 563 q 539 699 400 699 z "},"o":{"ha":756,"x_min":35,"x_max":721,"o":"m 632 606 q 676 559 632 606 q 721 339 721 513 q 632 72 721 165 q 378 -21 543 -21 q 124 72 213 -21 q 35 339 35 165 q 124 606 35 513 q 378 699 213 699 q 632 606 543 699 m 472 154 q 486 183 472 154 q 500 339 500 211 q 472 524 500 467 q 378 581 443 581 q 284 524 313 581 q 256 339 256 467 q 284 154 256 211 q 378 97 313 97 q 472 154 443 97 z "},"p":{"ha":818,"x_min":10,"x_max":783,"o":"m 294 561 q 512 699 378 699 q 715 608 646 699 q 783 348 783 518 q 692 82 783 178 q 435 -14 601 -14 q 322 -7 388 -14 l 322 -50 q 333 -192 322 -112 l 336 -218 l 446 -226 l 439 -325 q 190 -318 347 -318 l 51 -325 l 44 -235 l 114 -218 q 128 -92 128 -119 l 128 451 l 114 572 l 10 596 l 22 699 q 185 686 117 686 l 251 689 l 281 663 l 294 561 m 444 542 q 322 361 333 542 l 322 138 q 418 118 381 118 q 528 169 494 118 q 563 335 563 221 q 444 542 563 542 z "},"q":{"ha":793,"x_min":35,"x_max":772,"o":"m 496 -93 l 496 82 q 296 -15 419 -15 q 103 75 172 -15 q 35 335 35 165 q 126 601 35 506 q 376 697 217 697 q 704 647 536 697 q 690 457 690 485 l 690 -51 q 700 -193 690 -114 l 704 -219 l 772 -228 l 765 -326 q 517 -319 674 -319 l 378 -326 l 371 -236 l 482 -219 q 496 -93 496 -121 m 374 142 q 496 322 485 142 l 496 415 q 492 549 496 440 q 400 565 436 565 q 290 514 324 565 q 256 349 256 463 q 374 142 256 142 z "},"r":{"ha":636,"x_min":24,"x_max":617,"o":"m 503 699 q 600 689 547 699 l 617 685 l 596 406 l 493 410 l 493 486 q 482 558 493 492 q 474 560 479 560 q 377 508 418 560 q 336 368 336 457 l 336 268 q 344 132 336 197 l 349 107 l 464 99 l 457 -7 q 194 0 351 0 l 42 -7 l 35 90 l 129 107 q 142 226 142 199 l 142 451 l 128 572 l 24 596 l 36 700 q 199 686 140 686 l 265 689 l 294 663 l 307 571 q 503 699 389 699 z "},"s":{"ha":596,"x_min":42,"x_max":558,"o":"m 46 492 q 115 647 46 594 q 303 699 185 699 q 528 665 422 699 l 511 446 l 418 453 l 418 513 q 399 565 418 526 q 301 588 349 588 q 211 535 211 588 q 247 487 211 507 q 334 448 283 467 q 435 404 385 429 q 522 328 486 379 q 558 203 558 276 q 485 42 558 99 q 288 -14 413 -14 q 81 11 204 -14 l 42 18 l 58 247 l 157 240 l 157 178 q 160 161 157 174 q 165 142 164 149 q 169 126 167 135 q 287 96 244 96 q 355 112 329 96 q 381 156 381 128 q 346 206 381 185 q 263 246 311 228 q 165 290 214 264 q 81 367 115 315 q 46 492 46 418 z "},"t":{"ha":497,"x_min":19,"x_max":506,"o":"m 326 137 q 336 124 326 137 q 379 111 346 111 q 454 139 413 111 l 506 60 q 311 -14 413 -14 q 161 42 210 -14 q 113 217 113 99 l 113 582 l 24 582 l 19 669 q 154 728 149 721 l 231 849 l 307 843 l 307 686 l 472 686 l 460 582 l 307 582 l 307 199 q 326 137 307 163 z "},"u":{"ha":864,"x_min":24,"x_max":836,"o":"m 740 410 l 740 268 q 750 132 740 219 l 753 107 l 836 99 l 828 -7 q 572 0 760 0 l 560 108 q 358 -6 478 -6 q 176 58 238 -6 q 114 242 114 121 l 114 451 l 100 576 l 24 596 l 36 699 q 192 686 133 686 l 293 689 l 322 663 q 308 410 308 479 l 308 261 q 333 168 308 203 q 412 133 358 133 q 506 185 465 133 q 546 325 546 236 l 546 451 l 532 572 l 428 596 l 440 699 q 603 686 544 686 l 725 689 l 754 663 q 740 410 740 479 z "},"v":{"ha":776,"x_min":-4,"x_max":765,"o":"m 765 594 l 703 586 q 638 443 646 465 l 471 0 l 294 0 q 125 490 139 447 q 86 588 111 532 l -4 603 l 3 699 q 210 686 113 686 l 354 693 l 361 594 l 299 589 q 315 492 307 526 l 393 206 l 488 492 q 513 589 496 517 l 450 594 l 457 693 q 636 686 539 686 l 758 693 l 765 594 z "},"w":{"ha":1157,"x_min":3,"x_max":1150,"o":"m 1150 594 l 1090 586 q 1025 443 1033 465 l 863 0 l 682 0 l 579 335 l 467 0 l 288 0 q 118 490 132 447 q 79 588 104 532 l 3 603 l 10 699 q 203 686 106 686 l 374 693 l 381 594 l 289 589 q 308 490 307 497 l 386 206 l 533 686 l 656 686 l 785 206 l 875 493 q 900 589 885 521 l 819 594 l 826 693 q 1024 686 926 686 l 1143 693 l 1150 594 z "},"x":{"ha":799,"x_min":19,"x_max":788,"o":"m 328 590 l 414 447 l 503 590 l 456 596 l 463 693 q 638 686 543 686 l 758 693 l 765 596 l 715 588 l 582 432 l 524 353 l 608 238 l 731 104 l 788 89 l 783 -12 q 567 0 661 0 l 426 -7 l 419 96 l 475 101 l 457 132 l 378 251 l 296 125 l 285 101 l 329 97 l 322 -7 q 147 0 243 0 l 26 -7 l 19 96 l 72 106 l 200 256 l 269 350 l 200 449 l 69 593 l 24 604 l 31 699 q 246 686 151 686 l 386 693 l 393 596 l 328 590 z "},"y":{"ha":793,"x_min":6,"x_max":789,"o":"m 418 219 l 503 497 q 519 588 517 540 l 458 594 l 467 693 q 632 686 542 686 l 783 693 l 789 594 l 721 588 q 663 456 690 535 l 360 -326 l 85 -308 l 100 -199 l 176 -201 q 238 -193 211 -201 q 281 -115 264 -162 l 324 0 l 151 451 q 93 588 111 554 l 6 603 l 14 699 q 207 686 117 686 l 364 693 l 369 594 l 311 588 q 331 494 317 535 l 418 219 z "},"z":{"ha":639,"x_min":29,"x_max":626,"o":"m 196 686 l 594 686 l 604 590 l 497 454 l 331 197 q 286 111 317 178 l 399 111 q 446 118 406 111 q 499 126 486 125 q 526 201 521 178 q 531 246 531 224 l 626 238 l 611 24 l 583 -4 q 453 0 481 0 l 49 0 l 29 97 q 146 233 126 203 l 315 489 q 361 575 333 514 l 251 575 q 210 568 246 575 q 161 560 174 561 q 143 501 143 519 l 138 422 l 32 426 l 39 663 l 68 690 q 196 686 168 686 z "},"{":{"ha":401,"x_min":42,"x_max":374,"o":"m 279 381 l 265 56 q 275 -50 265 15 l 278 -69 l 374 -82 l 369 -174 q 136 -168 232 -168 l 103 -128 l 143 358 q 91 394 126 376 q 42 411 56 411 l 47 479 q 93 497 58 479 q 144 532 128 514 l 103 1018 l 136 1058 l 369 1064 l 374 972 l 278 960 q 265 835 265 890 l 279 510 q 197 458 244 478 l 183 451 l 183 439 q 279 381 238 419 z "},"|":{"ha":388,"x_min":128,"x_max":260,"o":"m 260 -169 l 128 -157 l 128 1056 l 260 1044 l 260 -169 z "},"}":{"ha":401,"x_min":28,"x_max":360,"o":"m 122 510 l 136 835 q 128 942 136 892 l 124 960 l 28 972 l 32 1064 q 265 1058 169 1058 l 299 1018 l 257 532 q 309 497 274 514 q 360 479 344 479 l 354 411 q 308 393 343 411 q 257 358 274 375 l 299 -128 l 265 -168 l 32 -174 l 28 -82 l 124 -69 q 136 56 136 0 l 122 381 q 203 433 157 413 l 218 439 l 218 451 q 122 510 164 471 z "},"~":{"ha":839,"x_min":83,"x_max":756,"o":"m 727 338 q 718 325 727 338 q 666 267 710 311 q 585 222 622 222 q 418 264 549 222 q 261 306 288 306 q 172 256 213 306 l 158 238 l 83 300 q 112 345 94 318 q 173 417 129 372 q 247 461 217 461 q 426 419 299 461 q 579 378 553 378 q 667 428 626 378 l 681 446 l 756 383 q 727 338 744 365 z "}," ":{"ha":249,"x_min":0,"x_max":0,"o":""},"¡":{"ha":332,"x_min":36,"x_max":256,"o":"m 67 350 l 90 372 q 232 365 132 365 q 231 274 231 315 l 243 -304 l 76 -317 l 36 -278 q 71 243 71 25 l 67 350 m 77 675 q 91 690 77 675 q 153 706 104 706 q 228 676 201 706 q 256 595 256 646 q 228 515 256 544 q 153 485 201 485 q 77 515 104 485 q 50 594 50 544 q 77 675 50 644 z "},"¢":{"ha":703,"x_min":56,"x_max":654,"o":"m 513 664 q 423 700 471 700 q 344 681 375 700 q 300 625 314 663 q 276 451 276 560 q 443 225 276 225 q 526 236 486 225 q 586 258 567 247 l 606 269 l 654 189 q 426 90 551 99 l 421 -58 l 331 -54 l 336 94 q 126 203 197 111 q 56 449 56 294 q 135 701 56 604 q 365 808 215 799 l 372 957 l 461 953 l 456 807 q 617 782 544 799 l 642 776 l 621 531 l 517 535 l 518 610 l 513 664 z "},"£":{"ha":856,"x_min":63,"x_max":814,"o":"m 186 649 q 275 853 186 781 q 504 926 364 926 q 786 882 606 926 l 769 656 l 669 660 l 665 722 q 654 775 665 736 q 503 804 585 804 q 419 767 451 804 q 388 678 388 731 l 388 560 l 632 571 l 635 482 l 388 469 l 388 413 l 639 424 l 642 335 l 388 322 l 388 268 q 397 121 388 218 l 567 121 q 672 132 619 121 q 717 271 707 197 l 814 264 l 793 19 l 767 -6 q 608 0 636 0 l 217 0 l 89 -7 l 82 90 l 174 107 q 186 226 186 199 l 186 314 l 72 308 l 69 399 l 186 403 l 186 461 l 65 456 l 63 546 l 186 551 l 186 649 z "},"¥":{"ha":908,"x_min":17,"x_max":892,"o":"m 531 913 q 683 906 619 906 q 867 911 826 906 l 885 913 l 892 807 l 824 799 q 731 679 740 701 l 664 567 l 764 571 l 767 482 l 610 475 l 575 415 l 771 424 l 774 335 l 557 325 l 557 268 q 567 132 557 219 l 569 107 l 343 107 q 356 226 356 199 l 356 317 l 149 308 l 146 399 l 322 406 l 290 461 l 142 456 l 139 546 l 240 550 l 147 717 q 85 800 133 743 l 17 815 l 24 913 q 156 906 90 906 l 404 913 l 411 807 l 335 800 q 356 747 350 757 l 475 531 l 607 763 l 619 799 l 524 815 l 531 913 m 343 107 l 569 107 l 660 99 l 653 -7 q 404 0 561 0 l 258 -7 l 251 90 l 343 107 z "},"¦":{"ha":388,"x_min":128,"x_max":260,"o":"m 260 544 l 128 556 l 128 1056 l 260 1044 l 260 544 m 128 294 l 260 285 l 260 -169 l 128 -157 l 128 294 z "},"§":{"ha":797,"x_min":111,"x_max":700,"o":"m 700 78 q 619 -87 700 -29 q 406 -146 538 -146 q 126 -106 274 -146 l 143 117 l 242 110 l 242 35 q 249 -8 242 22 q 356 -33 288 -33 q 456 -9 424 -33 q 488 54 488 15 q 449 122 488 93 q 355 172 410 150 q 244 219 300 194 q 150 286 189 244 q 111 374 111 328 q 130 461 111 419 q 167 526 149 503 l 186 550 l 208 536 q 259 451 208 489 q 382 383 310 413 q 526 317 454 353 q 649 219 599 281 q 700 78 700 158 m 111 776 q 190 942 111 883 q 392 1000 269 1000 q 657 960 515 1000 l 640 751 l 542 758 l 542 833 q 536 861 542 836 q 444 888 504 888 q 354 863 385 888 q 324 800 324 839 q 363 733 324 761 q 456 682 401 704 q 567 635 511 660 q 661 568 622 610 q 700 481 700 526 q 681 393 700 435 q 644 328 663 351 l 625 304 l 603 318 q 552 403 603 365 q 429 472 501 442 q 285 538 357 501 q 162 635 213 574 q 111 776 111 696 z "},"¨":{"ha":500,"x_min":-8,"x_max":508,"o":"m 17 981 q 29 994 17 981 q 86 1007 42 1007 q 155 981 131 1007 q 179 910 179 956 q 155 840 179 865 q 86 814 131 814 q 17 840 42 814 q -8 910 -8 867 q 17 981 -8 954 m 347 981 q 359 994 347 981 q 415 1007 371 1007 q 484 981 460 1007 q 508 910 508 956 q 484 840 508 865 q 415 814 460 814 q 347 840 371 814 q 322 910 322 865 q 347 981 322 954 z "},"©":{"ha":1174,"x_min":79,"x_max":1094,"o":"m 588 854 q 693 854 588 854 q 947 707 799 854 q 1094 350 1094 560 q 945 -10 1094 140 q 587 -160 796 -160 q 228 -12 378 -160 q 79 346 79 135 q 228 706 79 557 q 588 854 378 854 m 587 -64 q 672 -64 587 -64 q 877 57 757 -64 q 997 347 997 178 q 876 637 997 515 q 586 758 756 758 q 296 639 417 758 q 175 349 175 519 q 296 57 175 178 q 587 -64 417 -64 m 604 61 q 384 140 460 61 q 308 352 308 219 q 384 564 308 485 q 604 643 460 643 q 785 615 664 643 l 772 464 l 704 467 l 700 521 q 690 550 700 531 q 604 558 640 558 q 479 352 479 558 q 603 146 479 146 q 701 157 650 146 q 714 192 714 188 l 718 231 l 783 232 l 790 89 q 604 61 669 61 z "},"ª":{"ha":492,"x_min":28,"x_max":476,"o":"m 164 615 q 64 651 100 615 q 28 747 28 686 q 149 872 28 853 l 276 892 l 276 918 q 260 978 276 960 q 210 996 244 996 q 139 979 175 996 l 132 944 l 133 899 l 61 896 l 47 1054 q 225 1079 142 1079 q 362 1037 308 1079 q 415 922 415 994 l 415 804 l 422 697 l 476 692 l 471 621 q 292 625 426 625 l 286 689 q 164 615 244 615 m 221 824 q 175 765 175 814 q 221 717 175 717 q 276 765 261 717 l 276 831 l 221 824 z "},"«":{"ha":617,"x_min":28,"x_max":575,"o":"m 28 336 l 240 658 l 333 596 l 188 336 l 333 76 l 240 14 l 28 336 m 269 336 l 482 658 l 575 596 l 429 336 l 575 76 l 482 14 l 269 336 z "},"¬":{"ha":813,"x_min":90,"x_max":722,"o":"m 90 428 l 722 428 l 722 90 l 589 90 l 592 293 l 90 288 l 90 428 z "},"®":{"ha":1174,"x_min":79,"x_max":1094,"o":"m 588 854 q 693 854 588 854 q 947 707 799 854 q 1094 350 1094 560 q 945 -10 1094 140 q 587 -160 796 -160 q 228 -12 378 -160 q 79 346 79 135 q 228 706 79 557 q 588 854 378 854 m 587 -64 q 672 -64 587 -64 q 877 57 757 -64 q 997 347 997 178 q 876 637 997 515 q 586 758 756 758 q 296 639 417 758 q 175 349 175 519 q 296 57 175 178 q 587 -64 417 -64 m 433 646 l 608 654 q 751 608 696 654 q 806 477 806 563 q 713 338 806 392 q 772 233 746 271 q 801 192 799 196 q 813 175 804 189 l 825 154 l 856 150 l 853 85 q 686 89 789 89 q 647 181 657 161 l 583 301 l 547 301 l 547 250 q 557 156 547 233 l 601 150 l 599 85 q 424 89 526 89 l 347 85 l 343 147 l 393 156 q 400 226 400 197 l 400 475 q 393 574 400 490 l 344 583 l 349 650 q 433 646 388 646 m 558 579 l 551 579 q 547 518 547 542 l 547 376 l 554 376 q 629 403 608 376 q 650 481 650 429 q 629 556 650 533 q 558 579 608 579 z "},"¯":{"ha":500,"x_min":26,"x_max":474,"o":"m 26 828 l 26 929 l 474 929 l 464 828 l 26 828 z "},"°":{"ha":529,"x_min":42,"x_max":488,"o":"m 427 869 q 457 842 427 869 q 488 718 488 814 q 427 567 488 622 q 264 511 367 511 q 101 567 161 511 q 42 718 42 622 q 101 869 42 814 q 264 925 161 925 q 427 869 367 925 m 199 806 q 188 788 199 806 q 176 718 176 771 q 199 631 176 665 q 265 596 221 596 q 331 631 310 596 q 353 718 353 665 q 331 806 353 771 q 265 840 310 840 q 199 806 221 840 z "},"±":{"ha":835,"x_min":101,"x_max":733,"o":"m 347 190 l 347 419 l 101 417 l 101 556 l 347 556 l 347 781 l 479 781 l 482 556 l 733 556 l 733 424 l 483 421 l 486 190 l 347 190 m 733 0 l 101 0 l 101 126 l 733 133 l 733 0 z "},"²":{"ha":518,"x_min":19,"x_max":481,"o":"m 42 1189 q 235 1222 133 1222 q 391 1180 336 1222 q 446 1065 446 1138 q 397 930 446 993 q 201 740 347 867 l 307 740 l 379 750 q 393 797 390 788 l 401 835 l 481 829 l 472 640 l 442 622 q 340 625 357 625 l 33 625 l 19 722 q 235 930 182 868 q 288 1051 288 992 q 265 1106 288 1085 q 209 1126 243 1126 q 135 1104 175 1126 q 128 1068 128 1082 l 128 1029 l 47 1024 l 42 1189 z "},"³":{"ha":465,"x_min":21,"x_max":426,"o":"m 190 1222 q 401 1063 401 1222 q 300 924 401 975 q 390 873 353 914 q 426 783 426 832 q 317 614 426 686 q 44 531 208 542 l 24 604 q 198 660 132 615 q 264 772 264 706 q 176 865 264 865 l 121 861 l 108 932 q 215 981 178 944 q 251 1072 251 1017 q 183 1138 251 1138 q 118 1128 150 1138 q 114 1103 114 1108 l 113 1046 l 33 1040 l 21 1196 q 190 1222 96 1222 z "},"´":{"ha":500,"x_min":74,"x_max":426,"o":"m 361 1049 l 426 943 q 232 853 257 865 l 139 785 l 74 865 l 361 1049 z "},"µ":{"ha":821,"x_min":56,"x_max":792,"o":"m 374 -6 q 271 15 311 -6 l 271 -96 l 278 -303 l 85 -303 l 56 -276 q 76 -54 76 -124 l 76 451 l 69 686 l 256 686 l 285 660 q 271 410 271 479 l 271 261 q 297 169 271 204 q 374 133 322 133 q 467 182 426 133 q 511 315 508 231 l 511 465 l 504 686 l 690 686 l 719 660 q 704 424 706 500 l 704 232 q 717 124 704 142 q 759 92 729 107 q 792 76 789 78 l 765 -21 q 732 -17 756 -19 q 701 -15 708 -15 q 676 -11 694 -14 q 650 -6 657 -8 l 631 0 q 610 10 615 6 q 594 22 604 15 q 578 39 583 29 q 551 86 560 67 q 374 -6 486 -6 z "},"¶":{"ha":868,"x_min":38,"x_max":811,"o":"m 625 979 q 804 986 756 979 l 811 874 l 719 865 l 718 865 q 714 753 714 799 l 714 143 l 726 -106 l 486 -18 q 499 101 499 74 l 499 979 l 625 979 m 372 404 q 134 484 231 404 q 38 694 38 564 q 124 905 38 825 q 343 985 211 985 q 429 979 388 985 l 429 458 l 372 404 m 486 -18 l 726 -106 l 700 -131 q 513 -125 550 -125 l 374 -132 l 367 -35 l 486 -18 z "},"·":{"ha":338,"x_min":56,"x_max":275,"o":"m 85 501 q 99 517 85 501 q 165 533 114 533 q 246 502 217 533 q 275 417 275 471 q 246 331 275 363 q 165 299 217 299 q 85 331 114 299 q 56 415 56 363 q 85 501 56 468 z "},"¸":{"ha":500,"x_min":128,"x_max":419,"o":"m 279 -82 q 381 -115 342 -83 q 419 -206 419 -147 q 376 -296 419 -265 q 256 -326 332 -326 q 128 -301 181 -326 l 153 -233 q 229 -249 201 -249 q 294 -203 294 -249 q 236 -160 294 -160 l 207 -161 l 192 -142 l 207 14 l 299 14 l 279 -82 z "},"¹":{"ha":408,"x_min":40,"x_max":393,"o":"m 169 776 l 169 1054 l 76 1024 l 40 1083 q 171 1181 153 1165 l 215 1232 l 321 1221 q 313 1010 313 1054 l 313 804 q 316 736 313 757 q 320 709 319 715 q 322 697 321 703 l 393 692 l 388 621 q 203 625 313 625 l 83 621 l 79 688 l 161 697 l 164 711 q 169 776 169 760 z "},"º":{"ha":511,"x_min":26,"x_max":485,"o":"m 425 1019 q 455 989 425 1019 q 485 844 485 958 q 426 671 485 731 q 256 611 367 611 q 85 671 144 611 q 26 845 26 731 q 85 1019 26 960 q 255 1079 144 1079 q 425 1019 365 1079 m 255 693 q 274 693 255 693 q 310 727 293 693 q 328 845 328 761 q 310 963 328 929 q 255 997 293 997 q 200 963 217 997 q 183 845 183 929 q 200 727 183 761 q 255 693 217 693 z "},"»":{"ha":617,"x_min":42,"x_max":589,"o":"m 347 336 l 135 14 l 42 76 l 188 336 l 42 596 l 135 658 l 347 336 m 589 336 l 376 14 l 283 76 l 429 336 l 283 596 l 376 658 l 589 336 z "},"¼":{"ha":1189,"x_min":40,"x_max":1144,"o":"m 169 568 l 169 846 l 76 815 l 40 875 q 171 972 153 957 l 215 1024 l 321 1013 q 313 801 313 846 l 313 596 q 316 528 313 549 q 320 501 319 507 q 322 489 321 494 l 393 483 l 388 413 q 203 417 313 417 l 83 413 l 79 479 l 161 489 l 164 503 q 169 568 169 551 m 808 1000 l 906 938 l 317 -68 l 218 -6 l 808 1000 m 910 257 l 910 339 l 1054 388 l 1054 265 l 1144 271 l 1144 167 l 1054 167 l 1054 147 q 1064 74 1054 99 l 1125 68 l 1121 -4 q 924 0 1035 0 l 815 -4 l 811 63 l 901 74 q 904 97 903 86 q 907 118 906 107 q 910 154 910 140 l 910 167 l 717 167 l 640 258 l 979 688 l 1081 604 q 969 493 983 514 l 788 257 l 910 257 z "},"½":{"ha":1257,"x_min":40,"x_max":1204,"o":"m 169 568 l 169 846 l 76 815 l 40 875 q 171 972 153 957 l 215 1024 l 321 1013 q 313 801 313 846 l 313 596 q 316 528 313 549 q 320 501 319 507 q 322 489 321 494 l 393 483 l 388 413 q 203 417 313 417 l 83 413 l 79 479 l 161 489 l 164 503 q 169 568 169 551 m 808 1000 l 906 938 l 317 -68 l 218 -6 l 808 1000 m 751 583 q 951 617 847 617 q 1115 574 1056 617 q 1174 458 1174 532 q 1117 310 1174 385 q 911 115 1060 236 l 1017 115 l 1103 125 q 1117 172 1114 163 l 1125 210 l 1204 204 l 1196 15 l 1165 -3 q 1064 0 1081 0 l 743 0 l 729 97 q 949 306 890 233 q 1008 442 1008 379 q 986 499 1008 479 q 926 518 964 518 q 844 496 889 518 q 838 463 838 474 l 838 424 l 757 418 l 751 583 z "},"¾":{"ha":1163,"x_min":21,"x_max":1118,"o":"m 190 1014 q 401 854 401 1014 q 300 715 401 767 q 390 665 353 706 q 426 575 426 624 q 317 406 426 478 q 44 322 208 333 l 24 396 q 198 452 132 407 q 264 564 264 497 q 176 657 264 657 l 121 653 l 108 724 q 215 772 178 736 q 251 864 251 808 q 183 929 251 929 q 118 919 150 929 q 114 894 114 900 l 113 838 l 33 832 l 21 988 q 190 1014 96 1014 m 782 1000 l 879 938 l 290 -68 l 192 -6 l 782 1000 m 883 257 l 883 339 l 1028 388 l 1028 265 l 1118 271 l 1118 167 l 1028 167 l 1028 147 q 1038 74 1028 99 l 1099 68 l 1094 -4 q 897 0 1008 0 l 789 -4 l 785 63 l 875 74 q 878 97 876 86 q 881 118 879 107 q 883 154 883 140 l 883 167 l 690 167 l 614 258 l 953 688 l 1054 604 q 943 493 957 514 l 761 257 l 883 257 z "},"¿":{"ha":586,"x_min":14,"x_max":558,"o":"m 333 139 q 306 139 333 139 q 239 88 278 139 q 200 -42 200 38 q 238 -172 200 -121 q 342 -222 275 -222 q 442 -200 408 -222 q 450 -122 450 -171 l 447 -72 l 542 -65 l 558 -271 q 335 -325 439 -325 q 99 -250 185 -325 q 14 -44 14 -175 q 94 161 14 88 q 306 239 174 235 l 301 350 l 325 372 q 464 367 375 367 l 468 363 l 468 182 l 425 135 q 333 139 389 139 m 313 675 q 327 690 313 675 q 389 706 340 706 q 465 676 438 706 q 492 595 492 646 q 465 515 492 544 q 389 485 438 485 q 313 515 340 485 q 286 594 286 544 q 313 675 286 644 z "},"À":{"ha":926,"x_min":1,"x_max":928,"o":"m 928 90 l 921 -7 q 804 0 853 0 l 521 -7 l 514 94 l 596 107 l 589 179 l 569 249 l 307 249 l 283 160 l 275 107 l 356 90 l 349 -7 q 201 0 267 0 l 8 -7 l 1 94 l 64 104 l 122 224 l 385 979 l 540 994 l 818 178 l 850 103 l 928 90 m 444 692 l 344 363 l 533 365 l 444 692 m 625 1117 l 574 1028 l 471 1081 l 246 1144 l 296 1261 l 625 1117 z "},"Á":{"ha":926,"x_min":1,"x_max":928,"o":"m 928 90 l 921 -7 q 804 0 853 0 l 521 -7 l 514 94 l 596 107 l 589 179 l 569 249 l 307 249 l 283 160 l 275 107 l 356 90 l 349 -7 q 201 0 267 0 l 8 -7 l 1 94 l 64 104 l 122 224 l 385 979 l 540 994 l 818 178 l 850 103 l 928 90 m 444 692 l 344 363 l 533 365 l 444 692 m 631 1247 l 681 1131 q 456 1067 482 1075 l 353 1014 l 301 1103 l 631 1247 z "},"Â":{"ha":926,"x_min":1,"x_max":928,"o":"m 928 90 l 921 -7 q 804 0 853 0 l 521 -7 l 514 94 l 596 107 l 589 179 l 569 249 l 307 249 l 283 160 l 275 107 l 356 90 l 349 -7 q 201 0 267 0 l 8 -7 l 1 94 l 64 104 l 122 224 l 385 979 l 540 994 l 818 178 l 850 103 l 928 90 m 444 692 l 344 363 l 533 365 l 444 692 m 464 1261 l 739 1076 l 674 996 l 581 1064 l 464 1121 l 347 1064 l 254 996 l 189 1076 l 464 1261 z "},"Ã":{"ha":926,"x_min":1,"x_max":928,"o":"m 928 90 l 921 -7 q 804 0 853 0 l 521 -7 l 514 94 l 596 107 l 589 179 l 569 249 l 307 249 l 283 160 l 275 107 l 356 90 l 349 -7 q 201 0 267 0 l 8 -7 l 1 94 l 64 104 l 122 224 l 385 979 l 540 994 l 818 178 l 850 103 l 928 90 m 444 692 l 344 363 l 533 365 l 444 692 m 712 1149 q 706 1137 712 1149 q 667 1086 700 1125 q 606 1047 635 1047 q 479 1074 578 1047 q 358 1100 381 1100 q 293 1056 322 1100 l 283 1042 l 218 1081 q 278 1180 240 1133 q 343 1226 315 1226 q 470 1200 371 1226 q 592 1174 569 1174 q 654 1214 629 1174 l 663 1226 l 731 1188 q 712 1149 724 1172 z "},"Ä":{"ha":926,"x_min":1,"x_max":928,"o":"m 928 90 l 921 -7 q 804 0 853 0 l 521 -7 l 514 94 l 596 107 l 589 179 l 569 249 l 307 249 l 283 160 l 275 107 l 356 90 l 349 -7 q 201 0 267 0 l 8 -7 l 1 94 l 64 104 l 122 224 l 385 979 l 540 994 l 818 178 l 850 103 l 928 90 m 444 692 l 344 363 l 533 365 l 444 692 m 231 1218 q 243 1231 231 1218 q 300 1244 256 1244 q 369 1219 344 1244 q 393 1148 393 1193 q 369 1077 393 1103 q 300 1051 344 1051 q 231 1078 256 1051 q 206 1148 206 1104 q 231 1218 206 1192 m 560 1218 q 573 1231 560 1218 q 629 1244 585 1244 q 698 1219 674 1244 q 722 1148 722 1193 q 698 1077 722 1103 q 629 1051 674 1051 q 560 1077 585 1051 q 536 1147 536 1103 q 560 1218 536 1192 z "},"Å":{"ha":926,"x_min":1,"x_max":928,"o":"m 928 90 l 921 -7 q 804 0 853 0 l 521 -7 l 514 94 l 596 107 l 589 179 l 569 249 l 307 249 l 283 160 l 275 107 l 356 90 l 349 -7 q 201 0 267 0 l 8 -7 l 1 94 l 64 104 l 122 224 l 385 979 l 540 994 l 818 178 l 850 103 l 928 90 m 444 692 l 344 363 l 533 365 l 444 692 m 361 1250 q 379 1268 361 1250 q 464 1286 397 1286 q 566 1251 531 1286 q 601 1153 601 1215 q 566 1056 601 1092 q 464 1021 531 1021 q 361 1056 397 1021 q 325 1153 325 1092 q 361 1250 325 1214 m 508 1153 q 508 1180 508 1153 q 465 1206 508 1206 q 421 1153 421 1206 q 465 1101 421 1101 q 508 1153 508 1101 z "},"Æ":{"ha":1267,"x_min":1,"x_max":1263,"o":"m 996 858 l 764 858 q 772 753 768 789 l 803 556 q 839 553 814 553 l 951 553 q 1013 565 981 553 l 1025 654 l 1111 647 q 1110 536 1110 564 l 1114 360 l 1025 351 l 1013 435 q 924 443 951 443 l 846 443 q 821 440 829 443 l 847 268 l 875 121 l 1015 121 q 1122 132 1067 121 q 1154 213 1147 186 q 1165 271 1161 239 l 1263 264 l 1242 19 l 1215 -6 q 1057 0 1085 0 l 681 0 l 568 -7 l 561 90 l 654 107 q 651 183 654 167 l 640 256 l 339 256 l 285 160 q 281 150 283 158 q 263 107 276 140 l 358 99 l 351 -7 q 147 0 263 0 l 8 -7 l 1 90 l 72 103 q 156 224 139 194 l 521 865 l 432 882 l 439 986 q 578 979 513 979 l 1038 979 l 1196 993 l 1222 968 l 1232 744 l 1132 738 q 1122 813 1124 804 q 1107 851 1119 821 q 996 858 1038 858 m 403 369 l 622 372 l 576 665 l 574 676 l 403 369 z "},"Ç":{"ha":885,"x_min":38,"x_max":836,"o":"m 551 -82 q 653 -115 614 -83 q 692 -206 692 -147 q 648 -296 692 -265 q 528 -326 604 -326 q 400 -301 453 -326 l 425 -233 q 501 -249 474 -249 q 567 -203 567 -249 q 508 -160 567 -160 l 479 -161 l 464 -142 l 475 -19 q 150 131 263 -6 q 38 495 38 268 q 163 861 38 722 q 524 1000 288 1000 q 824 953 632 1000 l 807 704 l 700 710 l 696 794 q 679 851 696 808 q 524 871 590 871 q 345 767 403 871 q 288 490 288 663 q 344 213 288 318 q 522 108 401 108 q 694 129 600 108 q 701 148 696 132 q 712 178 707 164 q 717 197 717 192 l 721 263 l 825 265 l 836 26 q 564 -19 663 -15 l 551 -82 z "},"È":{"ha":856,"x_min":63,"x_max":807,"o":"m 210 979 l 582 979 l 740 993 l 767 968 l 776 751 l 676 744 q 664 828 668 811 q 650 860 660 844 q 540 865 594 865 l 388 865 q 382 753 382 765 l 382 554 q 418 553 396 553 l 496 553 q 557 565 525 553 l 569 654 l 656 647 q 654 532 654 560 l 658 356 l 569 347 l 557 431 q 468 439 496 439 l 425 439 q 382 438 392 439 l 382 268 q 386 121 382 204 l 560 121 q 667 132 611 121 q 710 271 700 193 l 807 264 l 786 19 l 760 -6 q 601 0 629 0 l 210 0 l 69 -7 l 63 90 l 154 107 q 167 226 167 149 l 167 711 q 154 865 167 813 l 64 882 l 71 986 q 210 979 160 979 m 585 1117 l 533 1028 l 431 1081 l 206 1144 l 256 1261 l 585 1117 z "},"É":{"ha":856,"x_min":63,"x_max":807,"o":"m 210 979 l 582 979 l 740 993 l 767 968 l 776 751 l 676 744 q 664 828 668 811 q 650 860 660 844 q 540 865 594 865 l 388 865 q 382 753 382 765 l 382 554 q 418 553 396 553 l 496 553 q 557 565 525 553 l 569 654 l 656 647 q 654 532 654 560 l 658 356 l 569 347 l 557 431 q 468 439 496 439 l 425 439 q 382 438 392 439 l 382 268 q 386 121 382 204 l 560 121 q 667 132 611 121 q 710 271 700 193 l 807 264 l 786 19 l 760 -6 q 601 0 629 0 l 210 0 l 69 -7 l 63 90 l 154 107 q 167 226 167 149 l 167 711 q 154 865 167 813 l 64 882 l 71 986 q 210 979 160 979 m 590 1247 l 640 1131 q 415 1067 442 1075 l 313 1014 l 261 1103 l 590 1247 z "},"Ê":{"ha":856,"x_min":63,"x_max":807,"o":"m 210 979 l 582 979 l 740 993 l 767 968 l 776 751 l 676 744 q 664 828 668 811 q 650 860 660 844 q 540 865 594 865 l 388 865 q 382 753 382 765 l 382 554 q 418 553 396 553 l 496 553 q 557 565 525 553 l 569 654 l 656 647 q 654 532 654 560 l 658 356 l 569 347 l 557 431 q 468 439 496 439 l 425 439 q 382 438 392 439 l 382 268 q 386 121 382 204 l 560 121 q 667 132 611 121 q 710 271 700 193 l 807 264 l 786 19 l 760 -6 q 601 0 629 0 l 210 0 l 69 -7 l 63 90 l 154 107 q 167 226 167 149 l 167 711 q 154 865 167 813 l 64 882 l 71 986 q 210 979 160 979 m 424 1317 l 699 1132 l 633 1051 l 540 1119 l 424 1176 l 307 1119 l 214 1051 l 149 1132 l 424 1317 z "},"Ë":{"ha":856,"x_min":63,"x_max":807,"o":"m 210 979 l 582 979 l 740 993 l 767 968 l 776 751 l 676 744 q 664 828 668 811 q 650 860 660 844 q 540 865 594 865 l 388 865 q 382 753 382 765 l 382 554 q 418 553 396 553 l 496 553 q 557 565 525 553 l 569 654 l 656 647 q 654 532 654 560 l 658 356 l 569 347 l 557 431 q 468 439 496 439 l 425 439 q 382 438 392 439 l 382 268 q 386 121 382 204 l 560 121 q 667 132 611 121 q 710 271 700 193 l 807 264 l 786 19 l 760 -6 q 601 0 629 0 l 210 0 l 69 -7 l 63 90 l 154 107 q 167 226 167 149 l 167 711 q 154 865 167 813 l 64 882 l 71 986 q 210 979 160 979 m 190 1218 q 203 1231 190 1218 q 260 1244 215 1244 q 328 1219 304 1244 q 353 1148 353 1193 q 328 1077 353 1103 q 260 1051 304 1051 q 190 1078 215 1051 q 165 1148 165 1104 q 190 1218 165 1192 m 520 1218 q 532 1231 520 1218 q 589 1244 544 1244 q 658 1219 633 1244 q 682 1148 682 1193 q 658 1077 682 1103 q 589 1051 633 1051 q 520 1077 544 1051 q 496 1147 496 1103 q 520 1218 496 1192 z "},"Ì":{"ha":563,"x_min":64,"x_max":493,"o":"m 161 107 l 174 226 l 174 711 q 161 865 174 765 l 71 882 l 78 986 q 217 979 151 979 l 486 986 l 493 874 l 401 865 q 389 753 389 803 l 389 268 q 401 107 389 194 l 492 99 l 485 -7 q 215 0 372 0 l 76 -7 l 69 90 l 161 107 m 443 1117 l 392 1028 l 289 1081 l 64 1144 l 114 1261 l 443 1117 z "},"Í":{"ha":563,"x_min":69,"x_max":499,"o":"m 161 107 l 174 226 l 174 711 q 161 865 174 765 l 71 882 l 78 986 q 217 979 151 979 l 486 986 l 493 874 l 401 865 q 389 753 389 803 l 389 268 q 401 107 389 194 l 492 99 l 485 -7 q 215 0 372 0 l 76 -7 l 69 90 l 161 107 m 449 1247 l 499 1131 q 274 1067 300 1075 l 171 1014 l 119 1103 l 449 1247 z "},"Î":{"ha":563,"x_min":7,"x_max":557,"o":"m 161 107 l 174 226 l 174 711 q 161 865 174 765 l 71 882 l 78 986 q 217 979 151 979 l 486 986 l 493 874 l 401 865 q 389 753 389 803 l 389 268 q 401 107 389 194 l 492 99 l 485 -7 q 215 0 372 0 l 76 -7 l 69 90 l 161 107 m 282 1303 l 557 1118 l 492 1038 l 399 1106 l 282 1163 l 165 1106 l 72 1038 l 7 1118 l 282 1303 z "},"Ï":{"ha":563,"x_min":69,"x_max":493,"o":"m 161 107 l 174 226 l 174 711 q 161 865 174 765 l 71 882 l 78 986 q 217 979 151 979 l 486 986 l 493 874 l 401 865 q 389 753 389 803 l 389 268 q 401 107 389 194 l 492 99 l 485 -7 q 215 0 372 0 l 76 -7 l 69 90 l 161 107 m 93 1218 q 105 1231 93 1218 q 160 1244 117 1244 q 226 1219 203 1244 q 250 1148 250 1193 q 226 1077 250 1103 q 160 1051 203 1051 q 93 1078 117 1051 q 69 1148 69 1104 q 93 1218 69 1192 m 335 1218 q 347 1231 335 1218 q 401 1244 358 1244 q 468 1219 444 1244 q 492 1148 492 1193 q 468 1077 492 1103 q 401 1051 444 1051 q 335 1077 358 1051 q 313 1147 313 1103 q 335 1218 313 1192 z "},"Ð":{"ha":950,"x_min":50,"x_max":976,"o":"m 488 -8 l 196 0 l 57 -7 l 50 90 l 142 107 q 154 226 154 199 l 154 447 l 58 447 l 58 549 l 154 549 l 154 711 q 144 842 154 763 l 142 865 l 51 882 l 58 986 q 197 979 132 979 l 488 993 q 850 856 724 993 q 976 491 976 719 q 850 127 976 263 q 488 -8 724 -8 m 369 447 l 369 268 q 375 111 369 178 q 465 107 421 107 q 678 211 613 107 q 744 492 744 315 q 683 764 744 660 q 468 878 617 878 q 375 867 439 878 q 369 753 369 772 l 369 549 l 506 549 l 499 447 l 369 447 z "},"Ñ":{"ha":1114,"x_min":63,"x_max":1086,"o":"m 982 753 l 982 0 l 794 0 l 343 625 l 343 268 q 356 107 343 232 l 446 99 l 439 -7 q 208 0 365 0 l 69 -7 l 63 90 l 154 107 q 167 226 167 175 l 167 711 q 154 865 167 797 l 64 882 l 71 986 q 210 979 144 979 l 351 979 l 378 951 q 500 746 479 776 l 806 319 l 806 711 q 793 865 806 765 l 703 882 l 710 986 l 849 979 l 1079 986 l 1086 874 l 994 865 q 982 753 982 790 m 819 1149 q 813 1137 819 1149 q 774 1086 807 1125 q 713 1047 742 1047 q 587 1074 685 1047 q 467 1100 489 1100 q 400 1056 429 1100 l 390 1042 l 325 1081 q 385 1180 347 1133 q 450 1226 422 1226 q 577 1200 478 1226 q 699 1174 676 1174 q 761 1214 736 1174 l 769 1226 l 838 1188 q 819 1149 831 1172 z "},"Ò":{"ha":1067,"x_min":38,"x_max":1029,"o":"m 533 1006 q 647 1006 533 1006 q 894 865 760 1006 q 1029 490 1029 725 q 894 114 1029 254 q 533 -26 760 -26 q 172 114 307 -26 q 38 490 38 254 q 172 865 38 725 q 533 1006 307 1006 m 533 871 q 471 871 533 871 q 348 777 408 871 q 288 490 288 683 q 348 202 288 296 q 533 108 408 108 q 719 202 658 108 q 779 490 779 296 q 719 777 779 683 q 533 871 658 871 m 693 1117 l 642 1028 l 539 1081 l 314 1144 l 364 1261 l 693 1117 z "},"Ó":{"ha":1067,"x_min":38,"x_max":1029,"o":"m 533 1006 q 647 1006 533 1006 q 894 865 760 1006 q 1029 490 1029 725 q 894 114 1029 254 q 533 -26 760 -26 q 172 114 307 -26 q 38 490 38 254 q 172 865 38 725 q 533 1006 307 1006 m 533 871 q 471 871 533 871 q 348 777 408 871 q 288 490 288 683 q 348 202 288 296 q 533 108 408 108 q 719 202 658 108 q 779 490 779 296 q 719 777 779 683 q 533 871 658 871 m 699 1261 l 749 1144 q 524 1081 550 1089 l 421 1028 l 369 1117 l 699 1261 z "},"Ô":{"ha":1067,"x_min":38,"x_max":1029,"o":"m 533 1006 q 647 1006 533 1006 q 894 865 760 1006 q 1029 490 1029 725 q 894 114 1029 254 q 533 -26 760 -26 q 172 114 307 -26 q 38 490 38 254 q 172 865 38 725 q 533 1006 307 1006 m 533 871 q 471 871 533 871 q 348 777 408 871 q 288 490 288 683 q 348 202 288 296 q 533 108 408 108 q 719 202 658 108 q 779 490 779 296 q 719 777 779 683 q 533 871 658 871 m 532 1303 l 807 1118 l 742 1038 l 649 1106 l 532 1163 l 415 1106 l 322 1038 l 257 1118 l 532 1303 z "},"Õ":{"ha":1067,"x_min":38,"x_max":1029,"o":"m 533 1006 q 647 1006 533 1006 q 894 865 760 1006 q 1029 490 1029 725 q 894 114 1029 254 q 533 -26 760 -26 q 172 114 307 -26 q 38 490 38 254 q 172 865 38 725 q 533 1006 307 1006 m 533 871 q 471 871 533 871 q 348 777 408 871 q 288 490 288 683 q 348 202 288 296 q 533 108 408 108 q 719 202 658 108 q 779 490 779 296 q 719 777 779 683 q 533 871 658 871 m 765 1149 q 759 1137 765 1149 q 720 1086 753 1125 q 659 1047 688 1047 q 532 1074 631 1047 q 411 1100 433 1100 q 346 1056 375 1100 l 336 1042 l 271 1081 q 331 1180 293 1133 q 396 1226 368 1226 q 523 1200 424 1226 q 644 1174 622 1174 q 707 1214 682 1174 l 715 1226 l 783 1188 q 765 1149 776 1172 z "},"Ö":{"ha":1067,"x_min":38,"x_max":1029,"o":"m 533 1006 q 647 1006 533 1006 q 894 865 760 1006 q 1029 490 1029 725 q 894 114 1029 254 q 533 -26 760 -26 q 172 114 307 -26 q 38 490 38 254 q 172 865 38 725 q 533 1006 307 1006 m 533 871 q 471 871 533 871 q 348 777 408 871 q 288 490 288 683 q 348 202 288 296 q 533 108 408 108 q 719 202 658 108 q 779 490 779 296 q 719 777 779 683 q 533 871 658 871 m 299 1218 q 311 1231 299 1218 q 368 1244 324 1244 q 437 1219 413 1244 q 461 1148 461 1193 q 437 1077 461 1103 q 368 1051 413 1051 q 299 1078 324 1051 q 274 1148 274 1104 q 299 1218 274 1192 m 628 1218 q 641 1231 628 1218 q 697 1244 653 1244 q 766 1219 742 1244 q 790 1148 790 1193 q 766 1077 790 1103 q 697 1051 742 1051 q 628 1077 653 1051 q 604 1147 604 1103 q 628 1218 604 1192 z "},"×":{"ha":772,"x_min":83,"x_max":689,"o":"m 385 433 l 586 639 l 686 540 l 483 338 l 689 136 l 590 36 l 386 239 l 181 33 l 85 128 l 289 336 l 83 542 l 178 638 l 385 433 z "},"Ø":{"ha":1067,"x_min":38,"x_max":1029,"o":"m 1029 489 q 894 114 1029 254 q 533 -26 760 -26 q 332 8 425 -26 l 228 -190 l 149 -150 l 253 49 q 94 227 150 114 q 38 489 38 340 q 172 865 38 725 q 533 1006 307 1006 q 736 969 644 1006 l 839 1164 l 921 1124 l 817 928 q 974 749 918 863 q 1029 489 1029 636 m 533 871 q 348 777 408 871 q 288 495 288 683 q 339 214 288 307 l 665 833 q 533 871 611 871 m 533 108 q 779 481 779 108 q 729 760 779 667 l 403 143 q 533 108 456 108 z "},"Ù":{"ha":1082,"x_min":36,"x_max":1047,"o":"m 943 753 l 943 372 q 839 85 943 190 q 540 -21 735 -21 q 242 85 346 -21 q 139 372 139 190 l 139 711 q 126 865 139 807 l 36 882 l 43 986 q 182 979 117 979 l 458 986 l 465 874 l 374 865 q 361 753 361 819 l 361 361 q 415 201 361 264 q 569 138 468 138 q 715 194 669 138 q 760 361 760 251 l 760 711 q 747 865 760 772 l 657 882 l 664 986 q 803 979 738 979 l 1040 986 l 1047 874 l 956 865 q 943 753 943 807 m 703 1117 l 651 1028 l 549 1081 l 324 1144 l 374 1261 l 703 1117 z "},"Ú":{"ha":1082,"x_min":36,"x_max":1047,"o":"m 943 753 l 943 372 q 839 85 943 190 q 540 -21 735 -21 q 242 85 346 -21 q 139 372 139 190 l 139 711 q 126 865 139 807 l 36 882 l 43 986 q 182 979 117 979 l 458 986 l 465 874 l 374 865 q 361 753 361 819 l 361 361 q 415 201 361 264 q 569 138 468 138 q 715 194 669 138 q 760 361 760 251 l 760 711 q 747 865 760 772 l 657 882 l 664 986 q 803 979 738 979 l 1040 986 l 1047 874 l 956 865 q 943 753 943 807 m 708 1247 l 758 1131 q 533 1067 560 1075 l 431 1014 l 379 1103 l 708 1247 z "},"Û":{"ha":1082,"x_min":36,"x_max":1047,"o":"m 943 753 l 943 372 q 839 85 943 190 q 540 -21 735 -21 q 242 85 346 -21 q 139 372 139 190 l 139 711 q 126 865 139 807 l 36 882 l 43 986 q 182 979 117 979 l 458 986 l 465 874 l 374 865 q 361 753 361 819 l 361 361 q 415 201 361 264 q 569 138 468 138 q 715 194 669 138 q 760 361 760 251 l 760 711 q 747 865 760 772 l 657 882 l 664 986 q 803 979 738 979 l 1040 986 l 1047 874 l 956 865 q 943 753 943 807 m 542 1303 l 817 1118 l 751 1038 l 658 1106 l 542 1163 l 425 1106 l 332 1038 l 267 1118 l 542 1303 z "},"Ü":{"ha":1082,"x_min":36,"x_max":1047,"o":"m 943 753 l 943 372 q 839 85 943 190 q 540 -21 735 -21 q 242 85 346 -21 q 139 372 139 190 l 139 711 q 126 865 139 807 l 36 882 l 43 986 q 182 979 117 979 l 458 986 l 465 874 l 374 865 q 361 753 361 819 l 361 361 q 415 201 361 264 q 569 138 468 138 q 715 194 669 138 q 760 361 760 251 l 760 711 q 747 865 760 772 l 657 882 l 664 986 q 803 979 738 979 l 1040 986 l 1047 874 l 956 865 q 943 753 943 807 m 308 1218 q 321 1231 308 1218 q 378 1244 333 1244 q 447 1219 422 1244 q 471 1148 471 1193 q 447 1077 471 1103 q 378 1051 422 1051 q 308 1078 333 1051 q 283 1148 283 1104 q 308 1218 283 1192 m 638 1218 q 650 1231 638 1218 q 707 1244 663 1244 q 776 1219 751 1244 q 800 1148 800 1193 q 776 1077 800 1103 q 707 1051 751 1051 q 638 1077 663 1051 q 614 1147 614 1103 q 638 1218 614 1192 z "},"Ý":{"ha":989,"x_min":-8,"x_max":986,"o":"m 376 107 l 389 226 l 389 346 l 142 801 q 88 865 125 832 l 75 876 l -8 889 l -1 986 q 126 979 75 979 l 415 986 l 422 885 l 349 872 q 372 800 358 826 l 518 513 l 671 819 l 676 872 l 615 889 l 622 986 q 775 979 710 979 l 979 986 l 986 885 l 903 875 q 817 756 840 800 l 604 347 l 604 268 q 617 107 604 194 l 707 99 l 700 -7 q 431 0 588 0 l 292 -7 l 285 90 l 376 107 m 661 1247 l 711 1131 q 486 1067 513 1075 l 383 1014 l 332 1103 l 661 1247 z "},"Þ":{"ha":833,"x_min":56,"x_max":828,"o":"m 147 107 l 160 226 l 160 711 q 147 865 160 765 l 57 882 l 64 986 q 203 979 138 979 l 472 986 l 479 874 l 388 865 q 376 786 381 831 q 500 792 471 792 q 738 713 649 792 q 828 498 828 635 q 728 282 828 361 q 481 203 628 203 l 378 203 l 388 107 l 478 99 l 471 -7 q 201 0 358 0 l 63 -7 l 56 90 l 147 107 m 375 317 l 399 317 q 549 363 494 317 q 604 500 604 410 q 560 634 604 590 q 419 678 515 678 q 375 676 394 678 l 375 317 z "},"ß":{"ha":861,"x_min":49,"x_max":847,"o":"m 56 669 l 139 696 l 139 806 q 461 1069 140 1069 q 760 851 760 1069 q 690 678 760 747 q 633 624 661 649 q 564 521 564 564 q 593 472 564 493 q 664 431 622 450 q 747 389 706 413 q 818 319 789 365 q 847 210 847 274 q 784 45 847 104 q 614 -14 721 -14 q 433 11 542 -14 l 400 18 l 417 247 l 514 240 l 514 178 l 522 125 q 608 94 575 94 q 658 111 640 94 q 676 160 676 128 q 648 220 676 193 q 579 267 619 247 q 499 310 539 286 q 431 378 460 335 q 403 479 403 422 q 424 578 403 536 q 474 648 444 619 q 532 703 503 676 q 603 846 603 767 q 563 926 603 900 q 453 953 524 953 q 358 906 383 953 q 333 758 333 860 l 333 268 q 339 114 333 226 l 346 0 l 238 0 l 56 -7 l 49 90 l 126 107 q 139 226 139 207 l 139 582 l 60 582 l 56 669 z "},"à":{"ha":726,"x_min":39,"x_max":710,"o":"m 243 -14 q 94 39 149 -14 q 39 183 39 92 q 222 375 39 346 l 419 407 l 419 447 q 396 544 419 515 q 315 572 372 572 q 203 546 258 572 l 193 490 l 194 431 l 90 426 l 69 661 q 324 699 219 699 q 538 633 461 699 q 614 449 614 567 l 614 268 q 622 132 614 197 l 626 107 l 710 99 l 701 -7 q 446 0 633 0 l 435 100 q 243 -14 372 -14 m 244 214 q 319 129 244 129 q 382 153 356 129 q 419 218 408 176 l 419 317 l 317 300 q 261 273 278 293 q 244 214 244 253 m 485 865 l 419 785 l 326 853 l 132 943 l 197 1049 l 485 865 z "},"á":{"ha":726,"x_min":39,"x_max":710,"o":"m 243 -14 q 94 39 149 -14 q 39 183 39 92 q 222 375 39 346 l 419 407 l 419 447 q 396 544 419 515 q 315 572 372 572 q 203 546 258 572 l 193 490 l 194 431 l 90 426 l 69 661 q 324 699 219 699 q 538 633 461 699 q 614 449 614 567 l 614 268 q 622 132 614 197 l 626 107 l 710 99 l 701 -7 q 446 0 633 0 l 435 100 q 243 -14 372 -14 m 244 214 q 319 129 244 129 q 382 153 356 129 q 419 218 408 176 l 419 317 l 317 300 q 261 273 278 293 q 244 214 244 253 m 475 1049 l 540 943 q 346 853 371 865 l 253 785 l 188 865 l 475 1049 z "},"â":{"ha":726,"x_min":39,"x_max":710,"o":"m 243 -14 q 94 39 149 -14 q 39 183 39 92 q 222 375 39 346 l 419 407 l 419 447 q 396 544 419 515 q 315 572 372 572 q 203 546 258 572 l 193 490 l 194 431 l 90 426 l 69 661 q 324 699 219 699 q 538 633 461 699 q 614 449 614 567 l 614 268 q 622 132 614 197 l 626 107 l 710 99 l 701 -7 q 446 0 633 0 l 435 100 q 243 -14 372 -14 m 336 1063 l 611 864 l 546 783 l 453 857 q 336 918 397 885 l 219 857 l 126 783 l 61 864 l 336 1063 m 244 214 q 319 129 244 129 q 382 153 356 129 q 419 218 408 176 l 419 317 l 317 300 q 261 273 278 293 q 244 214 244 253 z "},"ã":{"ha":726,"x_min":39,"x_max":710,"o":"m 243 -14 q 94 39 149 -14 q 39 183 39 92 q 222 375 39 346 l 419 407 l 419 447 q 396 544 419 515 q 315 572 372 572 q 203 546 258 572 l 193 490 l 194 431 l 90 426 l 69 661 q 324 699 219 699 q 538 633 461 699 q 614 449 614 567 l 614 268 q 622 132 614 197 l 626 107 l 710 99 l 701 -7 q 446 0 633 0 l 435 100 q 243 -14 372 -14 m 244 214 q 319 129 244 129 q 382 153 356 129 q 419 218 408 176 l 419 317 l 317 300 q 261 273 278 293 q 244 214 244 253 m 567 926 q 561 915 567 926 q 523 864 556 903 q 462 825 490 825 q 349 851 433 825 q 242 878 264 878 q 176 833 206 878 l 167 819 l 101 858 q 161 958 124 911 q 226 1004 199 1004 q 340 978 254 1004 q 447 951 425 951 q 510 992 485 951 l 518 1004 l 586 965 q 567 926 579 950 z "},"ä":{"ha":726,"x_min":39,"x_max":710,"o":"m 243 -14 q 94 39 149 -14 q 39 183 39 92 q 222 375 39 346 l 419 407 l 419 447 q 396 544 419 515 q 315 572 372 572 q 203 546 258 572 l 193 490 l 194 431 l 90 426 l 69 661 q 324 699 219 699 q 538 633 461 699 q 614 449 614 567 l 614 268 q 622 132 614 197 l 626 107 l 710 99 l 701 -7 q 446 0 633 0 l 435 100 q 243 -14 372 -14 m 244 214 q 319 129 244 129 q 382 153 356 129 q 419 218 408 176 l 419 317 l 317 300 q 261 273 278 293 q 244 214 244 253 m 103 981 q 115 994 103 981 q 172 1007 128 1007 q 241 981 217 1007 q 265 910 265 956 q 241 840 265 865 q 172 814 217 814 q 103 840 128 814 q 78 910 78 867 q 103 981 78 954 m 433 981 q 445 994 433 981 q 501 1007 457 1007 q 570 981 546 1007 q 594 910 594 956 q 570 840 594 865 q 501 814 546 814 q 433 840 457 814 q 408 910 408 865 q 433 981 408 954 z "},"å":{"ha":726,"x_min":39,"x_max":710,"o":"m 243 -14 q 94 39 149 -14 q 39 183 39 92 q 222 375 39 346 l 419 407 l 419 447 q 396 544 419 515 q 315 572 372 572 q 203 546 258 572 l 193 490 l 194 431 l 90 426 l 69 661 q 324 699 219 699 q 538 633 461 699 q 614 449 614 567 l 614 268 q 622 132 614 197 l 626 107 l 710 99 l 701 -7 q 446 0 633 0 l 435 100 q 243 -14 372 -14 m 244 214 q 319 129 244 129 q 382 153 356 129 q 419 218 408 176 l 419 317 l 317 300 q 261 273 278 293 q 244 214 244 253 m 233 1022 q 251 1039 233 1022 q 336 1057 269 1057 q 438 1022 403 1057 q 474 924 474 986 q 438 827 474 863 q 336 792 403 792 q 233 827 269 792 q 197 924 197 863 q 233 1022 197 986 m 381 924 q 381 950 381 924 q 337 976 381 976 q 293 924 293 976 q 337 872 293 872 q 381 924 381 872 z "},"æ":{"ha":1010,"x_min":26,"x_max":1008,"o":"m 57 661 q 323 699 204 699 q 517 640 442 699 q 725 699 596 699 q 931 617 854 699 q 1008 388 1008 535 l 979 333 l 604 311 q 651 158 611 204 q 779 113 690 113 q 866 124 824 113 q 928 147 908 136 l 947 158 l 996 78 q 724 -21 886 -21 q 479 107 561 -21 q 378 15 433 43 q 235 -14 322 -14 q 87 40 147 -14 q 26 181 26 94 q 73 317 26 268 q 210 375 119 367 l 407 394 l 407 449 q 303 586 407 586 q 186 556 251 586 l 182 501 l 182 433 l 78 429 l 57 661 m 232 211 q 307 129 232 129 q 407 253 407 129 l 407 297 l 304 288 q 248 265 264 282 q 232 211 232 249 m 703 589 q 606 408 613 589 l 789 421 l 790 432 q 703 589 790 589 z "},"ç":{"ha":647,"x_min":35,"x_max":633,"o":"m 375 699 q 586 674 485 699 l 621 665 l 600 419 l 482 424 l 483 499 q 478 553 481 535 q 388 589 438 589 q 288 528 319 589 q 256 340 256 468 q 422 114 256 114 q 506 125 465 114 q 565 147 546 136 l 585 158 l 633 78 q 407 -19 535 -11 l 394 -82 q 496 -115 457 -83 q 535 -206 535 -147 q 491 -296 535 -265 q 372 -326 447 -326 q 243 -301 296 -326 l 268 -233 q 344 -249 317 -249 q 410 -203 410 -249 q 351 -160 410 -160 l 322 -161 l 307 -142 l 319 -17 q 107 90 179 -1 q 35 344 35 181 q 126 603 35 507 q 375 699 217 699 z "},"è":{"ha":696,"x_min":35,"x_max":661,"o":"m 35 338 q 35 423 35 338 q 126 603 35 508 q 367 699 217 699 q 589 614 517 699 q 661 396 661 529 q 660 361 661 379 l 631 307 l 257 307 q 306 157 264 201 q 431 113 347 113 q 517 124 475 113 q 579 147 560 136 l 599 158 l 647 78 q 376 -21 538 -21 q 125 73 215 -21 q 35 338 35 167 m 511 865 l 446 785 l 353 853 l 158 943 l 224 1049 l 511 865 m 354 589 q 282 542 304 589 q 256 408 260 496 l 440 419 q 442 431 442 428 q 354 589 442 589 z "},"é":{"ha":696,"x_min":35,"x_max":661,"o":"m 35 338 q 35 423 35 338 q 126 603 35 508 q 367 699 217 699 q 589 614 517 699 q 661 396 661 529 q 660 361 661 379 l 631 307 l 257 307 q 306 157 264 201 q 431 113 347 113 q 517 124 475 113 q 579 147 560 136 l 599 158 l 647 78 q 376 -21 538 -21 q 125 73 215 -21 q 35 338 35 167 m 501 1049 l 567 943 q 372 853 397 865 l 279 785 l 214 865 l 501 1049 m 354 589 q 282 542 304 589 q 256 408 260 496 l 440 419 q 442 431 442 428 q 354 589 442 589 z "},"ê":{"ha":696,"x_min":35,"x_max":661,"o":"m 35 338 q 35 423 35 338 q 126 603 35 508 q 367 699 217 699 q 589 614 517 699 q 661 396 661 529 q 660 361 661 379 l 631 307 l 257 307 q 306 157 264 201 q 431 113 347 113 q 517 124 475 113 q 579 147 560 136 l 599 158 l 647 78 q 376 -21 538 -21 q 125 73 215 -21 q 35 338 35 167 m 363 1063 l 638 864 l 572 783 l 479 857 q 363 918 424 885 l 246 857 l 153 783 l 88 864 l 363 1063 m 354 589 q 282 542 304 589 q 256 408 260 496 l 440 419 q 442 431 442 428 q 354 589 442 589 z "},"ë":{"ha":696,"x_min":35,"x_max":661,"o":"m 35 338 q 35 423 35 338 q 126 603 35 508 q 367 699 217 699 q 589 614 517 699 q 661 396 661 529 q 660 361 661 379 l 631 307 l 257 307 q 306 157 264 201 q 431 113 347 113 q 517 124 475 113 q 579 147 560 136 l 599 158 l 647 78 q 376 -21 538 -21 q 125 73 215 -21 q 35 338 35 167 m 129 981 q 142 994 129 981 q 199 1007 154 1007 q 267 981 243 1007 q 292 910 292 956 q 267 840 292 865 q 199 814 243 814 q 129 840 154 814 q 104 910 104 867 q 129 981 104 954 m 459 981 q 471 994 459 981 q 528 1007 483 1007 q 597 981 572 1007 q 621 910 621 956 q 597 840 621 865 q 528 814 572 814 q 459 840 483 814 q 435 910 435 865 q 459 981 435 954 m 354 589 q 282 542 304 589 q 256 408 260 496 l 440 419 q 442 431 442 428 q 354 589 442 589 z "},"ì":{"ha":467,"x_min":28,"x_max":443,"o":"m 146 226 l 146 451 l 132 572 l 28 596 l 40 699 q 203 686 144 686 l 325 689 l 354 663 q 340 410 340 479 l 340 268 q 350 132 340 219 l 353 107 l 443 99 l 436 -7 q 188 0 344 0 l 49 -7 l 42 90 l 133 107 q 146 226 146 199 m 382 865 l 317 785 l 224 853 l 29 943 l 94 1049 l 382 865 z "},"í":{"ha":467,"x_min":28,"x_max":443,"o":"m 146 226 l 146 451 l 132 572 l 28 596 l 40 699 q 203 686 144 686 l 325 689 l 354 663 q 340 410 340 479 l 340 268 q 350 132 340 219 l 353 107 l 443 99 l 436 -7 q 188 0 344 0 l 49 -7 l 42 90 l 133 107 q 146 226 146 199 m 372 1049 l 438 943 q 243 853 268 865 l 150 785 l 85 865 l 372 1049 z "},"î":{"ha":467,"x_min":-42,"x_max":508,"o":"m 160 226 l 160 451 l 146 572 l 42 596 l 54 699 q 217 686 158 686 l 339 689 l 368 663 q 354 410 354 479 l 354 268 q 364 132 354 219 l 367 107 l 457 99 l 450 -7 q 201 0 358 0 l 63 -7 l 56 90 l 147 107 q 160 226 160 199 m 233 1063 l 508 864 l 443 783 l 350 857 q 233 918 294 885 l 117 857 l 24 783 l -42 864 l 233 1063 z "},"ï":{"ha":467,"x_min":3,"x_max":443,"o":"m 146 226 l 146 451 l 132 572 l 28 596 l 40 699 q 203 686 144 686 l 325 689 l 354 663 q 340 410 340 479 l 340 268 q 350 132 340 219 l 353 107 l 443 99 l 436 -7 q 188 0 344 0 l 49 -7 l 42 90 l 133 107 q 146 226 146 199 m 26 981 q 38 994 26 981 q 93 1007 50 1007 q 160 981 136 1007 q 183 910 183 956 q 160 840 183 865 q 93 814 136 814 q 26 840 50 814 q 3 910 3 867 q 26 981 3 954 m 269 981 q 280 994 269 981 q 335 1007 292 1007 q 401 981 378 1007 q 425 910 425 956 q 401 840 425 865 q 335 814 378 814 q 269 840 292 814 q 246 910 246 865 q 269 981 246 954 z "},"ð":{"ha":717,"x_min":29,"x_max":724,"o":"m 724 350 q 631 79 724 179 q 373 -21 539 -21 q 118 74 207 -21 q 29 328 29 169 q 112 579 29 488 q 331 671 194 671 q 444 639 403 671 l 428 542 q 372 550 394 550 q 251 328 251 550 q 372 107 251 107 q 503 387 503 107 q 403 824 503 667 l 258 750 l 214 826 l 346 896 q 225 988 297 947 l 260 1069 q 464 956 372 1033 l 613 1033 l 657 954 l 532 890 q 724 350 724 676 z "},"ñ":{"ha":883,"x_min":24,"x_max":874,"o":"m 539 699 q 712 635 653 699 q 771 451 771 572 l 771 268 q 781 132 771 219 l 783 107 l 874 99 l 867 -7 q 618 0 775 0 l 499 -7 l 492 90 l 569 107 q 572 156 571 126 q 575 203 574 185 q 576 226 576 221 l 576 432 q 551 524 576 489 q 472 560 525 560 q 377 508 418 560 q 336 368 336 457 l 336 268 q 344 132 336 197 l 349 107 l 439 99 l 432 -7 q 183 0 340 0 l 44 -7 l 38 90 l 129 107 q 142 226 142 199 l 142 451 l 128 572 l 24 596 l 36 699 q 199 686 140 686 l 265 689 l 294 663 l 308 563 q 539 699 400 699 m 688 926 q 682 915 688 926 q 644 864 676 903 q 583 825 611 825 q 471 851 556 825 q 364 878 386 878 q 297 833 326 878 l 288 819 l 222 858 q 282 958 244 911 q 347 1004 319 1004 q 460 978 375 1004 q 568 951 546 951 q 631 992 606 951 l 639 1004 l 707 965 q 688 926 700 950 z "},"ò":{"ha":756,"x_min":35,"x_max":721,"o":"m 632 606 q 676 559 632 606 q 721 339 721 513 q 632 72 721 165 q 378 -21 543 -21 q 124 72 213 -21 q 35 339 35 165 q 124 606 35 513 q 378 699 213 699 q 632 606 543 699 m 472 154 q 486 183 472 154 q 500 339 500 211 q 472 524 500 467 q 378 581 443 581 q 284 524 313 581 q 256 339 256 467 q 284 154 256 211 q 378 97 313 97 q 472 154 443 97 m 526 865 l 461 785 l 368 853 l 174 943 l 239 1049 l 526 865 z "},"ó":{"ha":756,"x_min":35,"x_max":721,"o":"m 632 606 q 676 559 632 606 q 721 339 721 513 q 632 72 721 165 q 378 -21 543 -21 q 124 72 213 -21 q 35 339 35 165 q 124 606 35 513 q 378 699 213 699 q 632 606 543 699 m 472 154 q 486 183 472 154 q 500 339 500 211 q 472 524 500 467 q 378 581 443 581 q 284 524 313 581 q 256 339 256 467 q 284 154 256 211 q 378 97 313 97 q 472 154 443 97 m 517 1049 l 582 943 q 388 853 413 865 l 294 785 l 229 865 l 517 1049 z "},"ô":{"ha":756,"x_min":35,"x_max":721,"o":"m 632 606 q 676 559 632 606 q 721 339 721 513 q 632 72 721 165 q 378 -21 543 -21 q 124 72 213 -21 q 35 339 35 165 q 124 606 35 513 q 378 699 213 699 q 632 606 543 699 m 472 154 q 486 183 472 154 q 500 339 500 211 q 472 524 500 467 q 378 581 443 581 q 284 524 313 581 q 256 339 256 467 q 284 154 256 211 q 378 97 313 97 q 472 154 443 97 m 378 1063 l 653 864 l 588 783 l 494 857 q 378 918 439 885 l 261 857 l 168 783 l 103 864 l 378 1063 z "},"õ":{"ha":756,"x_min":35,"x_max":721,"o":"m 632 606 q 676 559 632 606 q 721 339 721 513 q 632 72 721 165 q 378 -21 543 -21 q 124 72 213 -21 q 35 339 35 165 q 124 606 35 513 q 378 699 213 699 q 632 606 543 699 m 472 154 q 486 183 472 154 q 500 339 500 211 q 472 524 500 467 q 378 581 443 581 q 284 524 313 581 q 256 339 256 467 q 284 154 256 211 q 378 97 313 97 q 472 154 443 97 m 609 926 q 603 915 609 926 q 565 864 597 903 q 503 825 532 825 q 390 851 475 825 q 283 878 306 878 q 218 833 247 878 l 208 819 l 143 858 q 203 958 165 911 q 268 1004 240 1004 q 381 978 296 1004 q 489 951 467 951 q 551 992 526 951 l 560 1004 l 628 965 q 609 926 621 950 z "},"ö":{"ha":756,"x_min":35,"x_max":721,"o":"m 632 606 q 676 559 632 606 q 721 339 721 513 q 632 72 721 165 q 378 -21 543 -21 q 124 72 213 -21 q 35 339 35 165 q 124 606 35 513 q 378 699 213 699 q 632 606 543 699 m 472 154 q 486 183 472 154 q 500 339 500 211 q 472 524 500 467 q 378 581 443 581 q 284 524 313 581 q 256 339 256 467 q 284 154 256 211 q 378 97 313 97 q 472 154 443 97 m 144 981 q 157 994 144 981 q 214 1007 169 1007 q 283 981 258 1007 q 307 910 307 956 q 283 840 307 865 q 214 814 258 814 q 144 840 169 814 q 119 910 119 867 q 144 981 119 954 m 474 981 q 486 994 474 981 q 543 1007 499 1007 q 612 981 588 1007 q 636 910 636 956 q 612 840 636 865 q 543 814 588 814 q 474 840 499 814 q 450 910 450 865 q 474 981 450 954 z "},"÷":{"ha":821,"x_min":94,"x_max":726,"o":"m 94 428 l 726 428 l 726 289 l 94 282 l 94 428 m 334 686 q 348 701 334 686 q 410 717 361 717 q 485 687 458 717 q 513 606 513 657 q 485 526 513 556 q 410 496 458 496 q 334 526 361 496 q 307 606 307 556 q 334 686 307 656 m 334 182 q 348 197 334 182 q 410 213 361 213 q 485 183 458 213 q 513 102 513 153 q 485 22 513 51 q 410 -8 458 -8 q 334 22 361 -8 q 307 101 307 51 q 334 182 307 151 z "},"ø":{"ha":739,"x_min":26,"x_max":713,"o":"m 713 339 q 624 72 713 165 q 369 -21 535 -21 q 242 -3 303 -21 l 171 -137 l 92 -97 l 161 33 q 26 339 26 122 q 115 606 26 513 q 369 699 204 699 q 503 679 440 699 l 583 831 l 665 790 l 585 639 q 713 339 713 547 m 369 581 q 276 524 304 581 q 247 364 247 467 q 257 214 247 261 l 438 557 q 369 581 410 581 m 492 339 q 485 450 492 399 l 306 117 q 369 97 329 97 q 463 154 435 97 q 492 339 492 211 z "},"ù":{"ha":864,"x_min":24,"x_max":836,"o":"m 740 410 l 740 268 q 750 132 740 219 l 753 107 l 836 99 l 828 -7 q 572 0 760 0 l 560 108 q 358 -6 478 -6 q 176 58 238 -6 q 114 242 114 121 l 114 451 l 100 576 l 24 596 l 36 699 q 192 686 133 686 l 293 689 l 322 663 q 308 410 308 479 l 308 261 q 333 168 308 203 q 412 133 358 133 q 506 185 465 133 q 546 325 546 236 l 546 451 l 532 572 l 428 596 l 440 699 q 603 686 544 686 l 725 689 l 754 663 q 740 410 740 479 m 567 865 l 501 785 l 408 853 l 214 943 l 279 1049 l 567 865 z "},"ú":{"ha":864,"x_min":24,"x_max":836,"o":"m 740 410 l 740 268 q 750 132 740 219 l 753 107 l 836 99 l 828 -7 q 572 0 760 0 l 560 108 q 358 -6 478 -6 q 176 58 238 -6 q 114 242 114 121 l 114 451 l 100 576 l 24 596 l 36 699 q 192 686 133 686 l 293 689 l 322 663 q 308 410 308 479 l 308 261 q 333 168 308 203 q 412 133 358 133 q 506 185 465 133 q 546 325 546 236 l 546 451 l 532 572 l 428 596 l 440 699 q 603 686 544 686 l 725 689 l 754 663 q 740 410 740 479 m 557 1049 l 622 943 q 428 853 453 865 l 335 785 l 269 865 l 557 1049 z "},"û":{"ha":864,"x_min":24,"x_max":836,"o":"m 740 410 l 740 268 q 750 132 740 219 l 753 107 l 836 99 l 828 -7 q 572 0 760 0 l 560 108 q 358 -6 478 -6 q 176 58 238 -6 q 114 242 114 121 l 114 451 l 100 576 l 24 596 l 36 699 q 192 686 133 686 l 293 689 l 322 663 q 308 410 308 479 l 308 261 q 333 168 308 203 q 412 133 358 133 q 506 185 465 133 q 546 325 546 236 l 546 451 l 532 572 l 428 596 l 440 699 q 603 686 544 686 l 725 689 l 754 663 q 740 410 740 479 m 418 1063 l 693 864 l 628 783 l 535 857 q 418 918 479 885 l 301 857 l 208 783 l 143 864 l 418 1063 z "},"ü":{"ha":864,"x_min":24,"x_max":836,"o":"m 740 410 l 740 268 q 750 132 740 219 l 753 107 l 836 99 l 828 -7 q 572 0 760 0 l 560 108 q 358 -6 478 -6 q 176 58 238 -6 q 114 242 114 121 l 114 451 l 100 576 l 24 596 l 36 699 q 192 686 133 686 l 293 689 l 322 663 q 308 410 308 479 l 308 261 q 333 168 308 203 q 412 133 358 133 q 506 185 465 133 q 546 325 546 236 l 546 451 l 532 572 l 428 596 l 440 699 q 603 686 544 686 l 725 689 l 754 663 q 740 410 740 479 m 185 981 q 197 994 185 981 q 254 1007 210 1007 q 323 981 299 1007 q 347 910 347 956 q 323 840 347 865 q 254 814 299 814 q 185 840 210 814 q 160 910 160 867 q 185 981 160 954 m 515 981 q 527 994 515 981 q 583 1007 539 1007 q 652 981 628 1007 q 676 910 676 956 q 652 840 676 865 q 583 814 628 814 q 515 840 539 814 q 490 910 490 865 q 515 981 490 954 z "},"ý":{"ha":793,"x_min":6,"x_max":789,"o":"m 418 219 l 503 497 q 519 588 517 540 l 458 594 l 467 693 q 632 686 542 686 l 783 693 l 789 594 l 721 588 q 663 456 690 535 l 360 -326 l 85 -308 l 100 -199 l 176 -201 q 238 -193 211 -201 q 281 -115 264 -162 l 324 0 l 151 451 q 93 588 111 554 l 6 603 l 14 699 q 207 686 117 686 l 364 693 l 369 594 l 311 588 q 331 494 317 535 l 418 219 m 536 1049 l 601 943 q 407 853 432 865 l 314 785 l 249 865 l 536 1049 z "},"þ":{"ha":768,"x_min":0,"x_max":774,"o":"m 313 601 q 515 699 393 699 q 705 608 636 699 q 774 348 774 518 q 683 82 774 178 q 425 -14 592 -14 q 313 -7 378 -14 l 313 -50 q 322 -192 313 -112 l 326 -218 l 436 -226 l 429 -325 q 181 -318 338 -318 l 42 -325 l 35 -235 l 104 -218 q 118 -92 118 -119 l 118 815 l 104 936 l 0 960 l 13 1063 q 175 1050 107 1050 l 297 1053 l 326 1026 l 313 839 l 313 601 m 435 542 q 313 361 324 542 l 313 138 q 408 118 371 118 q 519 169 485 118 q 553 335 553 221 q 435 542 553 542 z "},"ÿ":{"ha":793,"x_min":6,"x_max":789,"o":"m 418 219 l 503 497 q 519 588 517 540 l 458 594 l 467 693 q 632 686 542 686 l 783 693 l 789 594 l 721 588 q 663 456 690 535 l 360 -326 l 85 -308 l 100 -199 l 176 -201 q 238 -193 211 -201 q 281 -115 264 -162 l 324 0 l 151 451 q 93 588 111 554 l 6 603 l 14 699 q 207 686 117 686 l 364 693 l 369 594 l 311 588 q 331 494 317 535 l 418 219 m 164 981 q 176 994 164 981 q 233 1007 189 1007 q 302 981 278 1007 q 326 910 326 956 q 302 840 326 865 q 233 814 278 814 q 164 840 189 814 q 139 910 139 867 q 164 981 139 954 m 494 981 q 506 994 494 981 q 563 1007 518 1007 q 631 981 607 1007 q 656 910 656 956 q 631 840 656 865 q 563 814 607 814 q 494 840 518 814 q 469 910 469 865 q 494 981 469 954 z "},"Ā":{"ha":926,"x_min":1,"x_max":928,"o":"m 928 90 l 921 -7 q 804 0 853 0 l 521 -7 l 514 94 l 596 107 l 589 179 l 569 249 l 307 249 l 283 160 l 275 107 l 356 90 l 349 -7 q 201 0 267 0 l 8 -7 l 1 94 l 64 104 l 122 224 l 385 979 l 540 994 l 818 178 l 850 103 l 928 90 m 444 692 l 344 363 l 533 365 l 444 692 m 240 1071 l 240 1172 l 688 1172 l 678 1071 l 240 1071 z "},"ā":{"ha":726,"x_min":39,"x_max":710,"o":"m 243 -14 q 94 39 149 -14 q 39 183 39 92 q 222 375 39 346 l 419 407 l 419 447 q 396 544 419 515 q 315 572 372 572 q 203 546 258 572 l 193 490 l 194 431 l 90 426 l 69 661 q 324 699 219 699 q 538 633 461 699 q 614 449 614 567 l 614 268 q 622 132 614 197 l 626 107 l 710 99 l 701 -7 q 446 0 633 0 l 435 100 q 243 -14 372 -14 m 244 214 q 319 129 244 129 q 382 153 356 129 q 419 218 408 176 l 419 317 l 317 300 q 261 273 278 293 q 244 214 244 253 m 113 828 l 113 929 l 560 929 l 550 828 l 113 828 z "},"Ă":{"ha":926,"x_min":1,"x_max":928,"o":"m 928 90 l 921 -7 q 804 0 853 0 l 521 -7 l 514 94 l 596 107 l 589 179 l 569 249 l 307 249 l 283 160 l 275 107 l 356 90 l 349 -7 q 201 0 267 0 l 8 -7 l 1 94 l 64 104 l 122 224 l 385 979 l 540 994 l 818 178 l 850 103 l 928 90 m 444 692 l 344 363 l 533 365 l 444 692 m 586 1247 l 678 1247 q 620 1088 678 1144 q 464 1032 563 1032 q 308 1088 365 1032 q 250 1247 250 1144 l 342 1247 q 376 1167 342 1196 q 464 1138 410 1138 q 552 1167 518 1138 q 586 1247 586 1196 z "},"ă":{"ha":726,"x_min":39,"x_max":710,"o":"m 243 -14 q 94 39 149 -14 q 39 183 39 92 q 222 375 39 346 l 419 407 l 419 447 q 396 544 419 515 q 315 572 372 572 q 203 546 258 572 l 193 490 l 194 431 l 90 426 l 69 661 q 324 699 219 699 q 538 633 461 699 q 614 449 614 567 l 614 268 q 622 132 614 197 l 626 107 l 710 99 l 701 -7 q 446 0 633 0 l 435 100 q 243 -14 372 -14 m 244 214 q 319 129 244 129 q 382 153 356 129 q 419 218 408 176 l 419 317 l 317 300 q 261 273 278 293 q 244 214 244 253 m 458 1010 l 550 1010 q 492 851 550 907 q 336 794 435 794 q 180 851 238 794 q 122 1010 122 907 l 214 1010 q 248 929 214 958 q 336 900 282 900 q 424 929 390 900 q 458 1010 458 958 z "},"Ą":{"ha":926,"x_min":1,"x_max":928,"o":"m 804 0 l 685 0 q 608 -43 636 -8 q 581 -112 581 -78 q 643 -185 581 -185 q 690 -175 665 -185 l 715 -242 q 583 -274 651 -274 q 473 -242 514 -274 q 432 -150 432 -211 q 489 -36 432 -85 q 536 4 513 -17 q 593 126 593 54 q 589 179 593 154 l 569 249 l 307 249 l 283 160 l 275 107 l 356 90 l 349 -7 q 201 0 267 0 l 8 -7 l 1 94 l 64 104 l 122 224 l 385 979 l 540 994 l 818 178 l 850 103 l 928 90 l 921 -7 q 804 0 853 0 m 444 692 l 344 363 l 533 365 l 444 692 z "},"ą":{"ha":726,"x_min":39,"x_max":710,"o":"m 243 -14 q 94 39 149 -14 q 39 183 39 92 q 222 375 39 346 l 419 407 l 419 447 q 396 544 419 515 q 315 572 372 572 q 203 546 258 572 l 193 490 l 194 431 l 90 426 l 69 661 q 324 699 219 699 q 538 633 461 699 q 614 449 614 567 l 614 268 q 622 132 614 197 l 626 107 l 710 99 l 701 -7 q 567 0 661 -3 q 490 -118 490 -54 q 506 -166 490 -147 q 549 -185 522 -185 q 600 -175 575 -185 l 625 -242 q 492 -274 561 -274 q 383 -242 424 -274 q 342 -156 342 -211 q 369 -67 342 -101 q 446 0 397 -33 l 435 100 q 243 -14 372 -14 m 244 214 q 319 129 244 129 q 382 153 356 129 q 419 218 408 176 l 419 317 l 317 300 q 261 273 278 293 q 244 214 244 253 z "},"Ć":{"ha":885,"x_min":38,"x_max":836,"o":"m 524 -21 q 163 117 288 -21 q 38 489 38 256 q 163 861 38 722 q 524 1000 288 1000 q 824 953 632 1000 l 807 704 l 700 710 l 696 794 q 679 851 696 808 q 524 871 590 871 q 345 767 403 871 q 288 490 288 663 q 344 213 288 318 q 522 108 401 108 q 694 129 600 108 q 701 148 696 132 q 712 178 707 164 q 717 197 717 192 l 721 263 l 825 265 l 836 26 q 524 -21 644 -21 m 664 1247 l 714 1131 q 489 1067 515 1075 l 386 1014 l 335 1103 l 664 1247 z "},"ć":{"ha":647,"x_min":35,"x_max":633,"o":"m 375 699 q 586 674 485 699 l 621 665 l 600 419 l 482 424 l 483 499 q 478 553 481 535 q 388 589 438 589 q 288 528 319 589 q 256 340 256 468 q 422 114 256 114 q 506 125 465 114 q 565 147 546 136 l 585 158 l 633 78 q 382 -21 522 -21 q 124 72 213 -21 q 35 335 35 164 q 126 603 35 507 q 375 699 217 699 m 518 1049 l 583 943 q 389 853 414 865 l 296 785 l 231 865 l 518 1049 z "},"Ĉ":{"ha":885,"x_min":38,"x_max":836,"o":"m 524 -21 q 163 117 288 -21 q 38 489 38 256 q 163 861 38 722 q 524 1000 288 1000 q 824 953 632 1000 l 807 704 l 700 710 l 696 794 q 679 851 696 808 q 524 871 590 871 q 345 767 403 871 q 288 490 288 663 q 344 213 288 318 q 522 108 401 108 q 694 129 600 108 q 701 148 696 132 q 712 178 707 164 q 717 197 717 192 l 721 263 l 825 265 l 836 26 q 524 -21 644 -21 m 525 1317 l 800 1132 l 735 1051 l 642 1119 l 525 1176 l 408 1119 l 315 1051 l 250 1132 l 525 1317 z "},"ĉ":{"ha":647,"x_min":35,"x_max":654,"o":"m 375 699 q 586 674 485 699 l 621 665 l 600 419 l 482 424 l 483 499 q 478 553 481 535 q 388 589 438 589 q 288 528 319 589 q 256 340 256 468 q 422 114 256 114 q 506 125 465 114 q 565 147 546 136 l 585 158 l 633 78 q 382 -21 522 -21 q 124 72 213 -21 q 35 335 35 164 q 126 603 35 507 q 375 699 217 699 m 379 1063 l 654 864 l 589 783 l 496 857 q 379 918 440 885 l 263 857 l 169 783 l 104 864 l 379 1063 z "},"Ċ":{"ha":885,"x_min":38,"x_max":836,"o":"m 524 -21 q 163 117 288 -21 q 38 489 38 256 q 163 861 38 722 q 524 1000 288 1000 q 824 953 632 1000 l 807 704 l 700 710 l 696 794 q 679 851 696 808 q 524 871 590 871 q 345 767 403 871 q 288 490 288 663 q 344 213 288 318 q 522 108 401 108 q 694 129 600 108 q 701 148 696 132 q 712 178 707 164 q 717 197 717 192 l 721 263 l 825 265 l 836 26 q 524 -21 644 -21 m 444 1226 q 459 1242 444 1226 q 525 1257 474 1257 q 606 1227 576 1257 q 635 1147 635 1197 q 606 1066 635 1096 q 525 1036 578 1036 q 444 1066 472 1036 q 415 1146 415 1096 q 444 1226 415 1196 z "},"ċ":{"ha":647,"x_min":35,"x_max":633,"o":"m 375 699 q 586 674 485 699 l 621 665 l 600 419 l 482 424 l 483 499 q 478 553 481 535 q 388 589 438 589 q 288 528 319 589 q 256 340 256 468 q 422 114 256 114 q 506 125 465 114 q 565 147 546 136 l 585 158 l 633 78 q 382 -21 522 -21 q 124 72 213 -21 q 35 335 35 164 q 126 603 35 507 q 375 699 217 699 m 299 990 q 313 1006 299 990 q 379 1021 328 1021 q 460 991 431 1021 q 489 910 489 961 q 460 830 489 860 q 379 800 432 800 q 298 830 326 800 q 269 910 269 860 q 299 990 269 960 z "},"Č":{"ha":885,"x_min":38,"x_max":836,"o":"m 524 -21 q 163 117 288 -21 q 38 489 38 256 q 163 861 38 722 q 524 1000 288 1000 q 824 953 632 1000 l 807 704 l 700 710 l 696 794 q 679 851 696 808 q 524 871 590 871 q 345 767 403 871 q 288 490 288 663 q 344 213 288 318 q 522 108 401 108 q 694 129 600 108 q 701 148 696 132 q 712 178 707 164 q 717 197 717 192 l 721 263 l 825 265 l 836 26 q 524 -21 644 -21 m 735 1304 l 800 1224 l 525 1039 l 250 1224 l 315 1304 l 408 1236 l 525 1179 l 642 1236 l 735 1304 z "},"č":{"ha":647,"x_min":35,"x_max":654,"o":"m 375 699 q 586 674 485 699 l 621 665 l 600 419 l 482 424 l 483 499 q 478 553 481 535 q 388 589 438 589 q 288 528 319 589 q 256 340 256 468 q 422 114 256 114 q 506 125 465 114 q 565 147 546 136 l 585 158 l 633 78 q 382 -21 522 -21 q 124 72 213 -21 q 35 335 35 164 q 126 603 35 507 q 375 699 217 699 m 176 1063 l 269 989 q 292 975 275 986 q 379 924 317 960 q 489 989 463 976 l 582 1063 l 654 982 l 379 783 l 104 982 l 176 1063 z "},"Ď":{"ha":1026,"x_min":63,"x_max":989,"o":"m 210 979 l 500 993 q 863 856 736 993 q 989 491 989 719 q 863 127 989 263 q 500 -8 736 -8 q 208 0 500 -8 l 69 -7 l 63 90 l 154 107 q 167 226 167 199 l 167 711 q 158 842 167 783 l 154 865 l 64 882 l 71 986 q 210 979 144 979 m 481 878 q 388 867 451 878 q 382 753 382 772 l 382 268 q 388 111 382 178 q 478 107 433 107 q 691 211 625 107 q 757 492 757 315 q 696 764 757 660 q 481 878 629 878 m 696 1304 l 761 1224 l 486 1039 l 211 1224 l 276 1304 l 369 1236 l 486 1179 l 603 1236 l 696 1304 z "},"ď":{"ha":924,"x_min":33,"x_max":911,"o":"m 774 1050 l 911 1050 l 893 711 l 785 718 l 786 847 l 774 1050 m 510 104 q 299 -14 428 -14 q 102 76 171 -14 q 33 337 33 167 q 124 603 33 507 q 382 699 215 699 q 494 692 428 699 l 494 815 l 481 936 l 376 960 l 389 1064 q 551 1050 493 1050 l 674 1053 l 703 1026 q 689 774 689 843 l 689 268 q 697 132 689 197 l 701 107 l 785 99 l 776 -7 q 521 0 708 0 l 510 104 m 399 567 q 288 515 322 567 q 254 350 254 464 q 372 143 254 143 q 494 324 483 143 l 494 549 q 399 567 439 567 z "},"Đ":{"ha":950,"x_min":50,"x_max":976,"o":"m 488 -8 l 196 0 l 57 -7 l 50 90 l 142 107 q 154 226 154 199 l 154 447 l 58 447 l 58 549 l 154 549 l 154 711 q 144 842 154 763 l 142 865 l 51 882 l 58 986 q 197 979 132 979 l 488 993 q 850 856 724 993 q 976 491 976 719 q 850 127 976 263 q 488 -8 724 -8 m 369 447 l 369 268 q 375 111 369 178 q 465 107 421 107 q 678 211 613 107 q 744 492 744 315 q 683 764 744 660 q 468 878 617 878 q 375 867 439 878 q 369 753 369 772 l 369 549 l 506 549 l 499 447 l 369 447 z "},"đ":{"ha":817,"x_min":33,"x_max":818,"o":"m 510 104 q 299 -14 428 -14 q 102 76 171 -14 q 33 337 33 167 q 124 603 33 507 q 382 699 215 699 q 494 692 428 699 l 494 774 l 344 774 l 344 863 l 490 863 l 481 936 l 376 960 l 389 1064 q 551 1050 493 1050 l 674 1053 l 703 1026 q 692 863 696 939 l 818 863 l 818 774 l 689 774 l 689 268 q 697 132 689 197 l 701 107 l 785 99 l 776 -7 q 521 0 708 0 l 510 104 m 399 567 q 288 515 322 567 q 254 350 254 464 q 372 143 254 143 q 494 324 483 143 l 494 549 q 399 567 439 567 z "},"Ē":{"ha":856,"x_min":63,"x_max":807,"o":"m 210 979 l 582 979 l 740 993 l 767 968 l 776 751 l 676 744 q 664 828 668 811 q 650 860 660 844 q 540 865 594 865 l 388 865 q 382 753 382 765 l 382 554 q 418 553 396 553 l 496 553 q 557 565 525 553 l 569 654 l 656 647 q 654 532 654 560 l 658 356 l 569 347 l 557 431 q 468 439 496 439 l 425 439 q 382 438 392 439 l 382 268 q 386 121 382 204 l 560 121 q 667 132 611 121 q 710 271 700 193 l 807 264 l 786 19 l 760 -6 q 601 0 629 0 l 210 0 l 69 -7 l 63 90 l 154 107 q 167 226 167 149 l 167 711 q 154 865 167 813 l 64 882 l 71 986 q 210 979 160 979 m 204 1071 l 204 1172 l 651 1172 l 642 1071 l 204 1071 z "},"ē":{"ha":696,"x_min":35,"x_max":661,"o":"m 35 338 q 35 423 35 338 q 126 603 35 508 q 367 699 217 699 q 589 614 517 699 q 661 396 661 529 q 660 361 661 379 l 631 307 l 257 307 q 306 157 264 201 q 431 113 347 113 q 517 124 475 113 q 579 147 560 136 l 599 158 l 647 78 q 376 -21 538 -21 q 125 73 215 -21 q 35 338 35 167 m 139 828 l 139 929 l 586 929 l 576 828 l 139 828 m 354 589 q 282 542 304 589 q 256 408 260 496 l 440 419 q 442 431 442 428 q 354 589 442 589 z "},"Ĕ":{"ha":856,"x_min":63,"x_max":807,"o":"m 210 979 l 582 979 l 740 993 l 767 968 l 776 751 l 676 744 q 664 828 668 811 q 650 860 660 844 q 540 865 594 865 l 388 865 q 382 753 382 765 l 382 554 q 418 553 396 553 l 496 553 q 557 565 525 553 l 569 654 l 656 647 q 654 532 654 560 l 658 356 l 569 347 l 557 431 q 468 439 496 439 l 425 439 q 382 438 392 439 l 382 268 q 386 121 382 204 l 560 121 q 667 132 611 121 q 710 271 700 193 l 807 264 l 786 19 l 760 -6 q 601 0 629 0 l 210 0 l 69 -7 l 63 90 l 154 107 q 167 226 167 149 l 167 711 q 154 865 167 813 l 64 882 l 71 986 q 210 979 160 979 m 546 1247 l 638 1247 q 580 1088 638 1144 q 424 1032 522 1032 q 267 1088 325 1032 q 210 1247 210 1144 l 301 1247 q 335 1167 301 1196 q 424 1138 369 1138 q 512 1167 478 1138 q 546 1247 546 1196 z "},"ĕ":{"ha":696,"x_min":35,"x_max":661,"o":"m 35 338 q 35 423 35 338 q 126 603 35 508 q 367 699 217 699 q 589 614 517 699 q 661 396 661 529 q 660 361 661 379 l 631 307 l 257 307 q 306 157 264 201 q 431 113 347 113 q 517 124 475 113 q 579 147 560 136 l 599 158 l 647 78 q 376 -21 538 -21 q 125 73 215 -21 q 35 338 35 167 m 485 1010 l 576 1010 q 519 851 576 907 q 363 794 461 794 q 206 851 264 794 q 149 1010 149 907 l 240 1010 q 274 929 240 958 q 363 900 308 900 q 451 929 417 900 q 485 1010 485 958 m 354 589 q 282 542 304 589 q 256 408 260 496 l 440 419 q 442 431 442 428 q 354 589 442 589 z "},"Ė":{"ha":856,"x_min":63,"x_max":807,"o":"m 210 979 l 582 979 l 740 993 l 767 968 l 776 751 l 676 744 q 664 828 668 811 q 650 860 660 844 q 540 865 594 865 l 388 865 q 382 753 382 765 l 382 554 q 418 553 396 553 l 496 553 q 557 565 525 553 l 569 654 l 656 647 q 654 532 654 560 l 658 356 l 569 347 l 557 431 q 468 439 496 439 l 425 439 q 382 438 392 439 l 382 268 q 386 121 382 204 l 560 121 q 667 132 611 121 q 710 271 700 193 l 807 264 l 786 19 l 760 -6 q 601 0 629 0 l 210 0 l 69 -7 l 63 90 l 154 107 q 167 226 167 149 l 167 711 q 154 865 167 813 l 64 882 l 71 986 q 210 979 160 979 m 347 1226 q 362 1242 347 1226 q 428 1257 376 1257 q 508 1227 479 1257 q 538 1147 538 1197 q 509 1066 538 1096 q 428 1036 481 1036 q 347 1066 375 1036 q 318 1146 318 1096 q 347 1226 318 1196 z "},"ė":{"ha":696,"x_min":35,"x_max":661,"o":"m 35 338 q 35 423 35 338 q 126 603 35 508 q 367 699 217 699 q 589 614 517 699 q 661 396 661 529 q 660 361 661 379 l 631 307 l 257 307 q 306 157 264 201 q 431 113 347 113 q 517 124 475 113 q 579 147 560 136 l 599 158 l 647 78 q 376 -21 538 -21 q 125 73 215 -21 q 35 338 35 167 m 282 990 q 297 1006 282 990 q 363 1021 311 1021 q 443 991 414 1021 q 472 910 472 961 q 444 830 472 860 q 363 800 415 800 q 281 830 310 800 q 253 910 253 860 q 282 990 253 960 m 354 589 q 282 542 304 589 q 256 408 260 496 l 440 419 q 442 431 442 428 q 354 589 442 589 z "},"Ę":{"ha":856,"x_min":63,"x_max":807,"o":"m 210 979 l 582 979 l 740 993 l 767 968 l 776 751 l 676 744 q 664 828 668 811 q 650 860 660 844 q 540 865 594 865 l 388 865 q 382 753 382 765 l 382 554 q 418 553 396 553 l 496 553 q 557 565 525 553 l 569 654 l 656 647 q 654 532 654 560 l 658 356 l 569 347 l 557 431 q 468 439 496 439 l 425 439 q 382 438 392 439 l 382 268 q 386 121 382 204 l 560 121 q 667 132 611 121 q 710 271 700 193 l 807 264 l 786 19 l 760 -6 q 713 -4 743 -4 q 634 -31 682 -4 q 586 -118 586 -58 q 602 -166 586 -147 q 644 -185 618 -185 q 696 -175 671 -185 l 721 -242 q 588 -274 657 -274 q 478 -242 519 -274 q 438 -150 438 -211 q 456 -82 438 -106 q 481 -50 474 -58 q 509 -23 488 -42 q 535 0 531 -4 l 210 0 l 69 -7 l 63 90 l 154 107 q 167 226 167 149 l 167 711 q 154 865 167 813 l 64 882 l 71 986 q 210 979 160 979 z "},"ę":{"ha":696,"x_min":35,"x_max":661,"o":"m 35 338 q 35 423 35 338 q 126 603 35 508 q 367 699 217 699 q 589 614 517 699 q 661 396 661 529 q 660 361 661 379 l 631 307 l 257 307 q 306 157 264 201 q 431 113 347 113 q 517 124 475 113 q 579 147 560 136 l 599 158 l 647 78 q 499 -118 499 -37 q 515 -166 499 -147 q 557 -185 531 -185 q 608 -175 583 -185 l 633 -242 q 501 -274 569 -274 q 391 -242 432 -274 q 350 -144 350 -211 q 428 -18 350 -78 q 375 -21 392 -21 q 125 73 215 -21 q 35 338 35 167 m 354 589 q 282 542 304 589 q 256 408 260 496 l 440 419 q 442 431 442 428 q 354 589 442 589 z "},"Ě":{"ha":856,"x_min":63,"x_max":807,"o":"m 210 979 l 582 979 l 740 993 l 767 968 l 776 751 l 676 744 q 664 828 668 811 q 650 860 660 844 q 540 865 594 865 l 388 865 q 382 753 382 765 l 382 554 q 418 553 396 553 l 496 553 q 557 565 525 553 l 569 654 l 656 647 q 654 532 654 560 l 658 356 l 569 347 l 557 431 q 468 439 496 439 l 425 439 q 382 438 392 439 l 382 268 q 386 121 382 204 l 560 121 q 667 132 611 121 q 710 271 700 193 l 807 264 l 786 19 l 760 -6 q 601 0 629 0 l 210 0 l 69 -7 l 63 90 l 154 107 q 167 226 167 149 l 167 711 q 154 865 167 813 l 64 882 l 71 986 q 210 979 160 979 m 638 1290 l 703 1210 l 428 1025 l 153 1210 l 218 1290 l 311 1222 l 428 1165 l 544 1222 l 638 1290 z "},"ě":{"ha":696,"x_min":35,"x_max":661,"o":"m 35 338 q 35 423 35 338 q 126 603 35 508 q 367 699 217 699 q 589 614 517 699 q 661 396 661 529 q 660 361 661 379 l 631 307 l 257 307 q 306 157 264 201 q 431 113 347 113 q 517 124 475 113 q 579 147 560 136 l 599 158 l 647 78 q 376 -21 538 -21 q 125 73 215 -21 q 35 338 35 167 m 160 1063 l 253 989 q 275 975 258 986 q 363 924 300 960 q 472 989 446 976 l 565 1063 l 638 982 l 363 783 l 88 982 l 160 1063 m 354 589 q 282 542 304 589 q 256 408 260 496 l 440 419 q 442 431 442 428 q 354 589 442 589 z "},"Ĝ":{"ha":971,"x_min":38,"x_max":890,"o":"m 547 1000 q 865 953 661 1000 l 847 724 l 738 729 l 733 794 q 717 851 733 808 q 547 871 622 871 q 351 766 415 871 q 288 490 288 661 q 351 213 288 318 q 546 108 414 108 q 682 119 608 108 q 692 178 692 163 l 692 272 l 678 357 l 531 368 l 538 504 l 692 504 l 851 508 l 890 474 q 878 272 878 342 l 878 26 q 547 -21 674 -21 q 169 117 300 -21 q 38 489 38 256 q 169 861 38 722 q 547 1000 300 1000 m 546 1303 l 821 1118 l 756 1038 l 663 1106 l 546 1163 l 429 1106 l 336 1038 l 271 1118 l 546 1303 z "},"ĝ":{"ha":728,"x_min":38,"x_max":715,"o":"m 656 450 q 574 266 656 336 q 357 196 492 196 q 263 207 307 196 q 243 165 243 183 q 358 117 243 129 q 643 75 601 90 q 715 -60 715 47 q 608 -247 715 -168 q 343 -326 500 -326 q 38 -128 38 -326 q 73 -72 38 -106 q 165 -6 108 -39 q 106 122 106 36 q 190 233 106 150 q 64 444 64 300 q 146 628 64 558 q 363 699 228 699 q 514 669 450 699 l 696 700 l 701 581 l 619 581 q 656 450 656 526 m 364 1063 l 639 864 l 574 783 l 481 857 q 364 918 425 885 l 247 857 l 154 783 l 89 864 l 364 1063 m 363 607 q 275 447 275 607 q 358 288 275 288 q 444 447 444 288 q 363 607 444 607 m 222 -106 q 404 -215 222 -215 q 508 -192 469 -215 q 546 -128 546 -168 q 500 -81 546 -87 l 319 -53 q 247 -39 274 -46 q 222 -106 222 -72 z "},"Ğ":{"ha":971,"x_min":38,"x_max":890,"o":"m 547 1000 q 865 953 661 1000 l 847 724 l 738 729 l 733 794 q 717 851 733 808 q 547 871 622 871 q 351 766 415 871 q 288 490 288 661 q 351 213 288 318 q 546 108 414 108 q 682 119 608 108 q 692 178 692 163 l 692 272 l 678 357 l 531 368 l 538 504 l 692 504 l 851 508 l 890 474 q 878 272 878 342 l 878 26 q 547 -21 674 -21 q 169 117 300 -21 q 38 489 38 256 q 169 861 38 722 q 547 1000 300 1000 m 668 1247 l 760 1247 q 702 1088 760 1144 q 546 1032 644 1032 q 390 1088 447 1032 q 332 1247 332 1144 l 424 1247 q 458 1167 424 1196 q 546 1138 492 1138 q 634 1167 600 1138 q 668 1247 668 1196 z "},"ğ":{"ha":728,"x_min":38,"x_max":715,"o":"m 656 450 q 574 266 656 336 q 357 196 492 196 q 263 207 307 196 q 243 165 243 183 q 358 117 243 129 q 643 75 601 90 q 715 -60 715 47 q 608 -247 715 -168 q 343 -326 500 -326 q 38 -128 38 -326 q 73 -72 38 -106 q 165 -6 108 -39 q 106 122 106 36 q 190 233 106 150 q 64 444 64 300 q 146 628 64 558 q 363 699 228 699 q 514 669 450 699 l 696 700 l 701 581 l 619 581 q 656 450 656 526 m 222 -106 q 404 -215 222 -215 q 508 -192 469 -215 q 546 -128 546 -168 q 500 -81 546 -87 l 319 -53 q 247 -39 274 -46 q 222 -106 222 -72 m 363 607 q 275 447 275 607 q 358 288 275 288 q 444 447 444 288 q 363 607 444 607 m 486 1010 l 578 1010 q 520 851 578 907 q 364 794 463 794 q 208 851 265 794 q 150 1010 150 907 l 242 1010 q 276 929 242 958 q 364 900 310 900 q 452 929 418 900 q 486 1010 486 958 z "},"Ġ":{"ha":971,"x_min":38,"x_max":890,"o":"m 547 1000 q 865 953 661 1000 l 847 724 l 738 729 l 733 794 q 717 851 733 808 q 547 871 622 871 q 351 766 415 871 q 288 490 288 661 q 351 213 288 318 q 546 108 414 108 q 682 119 608 108 q 692 178 692 163 l 692 272 l 678 357 l 531 368 l 538 504 l 692 504 l 851 508 l 890 474 q 878 272 878 342 l 878 26 q 547 -21 674 -21 q 169 117 300 -21 q 38 489 38 256 q 169 861 38 722 q 547 1000 300 1000 m 465 1226 q 480 1242 465 1226 q 546 1257 494 1257 q 626 1227 597 1257 q 656 1147 656 1197 q 627 1066 656 1096 q 546 1036 599 1036 q 465 1066 493 1036 q 436 1146 436 1096 q 465 1226 436 1196 z "},"ġ":{"ha":728,"x_min":38,"x_max":715,"o":"m 656 450 q 574 266 656 336 q 357 196 492 196 q 263 207 307 196 q 243 165 243 183 q 358 117 243 129 q 643 75 601 90 q 715 -60 715 47 q 608 -247 715 -168 q 343 -326 500 -326 q 38 -128 38 -326 q 73 -72 38 -106 q 165 -6 108 -39 q 106 122 106 36 q 190 233 106 150 q 64 444 64 300 q 146 628 64 558 q 363 699 228 699 q 514 669 450 699 l 696 700 l 701 581 l 619 581 q 656 450 656 526 m 222 -106 q 404 -215 222 -215 q 508 -192 469 -215 q 546 -128 546 -168 q 500 -81 546 -87 l 319 -53 q 247 -39 274 -46 q 222 -106 222 -72 m 363 607 q 275 447 275 607 q 358 288 275 288 q 444 447 444 288 q 363 607 444 607 m 283 990 q 298 1006 283 990 q 364 1021 313 1021 q 444 991 415 1021 q 474 910 474 961 q 445 830 474 860 q 364 800 417 800 q 283 830 311 800 q 254 910 254 860 q 283 990 254 960 z "},"Ģ":{"ha":971,"x_min":38,"x_max":890,"o":"m 547 1000 q 865 953 661 1000 l 847 724 l 738 729 l 733 794 q 717 851 733 808 q 547 871 622 871 q 351 766 415 871 q 288 490 288 661 q 351 213 288 318 q 546 108 414 108 q 682 119 608 108 q 692 178 692 163 l 692 272 l 678 357 l 531 368 l 538 504 l 692 504 l 851 508 l 890 474 q 878 272 878 342 l 878 26 q 547 -21 674 -21 q 169 117 300 -21 q 38 489 38 256 q 169 861 38 722 q 547 1000 300 1000 m 492 -250 q 435 -181 435 -231 q 461 -106 435 -131 q 527 -81 488 -81 q 591 -108 567 -81 q 615 -178 615 -136 q 594 -269 615 -221 q 551 -350 572 -318 l 531 -381 l 467 -364 q 492 -250 492 -287 z "},"ģ":{"ha":728,"x_min":38,"x_max":715,"o":"m 656 450 q 574 266 656 336 q 357 196 492 196 q 263 207 307 196 q 243 165 243 183 q 358 117 243 129 q 643 75 601 90 q 715 -60 715 47 q 608 -247 715 -168 q 343 -326 500 -326 q 38 -128 38 -326 q 73 -72 38 -106 q 165 -6 108 -39 q 106 122 106 36 q 190 233 106 150 q 64 444 64 300 q 146 628 64 558 q 363 699 228 699 q 514 669 450 699 l 696 700 l 701 581 l 619 581 q 656 450 656 526 m 363 607 q 275 447 275 607 q 358 288 275 288 q 444 447 444 288 q 363 607 444 607 m 222 -106 q 404 -215 222 -215 q 508 -192 469 -215 q 546 -128 546 -168 q 500 -81 546 -87 l 319 -53 q 247 -39 274 -46 q 222 -106 222 -72 m 397 944 q 454 875 454 925 q 428 800 454 825 q 362 775 401 775 q 298 803 322 775 q 274 873 274 831 q 294 964 274 915 q 336 1044 315 1013 l 358 1075 l 422 1058 q 397 944 397 982 z "},"Ĥ":{"ha":1149,"x_min":63,"x_max":1086,"o":"m 154 107 l 167 226 l 167 711 q 154 865 167 765 l 64 882 l 71 986 q 210 979 144 979 l 479 986 l 486 874 l 394 865 q 382 753 382 803 l 382 540 l 767 546 l 767 711 q 754 865 767 765 l 664 882 l 671 986 q 810 979 744 979 l 1079 986 l 1086 874 l 994 865 q 982 753 982 803 l 982 268 q 994 107 982 194 l 1085 99 l 1078 -7 q 808 0 965 0 l 669 -7 l 663 90 l 754 107 l 767 226 l 767 419 l 382 419 l 382 268 q 394 107 382 194 l 485 99 l 478 -7 q 208 0 365 0 l 69 -7 l 63 90 l 154 107 m 575 1303 l 850 1118 l 785 1038 l 692 1106 l 575 1163 l 458 1106 l 365 1038 l 300 1118 l 575 1303 z "},"ĥ":{"ha":876,"x_min":-67,"x_max":867,"o":"m 329 774 l 329 604 q 522 699 406 699 q 701 635 639 699 q 764 451 764 572 l 764 268 q 772 132 764 197 l 776 107 l 867 99 l 860 -7 q 611 0 768 0 l 492 -7 l 485 90 l 563 107 q 565 156 564 126 q 568 203 567 185 q 569 226 569 221 l 569 432 q 544 524 569 489 q 465 560 518 560 q 370 508 411 560 q 329 368 329 457 l 329 268 q 339 132 329 219 l 342 107 l 432 99 l 425 -7 q 176 0 333 0 l 38 -7 l 31 90 l 122 107 q 135 226 135 175 l 135 815 l 121 936 l 17 960 l 29 1064 q 192 1050 133 1050 l 314 1053 l 343 1026 q 329 774 329 878 m 208 1332 l 483 1147 l 418 1067 l 325 1135 l 208 1192 l 92 1135 l -1 1067 l -67 1147 l 208 1332 z "},"Ħ":{"ha":1149,"x_min":42,"x_max":1107,"o":"m 765 765 l 754 865 l 664 882 l 671 986 q 810 979 744 979 l 1079 986 l 1086 874 l 994 865 q 982 765 985 822 l 1107 765 l 1107 676 l 982 676 l 982 268 q 994 107 982 194 l 1085 99 l 1078 -7 q 808 0 965 0 l 669 -7 l 663 90 l 754 107 l 767 226 l 767 419 l 382 419 l 382 268 q 394 107 382 194 l 485 99 l 478 -7 q 208 0 365 0 l 69 -7 l 63 90 l 154 107 l 167 226 l 167 676 l 42 676 l 42 765 l 165 765 q 154 865 165 765 l 64 882 l 71 986 q 210 979 144 979 l 479 986 l 486 874 l 394 865 q 382 765 385 822 l 765 765 m 767 676 l 382 676 l 382 540 l 767 546 l 767 676 z "},"ħ":{"ha":876,"x_min":8,"x_max":867,"o":"m 482 863 l 482 774 l 329 774 l 329 604 q 522 699 406 699 q 701 635 639 699 q 764 451 764 572 l 764 268 q 772 132 764 197 l 776 107 l 867 99 l 860 -7 q 611 0 768 0 l 492 -7 l 485 90 l 563 107 q 565 156 564 126 q 568 203 567 185 q 569 226 569 221 l 569 432 q 544 524 569 489 q 465 560 518 560 q 370 508 411 560 q 329 368 329 457 l 329 268 q 339 132 329 219 l 342 107 l 432 99 l 425 -7 q 176 0 333 0 l 38 -7 l 31 90 l 122 107 q 135 226 135 175 l 135 774 l 8 774 l 8 863 l 131 863 l 121 936 l 17 960 l 29 1064 q 192 1050 133 1050 l 314 1053 l 343 1026 q 332 863 338 969 l 482 863 z "},"Ĩ":{"ha":563,"x_min":57,"x_max":569,"o":"m 175 107 l 188 226 l 188 711 q 175 865 188 765 l 85 882 l 92 986 q 231 979 165 979 l 500 986 l 507 874 l 415 865 q 403 753 403 803 l 403 268 q 415 107 403 194 l 506 99 l 499 -7 q 229 0 386 0 l 90 -7 l 83 90 l 175 107 m 551 1149 q 545 1137 551 1149 q 506 1086 539 1125 q 445 1047 474 1047 q 318 1074 417 1047 q 197 1100 219 1100 q 132 1056 161 1100 l 122 1042 l 57 1081 q 117 1180 79 1133 q 182 1226 154 1226 q 309 1200 210 1226 q 431 1174 408 1174 q 493 1214 468 1174 l 501 1226 l 569 1188 q 551 1149 563 1172 z "},"ĩ":{"ha":467,"x_min":-33,"x_max":415,"o":"m 118 226 l 118 451 l 104 572 l 0 596 l 13 699 q 175 686 117 686 l 297 689 l 326 663 q 313 410 313 479 l 313 268 q 322 132 313 219 l 325 107 l 415 99 l 408 -7 q 160 0 317 0 l 21 -7 l 14 90 l 106 107 q 118 226 118 199 m 344 869 q 328 847 344 869 q 288 825 313 825 q 190 851 264 825 q 99 878 117 878 q 42 833 68 878 l 32 819 l -33 858 q -27 874 -31 864 q -11 909 -24 883 q 14 953 1 935 q 73 1004 47 1004 q 173 978 99 1004 q 265 951 247 951 q 319 992 294 951 l 328 1004 l 396 965 q 344 869 376 913 z "},"Ī":{"ha":563,"x_min":58,"x_max":482,"o":"m 150 107 l 163 226 l 163 711 q 150 865 163 765 l 60 882 l 67 986 q 206 979 140 979 l 475 986 l 482 874 l 390 865 q 378 753 378 803 l 378 268 q 390 107 378 194 l 481 99 l 474 -7 q 204 0 361 0 l 65 -7 l 58 90 l 150 107 m 92 1071 l 92 1172 l 478 1172 l 471 1071 l 92 1071 z "},"ī":{"ha":467,"x_min":11,"x_max":426,"o":"m 129 226 l 129 451 l 115 572 l 11 596 l 24 699 q 186 686 128 686 l 308 689 l 338 663 q 324 410 324 479 l 324 268 q 333 132 324 219 l 336 107 l 426 99 l 419 -7 q 171 0 328 0 l 32 -7 l 25 90 l 117 107 q 129 226 129 199 m 24 828 l 24 929 l 410 929 l 403 828 l 24 828 z "},"Ĭ":{"ha":563,"x_min":68,"x_max":496,"o":"m 161 107 l 174 226 l 174 711 q 161 865 174 765 l 71 882 l 78 986 q 217 979 151 979 l 486 986 l 493 874 l 401 865 q 389 753 389 803 l 389 268 q 401 107 389 194 l 492 99 l 485 -7 q 215 0 372 0 l 76 -7 l 69 90 l 161 107 m 404 1247 l 496 1247 q 438 1088 496 1144 q 282 1032 381 1032 q 126 1088 183 1032 q 68 1247 68 1144 l 160 1247 q 194 1167 160 1196 q 282 1138 228 1138 q 370 1167 336 1138 q 404 1247 404 1196 z "},"ĭ":{"ha":467,"x_min":19,"x_max":447,"o":"m 146 226 l 146 451 l 132 572 l 28 596 l 40 699 q 203 686 144 686 l 325 689 l 354 663 q 340 410 340 479 l 340 268 q 350 132 340 219 l 353 107 l 443 99 l 436 -7 q 188 0 344 0 l 49 -7 l 42 90 l 133 107 q 146 226 146 199 m 356 1010 l 447 1010 q 390 851 447 907 q 233 794 332 794 q 77 851 135 794 q 19 1010 19 907 l 111 1010 q 145 929 111 958 q 233 900 179 900 q 322 929 288 900 q 356 1010 356 958 z "},"Į":{"ha":563,"x_min":28,"x_max":493,"o":"m 174 226 l 174 711 q 161 865 174 765 l 71 882 l 78 986 q 217 979 151 979 l 486 986 l 493 874 l 401 865 q 389 753 389 803 l 389 268 q 401 107 389 194 l 492 99 l 485 -7 q 281 0 401 -1 q 204 -43 232 -8 q 176 -112 176 -78 q 239 -185 176 -185 q 286 -175 261 -185 l 311 -242 q 178 -274 247 -274 q 69 -242 110 -274 q 28 -160 28 -211 q 51 -74 28 -110 q 101 -10 74 -37 q 151 78 128 17 q 174 226 174 140 z "},"į":{"ha":467,"x_min":7,"x_max":443,"o":"m 146 226 l 146 451 l 132 572 l 28 596 l 40 699 q 203 686 144 686 l 325 689 l 354 663 q 340 410 340 479 l 340 268 q 350 132 340 219 l 353 107 l 443 99 l 436 -7 q 253 0 375 0 q 182 -43 208 -8 q 156 -112 156 -78 q 171 -166 156 -147 q 210 -185 186 -185 q 258 -175 235 -185 l 283 -242 q 153 -274 219 -274 q 47 -242 88 -274 q 7 -150 7 -211 q 56 -36 7 -94 q 97 19 76 -11 q 146 226 146 92 m 153 990 q 167 1006 153 990 q 233 1021 182 1021 q 314 991 285 1021 q 343 910 343 961 q 315 830 343 860 q 233 800 286 800 q 152 830 181 800 q 124 910 124 860 q 153 990 124 960 z "},"İ":{"ha":563,"x_min":69,"x_max":493,"o":"m 161 107 l 174 226 l 174 711 q 161 865 174 765 l 71 882 l 78 986 q 217 979 151 979 l 486 986 l 493 874 l 401 865 q 389 753 389 803 l 389 268 q 401 107 389 194 l 492 99 l 485 -7 q 215 0 372 0 l 76 -7 l 69 90 l 161 107 m 201 1226 q 216 1242 201 1226 q 282 1257 231 1257 q 363 1227 333 1257 q 392 1147 392 1197 q 363 1066 392 1096 q 282 1036 335 1036 q 201 1066 229 1036 q 172 1146 172 1096 q 201 1226 172 1196 z "},"ı":{"ha":467,"x_min":28,"x_max":443,"o":"m 146 226 l 146 451 l 132 572 l 28 596 l 40 699 q 203 686 144 686 l 325 689 l 354 663 q 340 410 340 479 l 340 268 q 350 132 340 219 l 353 107 l 443 99 l 436 -7 q 188 0 344 0 l 49 -7 l 42 90 l 133 107 q 146 226 146 199 z "},"Ĳ":{"ha":1008,"x_min":69,"x_max":963,"o":"m 161 107 l 174 226 l 174 711 q 161 865 174 806 l 71 882 l 78 986 q 217 979 151 979 l 686 979 l 956 986 l 963 874 l 871 865 q 858 753 858 810 l 858 0 q 796 -98 858 -31 q 613 -278 733 -165 l 538 -235 q 643 15 643 -12 l 643 711 q 631 865 643 803 l 517 878 l 401 865 q 389 753 389 822 l 389 268 q 401 107 389 219 l 492 99 l 485 -7 q 215 0 372 0 l 76 -7 l 69 90 l 161 107 z "},"ĳ":{"ha":818,"x_min":36,"x_max":768,"o":"m 754 410 l 754 -14 q 696 -117 754 -39 q 579 -261 638 -194 l 521 -326 l 456 -290 q 574 29 574 -26 l 567 96 q 369 -6 488 -6 q 189 58 251 -6 q 126 242 126 121 l 126 451 l 113 576 l 36 596 l 49 699 q 204 686 146 686 l 306 689 l 335 663 q 321 410 321 479 l 321 261 q 347 169 321 204 q 424 133 372 133 q 514 176 475 133 q 560 294 553 219 l 560 451 l 546 572 l 442 596 l 454 699 q 617 686 558 686 l 739 689 l 768 663 q 754 410 754 479 m 132 990 q 147 1006 132 990 q 213 1021 161 1021 q 293 991 264 1021 q 322 910 322 961 q 294 830 322 860 q 213 800 265 800 q 131 830 160 800 q 103 910 103 860 q 132 990 103 960 m 564 990 q 578 1006 564 990 q 644 1021 593 1021 q 725 991 696 1021 q 754 910 754 961 q 726 830 754 860 q 644 800 697 800 q 563 830 592 800 q 535 910 535 860 q 564 990 535 960 z "},"Ĵ":{"ha":515,"x_min":-17,"x_max":533,"o":"m 365 753 l 365 14 q 119 -278 365 -50 l 44 -235 q 150 15 150 -12 l 150 711 q 138 865 150 803 l 47 882 l 54 986 q 193 979 128 979 l 463 986 l 469 874 l 378 865 q 365 753 365 808 m 258 1303 l 533 1118 l 468 1038 l 375 1106 l 258 1163 l 142 1106 l 49 1038 l -17 1118 l 258 1303 z "},"ĵ":{"ha":429,"x_min":-60,"x_max":490,"o":"m 346 410 l 346 -14 q 288 -117 346 -39 q 171 -261 229 -194 l 113 -326 l 47 -290 q 151 29 151 -26 l 151 451 l 138 572 l 33 596 l 46 699 q 208 686 150 686 l 331 689 l 360 663 q 346 410 346 479 m 215 1063 l 490 864 l 425 783 l 332 857 q 215 918 276 885 l 99 857 l 6 783 l -60 864 l 215 1063 z "},"Ķ":{"ha":1043,"x_min":67,"x_max":1050,"o":"m 1050 99 l 1043 -7 q 763 0 918 0 l 631 -7 l 624 90 l 678 101 q 596 228 618 197 l 388 490 l 613 801 l 651 874 l 608 882 l 615 986 q 750 979 683 979 l 981 986 l 988 874 l 907 865 q 801 758 843 804 l 622 514 q 907 179 715 410 q 983 107 918 165 l 1050 99 m 154 107 l 167 226 l 167 711 q 154 865 167 765 l 68 882 l 75 986 q 208 979 142 979 l 475 986 l 482 874 l 394 865 q 382 753 382 803 l 382 268 q 394 107 382 194 l 479 99 l 472 -7 q 207 0 363 0 l 74 -7 l 67 90 l 154 107 m 492 -250 q 435 -181 435 -231 q 461 -106 435 -131 q 527 -81 488 -81 q 591 -108 567 -81 q 615 -178 615 -136 q 594 -269 615 -221 q 551 -350 572 -318 l 531 -381 l 467 -364 q 492 -250 492 -287 z "},"ķ":{"ha":849,"x_min":17,"x_max":846,"o":"m 329 774 l 329 268 q 339 132 329 219 l 342 107 l 432 99 l 425 -7 q 176 0 333 0 l 38 -7 l 31 90 l 122 107 q 135 226 135 175 l 135 815 l 121 936 l 17 960 l 29 1064 q 192 1050 133 1050 l 314 1053 l 343 1026 q 329 774 329 878 m 681 0 l 544 0 l 499 94 l 468 153 l 344 368 l 518 586 l 443 594 l 450 693 q 671 686 574 686 l 832 692 l 829 594 l 756 588 q 642 508 660 532 l 549 389 l 653 225 q 763 107 656 221 l 846 99 l 838 -7 q 681 0 761 0 m 453 -250 q 396 -181 396 -231 q 422 -106 396 -131 q 488 -81 449 -81 q 552 -108 528 -81 q 576 -178 576 -136 q 555 -269 576 -221 q 513 -350 533 -318 l 492 -381 l 428 -364 q 453 -250 453 -287 z "},"ĸ":{"ha":799,"x_min":-17,"x_max":814,"o":"m 649 0 l 513 0 l 467 94 l 436 153 l 313 368 l 486 586 l 411 594 l 418 693 q 639 686 542 686 l 800 692 l 797 594 l 724 588 q 610 508 628 532 l 517 389 l 621 225 q 731 107 624 221 l 814 99 l 806 -7 q 649 0 729 0 m 101 226 l 101 451 l 88 572 l -17 596 l -4 699 q 158 686 100 686 l 281 689 l 310 663 q 296 410 296 479 l 296 268 q 306 132 296 219 l 308 107 l 399 99 l 392 -7 q 143 0 300 0 l 4 -7 l -3 90 l 89 107 q 101 226 101 199 z "},"Ĺ":{"ha":785,"x_min":63,"x_max":771,"o":"m 154 107 l 167 226 l 167 711 q 154 865 167 765 l 64 882 l 71 986 q 210 979 144 979 l 479 986 l 486 874 l 394 865 q 382 753 382 803 l 382 268 q 393 121 382 199 l 524 121 q 631 132 578 121 q 663 213 656 186 q 674 271 669 239 l 771 264 l 750 19 l 724 -6 q 565 0 593 0 l 208 0 l 69 -7 l 63 90 l 154 107 m 407 1247 l 457 1131 q 232 1067 258 1075 l 129 1014 l 78 1103 l 407 1247 z "},"ĺ":{"ha":457,"x_min":17,"x_max":439,"o":"m 329 774 l 329 268 q 339 132 329 219 l 342 107 l 432 99 l 425 -7 q 176 0 333 0 l 38 -7 l 31 90 l 122 107 q 135 226 135 175 l 135 815 l 121 936 l 17 960 l 29 1064 q 192 1050 133 1050 l 314 1053 l 343 1026 q 329 774 329 878 m 389 1332 l 439 1215 q 214 1151 240 1160 l 111 1099 l 60 1188 l 389 1332 z "},"Ļ":{"ha":785,"x_min":63,"x_max":771,"o":"m 154 107 l 167 226 l 167 711 q 154 865 167 765 l 64 882 l 71 986 q 210 979 144 979 l 479 986 l 486 874 l 394 865 q 382 753 382 803 l 382 268 q 393 121 382 199 l 524 121 q 631 132 578 121 q 663 213 656 186 q 674 271 669 239 l 771 264 l 750 19 l 724 -6 q 565 0 593 0 l 208 0 l 69 -7 l 63 90 l 154 107 m 389 -250 q 332 -181 332 -231 q 358 -106 332 -131 q 424 -81 385 -81 q 488 -108 464 -81 q 513 -178 513 -136 q 491 -269 513 -221 q 449 -350 469 -318 l 428 -381 l 364 -364 q 389 -250 389 -287 z "},"ļ":{"ha":457,"x_min":17,"x_max":432,"o":"m 329 774 l 329 268 q 339 132 329 219 l 342 107 l 432 99 l 425 -7 q 176 0 333 0 l 38 -7 l 31 90 l 122 107 q 135 226 135 175 l 135 815 l 121 936 l 17 960 l 29 1064 q 192 1050 133 1050 l 314 1053 l 343 1026 q 329 774 329 878 m 210 -250 q 153 -181 153 -231 q 179 -106 153 -131 q 245 -81 206 -81 q 309 -108 285 -81 q 333 -178 333 -136 q 313 -269 333 -221 q 269 -350 292 -318 l 249 -381 l 185 -364 q 210 -250 210 -287 z "},"Ľ":{"ha":785,"x_min":63,"x_max":771,"o":"m 518 801 l 683 801 l 665 463 l 543 469 l 544 599 l 518 801 m 154 107 l 167 226 l 167 711 q 154 865 167 765 l 64 882 l 71 986 q 210 979 144 979 l 479 986 l 486 874 l 394 865 q 382 753 382 803 l 382 268 q 393 121 382 199 l 524 121 q 631 132 578 121 q 663 213 656 186 q 674 271 669 239 l 771 264 l 750 19 l 724 -6 q 565 0 593 0 l 208 0 l 69 -7 l 63 90 l 154 107 z "},"ľ":{"ha":558,"x_min":17,"x_max":546,"o":"m 408 1050 l 546 1050 l 528 711 l 419 718 l 421 847 l 408 1050 m 329 774 l 329 268 q 339 132 329 219 l 342 107 l 432 99 l 425 -7 q 176 0 333 0 l 38 -7 l 31 90 l 122 107 q 135 226 135 175 l 135 815 l 121 936 l 17 960 l 29 1064 q 192 1050 133 1050 l 314 1053 l 343 1026 q 329 774 329 878 z "},"Ŀ":{"ha":785,"x_min":63,"x_max":771,"o":"m 519 620 q 534 636 519 620 q 600 653 549 653 q 681 622 651 653 q 710 536 710 590 q 681 450 710 482 q 600 418 651 418 q 519 450 549 418 q 490 535 490 482 q 519 620 490 588 m 154 107 l 167 226 l 167 711 q 154 865 167 765 l 64 882 l 71 986 q 210 979 144 979 l 479 986 l 486 874 l 394 865 q 382 753 382 803 l 382 268 q 393 121 382 199 l 524 121 q 631 132 578 121 q 663 213 656 186 q 674 271 669 239 l 771 264 l 750 19 l 724 -6 q 565 0 593 0 l 208 0 l 69 -7 l 63 90 l 154 107 z "},"ŀ":{"ha":658,"x_min":17,"x_max":631,"o":"m 329 774 l 329 268 q 339 132 329 219 l 342 107 l 432 99 l 425 -7 q 176 0 333 0 l 38 -7 l 31 90 l 122 107 q 135 226 135 175 l 135 815 l 121 936 l 17 960 l 29 1064 q 192 1050 133 1050 l 314 1053 l 343 1026 q 329 774 329 878 m 440 501 q 455 517 440 501 q 521 533 469 533 q 601 502 572 533 q 631 417 631 471 q 601 331 631 363 q 521 299 572 299 q 440 331 469 299 q 411 415 411 363 q 440 501 411 468 z "},"Ł":{"ha":785,"x_min":36,"x_max":771,"o":"m 154 107 l 167 226 l 167 431 l 67 394 l 36 478 l 167 525 l 167 711 q 154 865 167 765 l 64 882 l 71 986 q 210 979 144 979 l 479 986 l 486 874 l 394 865 q 382 753 382 803 l 382 603 l 608 686 l 639 603 l 382 508 l 382 268 q 393 121 382 199 l 524 121 q 631 132 578 121 q 663 213 656 186 q 674 271 669 239 l 771 264 l 750 19 l 724 -6 q 565 0 593 0 l 208 0 l 69 -7 l 63 90 l 154 107 z "},"ł":{"ha":457,"x_min":-1,"x_max":457,"o":"m 329 774 l 329 650 l 426 686 l 457 603 l 329 556 l 329 268 q 339 132 329 219 l 342 107 l 432 99 l 425 -7 q 176 0 333 0 l 38 -7 l 31 90 l 122 107 q 135 226 135 175 l 135 485 l 29 447 l -1 531 l 135 579 l 135 815 l 121 936 l 17 960 l 29 1064 q 192 1050 133 1050 l 314 1053 l 343 1026 q 329 774 329 878 z "},"Ń":{"ha":1114,"x_min":63,"x_max":1086,"o":"m 982 753 l 982 0 l 794 0 l 343 625 l 343 268 q 356 107 343 232 l 446 99 l 439 -7 q 208 0 365 0 l 69 -7 l 63 90 l 154 107 q 167 226 167 175 l 167 711 q 154 865 167 797 l 64 882 l 71 986 q 210 979 144 979 l 351 979 l 378 951 q 500 746 479 776 l 806 319 l 806 711 q 793 865 806 765 l 703 882 l 710 986 l 849 979 l 1079 986 l 1086 874 l 994 865 q 982 753 982 790 m 724 1247 l 774 1131 q 549 1067 575 1075 l 446 1014 l 394 1103 l 724 1247 z "},"ń":{"ha":883,"x_min":24,"x_max":874,"o":"m 539 699 q 712 635 653 699 q 771 451 771 572 l 771 268 q 781 132 771 219 l 783 107 l 874 99 l 867 -7 q 618 0 775 0 l 499 -7 l 492 90 l 569 107 q 572 156 571 126 q 575 203 574 185 q 576 226 576 221 l 576 432 q 551 524 576 489 q 472 560 525 560 q 377 508 418 560 q 336 368 336 457 l 336 268 q 344 132 336 197 l 349 107 l 439 99 l 432 -7 q 183 0 340 0 l 44 -7 l 38 90 l 129 107 q 142 226 142 199 l 142 451 l 128 572 l 24 596 l 36 699 q 199 686 140 686 l 265 689 l 294 663 l 308 563 q 539 699 400 699 m 622 1049 l 688 943 q 493 853 518 865 l 400 785 l 335 865 l 622 1049 z "},"Ņ":{"ha":1114,"x_min":63,"x_max":1086,"o":"m 982 753 l 982 0 l 794 0 l 343 625 l 343 268 q 356 107 343 232 l 446 99 l 439 -7 q 208 0 365 0 l 69 -7 l 63 90 l 154 107 q 167 226 167 175 l 167 711 q 154 865 167 797 l 64 882 l 71 986 q 210 979 144 979 l 351 979 l 378 951 q 500 746 479 776 l 806 319 l 806 711 q 793 865 806 765 l 703 882 l 710 986 l 849 979 l 1079 986 l 1086 874 l 994 865 q 982 753 982 790 m 519 -250 q 463 -181 463 -231 q 489 -106 463 -131 q 555 -81 515 -81 q 619 -108 594 -81 q 643 -178 643 -136 q 622 -269 643 -221 q 579 -350 600 -318 l 558 -381 l 494 -364 q 519 -250 519 -287 z "},"ņ":{"ha":883,"x_min":24,"x_max":874,"o":"m 539 699 q 712 635 653 699 q 771 451 771 572 l 771 268 q 781 132 771 219 l 783 107 l 874 99 l 867 -7 q 618 0 775 0 l 499 -7 l 492 90 l 569 107 q 572 156 571 126 q 575 203 574 185 q 576 226 576 221 l 576 432 q 551 524 576 489 q 472 560 525 560 q 377 508 418 560 q 336 368 336 457 l 336 268 q 344 132 336 197 l 349 107 l 439 99 l 432 -7 q 183 0 340 0 l 44 -7 l 38 90 l 129 107 q 142 226 142 199 l 142 451 l 128 572 l 24 596 l 36 699 q 199 686 140 686 l 265 689 l 294 663 l 308 563 q 539 699 400 699 m 447 -250 q 390 -181 390 -231 q 417 -106 390 -131 q 483 -81 443 -81 q 547 -108 522 -81 q 571 -178 571 -136 q 549 -269 571 -221 q 507 -350 528 -318 l 486 -381 l 422 -364 q 447 -250 447 -287 z "},"Ň":{"ha":1114,"x_min":63,"x_max":1086,"o":"m 982 753 l 982 0 l 794 0 l 343 625 l 343 268 q 356 107 343 232 l 446 99 l 439 -7 q 208 0 365 0 l 69 -7 l 63 90 l 154 107 q 167 226 167 175 l 167 711 q 154 865 167 797 l 64 882 l 71 986 q 210 979 144 979 l 351 979 l 378 951 q 500 746 479 776 l 806 319 l 806 711 q 793 865 806 765 l 703 882 l 710 986 l 849 979 l 1079 986 l 1086 874 l 994 865 q 982 753 982 790 m 767 1249 l 832 1168 l 557 983 l 282 1168 l 347 1249 l 440 1181 l 557 1124 l 674 1181 l 767 1249 z "},"ň":{"ha":883,"x_min":24,"x_max":874,"o":"m 539 699 q 712 635 653 699 q 771 451 771 572 l 771 268 q 781 132 771 219 l 783 107 l 874 99 l 867 -7 q 618 0 775 0 l 499 -7 l 492 90 l 569 107 q 572 156 571 126 q 575 203 574 185 q 576 226 576 221 l 576 432 q 551 524 576 489 q 472 560 525 560 q 377 508 418 560 q 336 368 336 457 l 336 268 q 344 132 336 197 l 349 107 l 439 99 l 432 -7 q 183 0 340 0 l 44 -7 l 38 90 l 129 107 q 142 226 142 199 l 142 451 l 128 572 l 24 596 l 36 699 q 199 686 140 686 l 265 689 l 294 663 l 308 563 q 539 699 400 699 m 281 1063 l 374 989 q 396 975 379 986 q 483 924 421 960 q 593 989 567 976 l 686 1063 l 758 982 l 483 783 l 208 982 l 281 1063 z "},"Ŋ":{"ha":1132,"x_min":63,"x_max":1086,"o":"m 982 753 l 982 0 q 764 -278 989 -53 l 689 -235 q 794 0 789 -26 l 343 625 l 343 268 q 356 107 343 232 l 446 99 l 439 -7 q 208 0 365 0 l 69 -7 l 63 90 l 154 107 q 167 226 167 175 l 167 711 q 154 865 167 797 l 64 882 l 71 986 q 210 979 144 979 l 351 979 l 378 951 q 500 746 479 776 l 806 319 l 806 711 q 793 865 806 765 l 703 882 l 710 986 l 849 979 l 1079 986 l 1086 874 l 994 865 q 982 753 982 790 z "},"ŋ":{"ha":860,"x_min":24,"x_max":765,"o":"m 539 699 q 707 635 649 699 q 765 451 765 572 l 765 -14 q 707 -117 765 -39 q 590 -261 649 -194 l 532 -326 l 467 -290 q 571 29 571 -26 l 571 432 q 547 524 571 489 q 470 560 522 560 q 377 508 418 560 q 336 368 336 457 l 336 268 q 344 132 336 197 l 349 107 l 439 99 l 432 -7 q 183 0 340 0 l 44 -7 l 38 90 l 129 107 q 142 226 142 199 l 142 451 l 128 572 l 24 596 l 36 699 q 199 686 140 686 l 265 689 l 294 663 l 308 564 q 539 699 401 699 z "},"Ō":{"ha":1067,"x_min":38,"x_max":1029,"o":"m 533 1006 q 647 1006 533 1006 q 894 865 760 1006 q 1029 490 1029 725 q 894 114 1029 254 q 533 -26 760 -26 q 172 114 307 -26 q 38 490 38 254 q 172 865 38 725 q 533 1006 307 1006 m 533 871 q 471 871 533 871 q 348 777 408 871 q 288 490 288 683 q 348 202 288 296 q 533 108 408 108 q 719 202 658 108 q 779 490 779 296 q 719 777 779 683 q 533 871 658 871 m 308 1071 l 308 1172 l 756 1172 l 746 1071 l 308 1071 z "},"ō":{"ha":756,"x_min":35,"x_max":721,"o":"m 632 606 q 676 559 632 606 q 721 339 721 513 q 632 72 721 165 q 378 -21 543 -21 q 124 72 213 -21 q 35 339 35 165 q 124 606 35 513 q 378 699 213 699 q 632 606 543 699 m 472 154 q 486 183 472 154 q 500 339 500 211 q 472 524 500 467 q 378 581 443 581 q 284 524 313 581 q 256 339 256 467 q 284 154 256 211 q 378 97 313 97 q 472 154 443 97 m 154 828 l 154 929 l 601 929 l 592 828 l 154 828 z "},"Ŏ":{"ha":1067,"x_min":38,"x_max":1029,"o":"m 533 1006 q 647 1006 533 1006 q 894 865 760 1006 q 1029 490 1029 725 q 894 114 1029 254 q 533 -26 760 -26 q 172 114 307 -26 q 38 490 38 254 q 172 865 38 725 q 533 1006 307 1006 m 533 871 q 471 871 533 871 q 348 777 408 871 q 288 490 288 683 q 348 202 288 296 q 533 108 408 108 q 719 202 658 108 q 779 490 779 296 q 719 777 779 683 q 533 871 658 871 m 654 1247 l 746 1247 q 688 1088 746 1144 q 532 1032 631 1032 q 376 1088 433 1032 q 318 1247 318 1144 l 410 1247 q 444 1167 410 1196 q 532 1138 478 1138 q 620 1167 586 1138 q 654 1247 654 1196 z "},"ŏ":{"ha":756,"x_min":35,"x_max":721,"o":"m 632 606 q 676 559 632 606 q 721 339 721 513 q 632 72 721 165 q 378 -21 543 -21 q 124 72 213 -21 q 35 339 35 165 q 124 606 35 513 q 378 699 213 699 q 632 606 543 699 m 472 154 q 486 183 472 154 q 500 339 500 211 q 472 524 500 467 q 378 581 443 581 q 284 524 313 581 q 256 339 256 467 q 284 154 256 211 q 378 97 313 97 q 472 154 443 97 m 500 1010 l 592 1010 q 534 851 592 907 q 378 794 476 794 q 222 851 279 794 q 164 1010 164 907 l 256 1010 q 290 929 256 958 q 378 900 324 900 q 466 929 432 900 q 500 1010 500 958 z "},"Ő":{"ha":1067,"x_min":38,"x_max":1029,"o":"m 533 1006 q 647 1006 533 1006 q 894 865 760 1006 q 1029 490 1029 725 q 894 114 1029 254 q 533 -26 760 -26 q 172 114 307 -26 q 38 490 38 254 q 172 865 38 725 q 533 1006 307 1006 m 533 871 q 471 871 533 871 q 348 777 408 871 q 288 490 288 683 q 348 202 288 296 q 533 108 408 108 q 719 202 658 108 q 779 490 779 296 q 719 777 779 683 q 533 871 658 871 m 575 1275 l 625 1165 q 406 1075 432 1083 l 303 1019 l 249 1107 l 575 1275 m 888 1268 l 938 1151 q 713 1072 739 1081 l 610 1019 l 560 1106 l 888 1268 z "},"ő":{"ha":756,"x_min":35,"x_max":749,"o":"m 632 606 q 676 559 632 606 q 721 339 721 513 q 632 72 721 165 q 378 -21 543 -21 q 124 72 213 -21 q 35 339 35 165 q 124 606 35 513 q 378 699 213 699 q 632 606 543 699 m 472 154 q 486 183 472 154 q 500 339 500 211 q 472 524 500 467 q 378 581 443 581 q 284 524 313 581 q 256 339 256 467 q 284 154 256 211 q 378 97 313 97 q 472 154 443 97 m 682 1058 l 749 951 q 538 853 563 865 l 444 785 l 379 865 l 682 1058 m 424 1058 l 481 967 q 279 853 304 869 l 186 785 l 121 865 l 424 1058 z "},"Œ":{"ha":1396,"x_min":38,"x_max":1393,"o":"m 1188 0 l 796 0 l 696 -4 q 533 -26 624 -26 q 172 114 307 -26 q 38 490 38 254 q 172 865 38 725 q 533 1006 307 1006 q 694 983 624 1006 q 796 979 786 979 l 1168 979 l 1326 993 l 1353 968 l 1363 751 l 1263 744 q 1250 828 1254 811 q 1236 860 1246 844 q 1126 865 1181 865 l 974 865 q 968 753 968 765 l 968 554 q 1004 553 982 553 l 1082 553 q 1143 565 1111 553 l 1156 654 l 1242 647 q 1240 536 1240 564 l 1244 360 l 1156 351 l 1143 435 q 1054 443 1082 443 l 1011 443 q 968 442 978 443 l 968 268 q 972 121 968 204 l 1146 121 q 1253 132 1197 121 q 1296 271 1286 193 l 1393 264 l 1372 19 l 1346 -6 q 1188 0 1215 0 m 533 871 q 348 777 408 871 q 288 490 288 683 q 348 202 288 296 q 533 108 408 108 q 678 148 629 108 q 767 272 728 188 l 767 744 q 708 815 728 794 q 643 853 688 836 q 533 871 599 871 z "},"œ":{"ha":1075,"x_min":29,"x_max":1121,"o":"m 607 590 q 829 699 682 699 q 1049 615 976 699 q 1121 396 1121 531 q 1119 361 1121 379 l 1090 307 l 717 307 q 765 158 724 204 q 890 113 806 113 q 977 124 935 113 q 1039 147 1019 136 l 1058 158 l 1107 78 q 838 -21 997 -21 q 607 86 679 -21 q 372 -21 504 -21 q 118 72 207 -21 q 29 339 29 165 q 118 606 29 513 q 372 699 207 699 q 607 590 507 699 m 466 524 q 452 552 466 524 q 372 581 438 581 q 278 524 307 581 q 250 339 250 467 q 278 154 250 211 q 372 97 307 97 q 466 154 438 97 q 494 339 494 211 q 466 524 494 467 m 814 589 q 717 410 722 589 l 900 419 q 901 431 901 428 q 814 589 901 589 z "},"Ŕ":{"ha":918,"x_min":63,"x_max":919,"o":"m 214 979 l 500 993 q 736 915 647 993 q 825 700 825 836 q 779 546 825 614 q 656 436 733 478 q 804 182 699 350 l 853 104 l 919 99 l 913 -7 q 647 0 804 0 q 579 161 597 128 l 464 385 l 443 385 q 382 389 417 385 l 382 268 q 394 107 382 194 l 485 99 l 478 -7 q 208 0 365 0 l 69 -7 l 63 90 l 154 107 l 167 226 l 167 711 q 154 865 167 747 l 64 882 l 71 986 q 214 979 144 979 m 419 879 q 390 878 403 879 q 382 753 382 794 l 382 501 l 415 501 q 557 550 513 501 q 601 697 601 599 q 419 879 601 879 m 626 1247 l 676 1131 q 451 1067 478 1075 l 349 1014 l 297 1103 l 626 1247 z "},"ŕ":{"ha":636,"x_min":24,"x_max":617,"o":"m 503 699 q 600 689 547 699 l 617 685 l 596 406 l 493 410 l 493 486 q 482 558 493 492 q 474 560 479 560 q 377 508 418 560 q 336 368 336 457 l 336 268 q 344 132 336 197 l 349 107 l 464 99 l 457 -7 q 194 0 351 0 l 42 -7 l 35 90 l 129 107 q 142 226 142 199 l 142 451 l 128 572 l 24 596 l 36 700 q 199 686 140 686 l 265 689 l 294 663 l 307 571 q 503 699 389 699 m 471 1049 l 536 943 q 342 853 367 865 l 249 785 l 183 865 l 471 1049 z "},"Ŗ":{"ha":918,"x_min":63,"x_max":919,"o":"m 214 979 l 500 993 q 736 915 647 993 q 825 700 825 836 q 779 546 825 614 q 656 436 733 478 q 804 182 699 350 l 853 104 l 919 99 l 913 -7 q 647 0 804 0 q 579 161 597 128 l 464 385 l 443 385 q 382 389 417 385 l 382 268 q 394 107 382 194 l 485 99 l 478 -7 q 208 0 365 0 l 69 -7 l 63 90 l 154 107 l 167 226 l 167 711 q 154 865 167 747 l 64 882 l 71 986 q 214 979 144 979 m 419 879 q 390 878 403 879 q 382 753 382 794 l 382 501 l 415 501 q 557 550 513 501 q 601 697 601 599 q 419 879 601 879 m 492 -250 q 435 -181 435 -231 q 461 -106 435 -131 q 527 -81 488 -81 q 591 -108 567 -81 q 615 -178 615 -136 q 594 -269 615 -221 q 551 -350 572 -318 l 531 -381 l 467 -364 q 492 -250 492 -287 z "},"ŗ":{"ha":636,"x_min":24,"x_max":617,"o":"m 503 699 q 600 689 547 699 l 617 685 l 596 406 l 493 410 l 493 486 q 482 558 493 492 q 474 560 479 560 q 377 508 418 560 q 336 368 336 457 l 336 268 q 344 132 336 197 l 349 107 l 464 99 l 457 -7 q 194 0 351 0 l 42 -7 l 35 90 l 129 107 q 142 226 142 199 l 142 451 l 128 572 l 24 596 l 36 700 q 199 686 140 686 l 265 689 l 294 663 l 307 571 q 503 699 389 699 m 214 -250 q 157 -181 157 -231 q 183 -106 157 -131 q 249 -81 210 -81 q 313 -108 289 -81 q 338 -178 338 -136 q 317 -269 338 -221 q 275 -350 296 -318 l 253 -381 l 189 -364 q 214 -250 214 -287 z "},"Ř":{"ha":918,"x_min":63,"x_max":919,"o":"m 214 979 l 500 993 q 736 915 647 993 q 825 700 825 836 q 779 546 825 614 q 656 436 733 478 q 804 182 699 350 l 853 104 l 919 99 l 913 -7 q 647 0 804 0 q 579 161 597 128 l 464 385 l 443 385 q 382 389 417 385 l 382 268 q 394 107 382 194 l 485 99 l 478 -7 q 208 0 365 0 l 69 -7 l 63 90 l 154 107 l 167 226 l 167 711 q 154 865 167 747 l 64 882 l 71 986 q 214 979 144 979 m 419 879 q 390 878 403 879 q 382 753 382 794 l 382 501 l 415 501 q 557 550 513 501 q 601 697 601 599 q 419 879 601 879 m 669 1290 l 735 1210 l 460 1025 l 185 1210 l 250 1290 l 343 1222 l 460 1165 l 576 1222 l 669 1290 z "},"ř":{"ha":636,"x_min":24,"x_max":617,"o":"m 503 699 q 600 689 547 699 l 617 685 l 596 406 l 493 410 l 493 486 q 482 558 493 492 q 474 560 479 560 q 377 508 418 560 q 336 368 336 457 l 336 268 q 344 132 336 197 l 349 107 l 464 99 l 457 -7 q 194 0 351 0 l 42 -7 l 35 90 l 129 107 q 142 226 142 199 l 142 451 l 128 572 l 24 596 l 36 700 q 199 686 140 686 l 265 689 l 294 663 l 307 571 q 503 699 389 699 m 129 1063 l 222 989 q 244 975 228 986 q 332 924 269 960 q 442 989 415 976 l 535 1063 l 607 982 l 332 783 l 57 982 l 129 1063 z "},"Ś":{"ha":796,"x_min":61,"x_max":742,"o":"m 197 307 q 199 213 199 226 q 218 153 199 200 q 361 114 292 114 q 472 144 431 114 q 513 226 513 174 q 480 315 513 278 q 398 376 447 353 q 292 430 349 399 q 185 494 235 461 q 103 587 136 528 q 71 724 71 646 q 162 925 71 850 q 394 1000 253 1000 q 703 950 536 1000 l 683 682 l 568 689 l 568 792 q 551 839 568 799 q 434 871 493 871 q 338 841 375 871 q 300 760 300 811 q 346 669 300 708 q 456 601 392 631 q 585 536 521 572 q 696 436 650 500 q 742 283 742 372 q 640 62 742 144 q 385 -21 539 -21 q 220 -4 301 -21 q 100 29 139 13 l 61 46 l 82 314 l 197 307 m 569 1247 l 619 1131 q 394 1067 421 1075 l 292 1014 l 240 1103 l 569 1247 z "},"ś":{"ha":585,"x_min":42,"x_max":558,"o":"m 46 492 q 115 647 46 594 q 303 699 185 699 q 528 665 422 699 l 511 446 l 418 453 l 418 513 q 399 565 418 526 q 301 588 349 588 q 211 535 211 588 q 247 487 211 507 q 334 448 283 467 q 435 404 385 429 q 522 328 486 379 q 558 203 558 276 q 485 42 558 99 q 288 -14 413 -14 q 81 11 204 -14 l 42 18 l 58 247 l 157 240 l 157 178 q 160 161 157 174 q 165 142 164 149 q 169 126 167 135 q 287 96 244 96 q 355 112 329 96 q 381 156 381 128 q 346 206 381 185 q 263 246 311 228 q 165 290 214 264 q 81 367 115 315 q 46 492 46 418 m 432 1049 l 497 943 q 303 853 328 865 l 210 785 l 144 865 l 432 1049 z "},"Ŝ":{"ha":796,"x_min":61,"x_max":742,"o":"m 197 307 q 199 213 199 226 q 218 153 199 200 q 361 114 292 114 q 472 144 431 114 q 513 226 513 174 q 480 315 513 278 q 398 376 447 353 q 292 430 349 399 q 185 494 235 461 q 103 587 136 528 q 71 724 71 646 q 162 925 71 850 q 394 1000 253 1000 q 703 950 536 1000 l 683 682 l 568 689 l 568 792 q 551 839 568 799 q 434 871 493 871 q 338 841 375 871 q 300 760 300 811 q 346 669 300 708 q 456 601 392 631 q 585 536 521 572 q 696 436 650 500 q 742 283 742 372 q 640 62 742 144 q 385 -21 539 -21 q 220 -4 301 -21 q 100 29 139 13 l 61 46 l 82 314 l 197 307 m 403 1303 l 678 1118 l 613 1038 l 519 1106 l 403 1163 l 286 1106 l 193 1038 l 128 1118 l 403 1303 z "},"ŝ":{"ha":585,"x_min":18,"x_max":568,"o":"m 46 492 q 115 647 46 594 q 303 699 185 699 q 528 665 422 699 l 511 446 l 418 453 l 418 513 q 399 565 418 526 q 301 588 349 588 q 211 535 211 588 q 247 487 211 507 q 334 448 283 467 q 435 404 385 429 q 522 328 486 379 q 558 203 558 276 q 485 42 558 99 q 288 -14 413 -14 q 81 11 204 -14 l 42 18 l 58 247 l 157 240 l 157 178 q 160 161 157 174 q 165 142 164 149 q 169 126 167 135 q 287 96 244 96 q 355 112 329 96 q 381 156 381 128 q 346 206 381 185 q 263 246 311 228 q 165 290 214 264 q 81 367 115 315 q 46 492 46 418 m 293 1063 l 568 864 l 503 783 l 410 857 q 293 918 354 885 l 176 857 l 83 783 l 18 864 l 293 1063 z "},"Ş":{"ha":796,"x_min":61,"x_max":742,"o":"m 197 307 q 199 213 199 226 q 218 153 199 200 q 361 114 292 114 q 472 144 431 114 q 513 226 513 174 q 480 315 513 278 q 398 376 447 353 q 292 430 349 399 q 185 494 235 461 q 103 587 136 528 q 71 724 71 646 q 162 925 71 850 q 394 1000 253 1000 q 703 950 536 1000 l 683 682 l 568 689 l 568 792 q 551 839 568 799 q 434 871 493 871 q 338 841 375 871 q 300 760 300 811 q 346 669 300 708 q 456 601 392 631 q 585 536 521 572 q 696 436 650 500 q 742 283 742 372 q 654 74 742 154 q 428 -18 567 -6 l 415 -82 q 517 -115 478 -83 q 556 -206 556 -147 q 512 -296 556 -265 q 392 -326 468 -326 q 264 -301 317 -326 l 289 -233 q 365 -249 338 -249 q 431 -203 431 -249 q 372 -160 431 -160 l 343 -161 l 328 -142 l 339 -19 q 197 1 267 -15 q 94 32 128 18 l 61 46 l 82 314 l 197 307 z "},"ş":{"ha":585,"x_min":42,"x_max":558,"o":"m 46 492 q 115 647 46 594 q 303 699 185 699 q 528 665 422 699 l 511 446 l 418 453 l 418 513 q 399 565 418 526 q 301 588 349 588 q 211 535 211 588 q 247 487 211 507 q 334 448 283 467 q 435 404 385 429 q 522 328 486 379 q 558 192 558 276 q 498 53 558 108 q 333 -11 438 -1 l 319 -82 q 421 -115 382 -83 q 460 -206 460 -147 q 416 -296 460 -265 q 297 -326 372 -326 q 168 -301 221 -326 l 193 -233 q 269 -249 242 -249 q 335 -203 335 -249 q 276 -160 335 -160 l 247 -161 l 232 -142 l 244 -12 q 72 11 161 -7 l 42 18 l 58 247 l 157 240 l 157 178 q 160 161 157 174 q 165 142 164 149 q 169 126 167 135 q 287 96 244 96 q 355 112 329 96 q 381 156 381 128 q 346 206 381 185 q 263 246 311 228 q 165 290 214 264 q 81 367 115 315 q 46 492 46 418 z "},"Š":{"ha":796,"x_min":61,"x_max":742,"o":"m 197 307 q 199 213 199 226 q 218 153 199 200 q 361 114 292 114 q 472 144 431 114 q 513 226 513 174 q 480 315 513 278 q 398 376 447 353 q 292 430 349 399 q 185 494 235 461 q 103 587 136 528 q 71 724 71 646 q 162 925 71 850 q 394 1000 253 1000 q 703 950 536 1000 l 683 682 l 568 689 l 568 792 q 551 839 568 799 q 434 871 493 871 q 338 841 375 871 q 300 760 300 811 q 346 669 300 708 q 456 601 392 631 q 585 536 521 572 q 696 436 650 500 q 742 283 742 372 q 640 62 742 144 q 385 -21 539 -21 q 220 -4 301 -21 q 100 29 139 13 l 61 46 l 82 314 l 197 307 m 613 1290 l 678 1210 l 403 1025 l 128 1210 l 193 1290 l 286 1222 l 403 1165 l 519 1222 l 613 1290 z "},"š":{"ha":585,"x_min":18,"x_max":568,"o":"m 46 492 q 115 647 46 594 q 303 699 185 699 q 528 665 422 699 l 511 446 l 418 453 l 418 513 q 399 565 418 526 q 301 588 349 588 q 211 535 211 588 q 247 487 211 507 q 334 448 283 467 q 435 404 385 429 q 522 328 486 379 q 558 203 558 276 q 485 42 558 99 q 288 -14 413 -14 q 81 11 204 -14 l 42 18 l 58 247 l 157 240 l 157 178 q 160 161 157 174 q 165 142 164 149 q 169 126 167 135 q 287 96 244 96 q 355 112 329 96 q 381 156 381 128 q 346 206 381 185 q 263 246 311 228 q 165 290 214 264 q 81 367 115 315 q 46 492 46 418 m 90 1063 l 183 989 q 206 975 189 986 q 293 924 231 960 q 403 989 376 976 l 496 1063 l 568 982 l 293 783 l 18 982 l 90 1063 z "},"Ţ":{"ha":869,"x_min":14,"x_max":857,"o":"m 315 107 l 328 226 l 328 711 q 315 865 328 758 l 250 865 q 139 858 208 865 q 122 812 126 828 q 114 731 118 796 l 14 738 l 24 968 l 50 993 q 208 979 181 979 l 661 979 l 819 993 l 846 968 l 857 738 l 757 731 q 749 812 753 796 q 732 858 744 828 q 626 865 669 865 l 556 865 q 543 753 543 799 l 543 268 q 556 107 543 194 l 646 99 l 639 -7 q 481 0 575 -3 l 464 -82 q 565 -115 526 -83 q 604 -206 604 -147 q 560 -296 604 -265 q 441 -326 517 -326 q 313 -301 365 -326 l 338 -233 q 414 -249 386 -249 q 479 -203 479 -249 q 421 -160 479 -160 l 392 -161 l 376 -142 l 390 0 l 369 0 l 231 -7 l 224 90 l 315 107 z "},"ţ":{"ha":497,"x_min":19,"x_max":506,"o":"m 326 137 q 336 124 326 137 q 379 111 346 111 q 454 139 413 111 l 506 60 q 361 -11 432 0 l 347 -82 q 449 -115 410 -83 q 488 -206 488 -147 q 444 -296 488 -265 q 324 -326 400 -326 q 196 -301 249 -326 l 221 -233 q 297 -249 269 -249 q 363 -203 363 -249 q 304 -160 363 -160 l 275 -161 l 260 -142 l 272 -11 q 150 56 188 0 q 113 217 113 113 l 113 582 l 24 582 l 19 669 q 154 728 149 721 l 231 849 l 307 843 l 307 686 l 472 686 l 460 582 l 307 582 l 307 199 q 326 137 307 163 z "},"Ť":{"ha":869,"x_min":14,"x_max":857,"o":"m 315 107 l 328 226 l 328 711 q 315 865 328 758 l 250 865 q 139 858 208 865 q 122 812 126 828 q 114 731 118 796 l 14 738 l 24 968 l 50 993 q 208 979 181 979 l 661 979 l 819 993 l 846 968 l 857 738 l 757 731 q 749 812 753 796 q 732 858 744 828 q 626 865 669 865 l 556 865 q 543 753 543 799 l 543 268 q 556 107 543 194 l 646 99 l 639 -7 q 369 0 526 0 l 231 -7 l 224 90 l 315 107 m 644 1290 l 710 1210 l 435 1025 l 160 1210 l 225 1290 l 318 1222 l 435 1165 l 551 1222 l 644 1290 z "},"ť":{"ha":497,"x_min":19,"x_max":507,"o":"m 369 1050 l 507 1050 l 489 781 l 381 786 l 382 889 l 369 1050 m 326 137 q 336 124 326 137 q 379 111 346 111 q 454 139 413 111 l 506 60 q 311 -14 413 -14 q 161 42 210 -14 q 113 217 113 99 l 113 582 l 24 582 l 19 669 q 154 728 149 721 l 231 849 l 307 843 l 307 686 l 472 686 l 460 582 l 307 582 l 307 199 q 326 137 307 163 z "},"Ŧ":{"ha":869,"x_min":14,"x_max":857,"o":"m 315 107 l 328 226 l 328 496 l 132 496 l 132 585 l 328 585 l 328 711 q 315 865 328 758 l 250 865 q 139 858 208 865 q 122 812 126 828 q 114 731 118 796 l 14 738 l 24 968 l 50 993 q 208 979 181 979 l 661 979 l 819 993 l 846 968 l 857 738 l 757 731 q 749 812 753 796 q 732 858 744 828 q 626 865 669 865 l 556 865 q 543 753 543 799 l 543 585 l 740 585 l 740 496 l 543 496 l 543 268 q 556 107 543 194 l 646 99 l 639 -7 q 369 0 526 0 l 231 -7 l 224 90 l 315 107 z "},"ŧ":{"ha":497,"x_min":19,"x_max":506,"o":"m 326 137 q 336 124 326 137 q 379 111 346 111 q 454 139 413 111 l 506 60 q 311 -14 413 -14 q 161 42 210 -14 q 113 217 113 99 l 113 371 l 22 371 l 22 460 l 113 460 l 113 582 l 24 582 l 19 669 q 154 728 149 721 l 231 849 l 307 843 l 307 686 l 472 686 l 460 582 l 307 582 l 307 460 l 468 460 l 468 371 l 307 371 l 307 199 q 326 137 307 163 z "},"Ũ":{"ha":1082,"x_min":36,"x_max":1047,"o":"m 943 753 l 943 372 q 839 85 943 190 q 540 -21 735 -21 q 242 85 346 -21 q 139 372 139 190 l 139 711 q 126 865 139 807 l 36 882 l 43 986 q 182 979 117 979 l 458 986 l 465 874 l 374 865 q 361 753 361 819 l 361 361 q 415 201 361 264 q 569 138 468 138 q 715 194 669 138 q 760 361 760 251 l 760 711 q 747 865 760 772 l 657 882 l 664 986 q 803 979 738 979 l 1040 986 l 1047 874 l 956 865 q 943 753 943 807 m 785 1149 q 780 1137 785 1149 q 741 1086 774 1125 q 681 1047 708 1047 q 554 1074 653 1047 q 433 1100 456 1100 q 367 1056 396 1100 l 357 1042 l 292 1081 q 351 1180 314 1133 q 417 1226 389 1226 q 544 1200 444 1226 q 665 1174 643 1174 q 728 1214 703 1174 l 736 1226 l 804 1188 q 785 1149 797 1172 z "},"ũ":{"ha":864,"x_min":24,"x_max":836,"o":"m 740 410 l 740 268 q 750 132 740 219 l 753 107 l 836 99 l 828 -7 q 572 0 760 0 l 560 108 q 358 -6 478 -6 q 176 58 238 -6 q 114 242 114 121 l 114 451 l 100 576 l 24 596 l 36 699 q 192 686 133 686 l 293 689 l 322 663 q 308 410 308 479 l 308 261 q 333 168 308 203 q 412 133 358 133 q 506 185 465 133 q 546 325 546 236 l 546 451 l 532 572 l 428 596 l 440 699 q 603 686 544 686 l 725 689 l 754 663 q 740 410 740 479 m 603 926 q 598 915 603 926 q 559 864 592 903 q 498 825 526 825 q 385 851 469 825 q 278 878 301 878 q 213 833 242 878 l 203 819 l 138 858 q 197 958 160 911 q 263 1004 235 1004 q 376 978 290 1004 q 483 951 461 951 q 546 992 521 951 l 554 1004 l 622 965 q 603 926 615 950 z "},"Ū":{"ha":1082,"x_min":36,"x_max":1047,"o":"m 943 753 l 943 372 q 839 85 943 190 q 540 -21 735 -21 q 242 85 346 -21 q 139 372 139 190 l 139 711 q 126 865 139 807 l 36 882 l 43 986 q 182 979 117 979 l 458 986 l 465 874 l 374 865 q 361 753 361 819 l 361 361 q 415 201 361 264 q 569 138 468 138 q 715 194 669 138 q 760 361 760 251 l 760 711 q 747 865 760 772 l 657 882 l 664 986 q 803 979 738 979 l 1040 986 l 1047 874 l 956 865 q 943 753 943 807 m 318 1071 l 318 1172 l 765 1172 l 756 1071 l 318 1071 z "},"ū":{"ha":864,"x_min":24,"x_max":836,"o":"m 740 410 l 740 268 q 750 132 740 219 l 753 107 l 836 99 l 828 -7 q 572 0 760 0 l 560 108 q 358 -6 478 -6 q 176 58 238 -6 q 114 242 114 121 l 114 451 l 100 576 l 24 596 l 36 699 q 192 686 133 686 l 293 689 l 322 663 q 308 410 308 479 l 308 261 q 333 168 308 203 q 412 133 358 133 q 506 185 465 133 q 546 325 546 236 l 546 451 l 532 572 l 428 596 l 440 699 q 603 686 544 686 l 725 689 l 754 663 q 740 410 740 479 m 208 828 l 208 929 l 656 929 l 646 828 l 208 828 z "},"Ŭ":{"ha":1082,"x_min":36,"x_max":1047,"o":"m 943 753 l 943 372 q 839 85 943 190 q 540 -21 735 -21 q 242 85 346 -21 q 139 372 139 190 l 139 711 q 126 865 139 807 l 36 882 l 43 986 q 182 979 117 979 l 458 986 l 465 874 l 374 865 q 361 753 361 819 l 361 361 q 415 201 361 264 q 569 138 468 138 q 715 194 669 138 q 760 361 760 251 l 760 711 q 747 865 760 772 l 657 882 l 664 986 q 803 979 738 979 l 1040 986 l 1047 874 l 956 865 q 943 753 943 807 m 664 1247 l 756 1247 q 698 1088 756 1144 q 542 1032 640 1032 q 385 1088 443 1032 q 328 1247 328 1144 l 419 1247 q 453 1167 419 1196 q 542 1138 488 1138 q 630 1167 596 1138 q 664 1247 664 1196 z "},"ŭ":{"ha":864,"x_min":24,"x_max":836,"o":"m 740 410 l 740 268 q 750 132 740 219 l 753 107 l 836 99 l 828 -7 q 572 0 760 0 l 560 108 q 358 -6 478 -6 q 176 58 238 -6 q 114 242 114 121 l 114 451 l 100 576 l 24 596 l 36 699 q 192 686 133 686 l 293 689 l 322 663 q 308 410 308 479 l 308 261 q 333 168 308 203 q 412 133 358 133 q 506 185 465 133 q 546 325 546 236 l 546 451 l 532 572 l 428 596 l 440 699 q 603 686 544 686 l 725 689 l 754 663 q 740 410 740 479 m 540 1010 l 632 1010 q 574 851 632 907 q 418 794 517 794 q 262 851 319 794 q 204 1010 204 907 l 296 1010 q 330 929 296 958 q 418 900 364 900 q 506 929 472 900 q 540 1010 540 958 z "},"Ů":{"ha":1082,"x_min":36,"x_max":1047,"o":"m 943 753 l 943 372 q 839 85 943 190 q 540 -21 735 -21 q 242 85 346 -21 q 139 372 139 190 l 139 711 q 126 865 139 807 l 36 882 l 43 986 q 182 979 117 979 l 458 986 l 465 874 l 374 865 q 361 753 361 819 l 361 361 q 415 201 361 264 q 569 138 468 138 q 715 194 669 138 q 760 361 760 251 l 760 711 q 747 865 760 772 l 657 882 l 664 986 q 803 979 738 979 l 1040 986 l 1047 874 l 956 865 q 943 753 943 807 m 439 1250 q 457 1268 439 1250 q 542 1286 475 1286 q 644 1251 608 1286 q 679 1153 679 1215 q 644 1056 679 1092 q 542 1021 608 1021 q 439 1056 475 1021 q 403 1153 403 1092 q 439 1250 403 1214 m 586 1153 q 586 1180 586 1153 q 542 1206 586 1206 q 499 1153 499 1206 q 542 1101 499 1101 q 586 1153 586 1101 z "},"ů":{"ha":864,"x_min":24,"x_max":836,"o":"m 740 410 l 740 268 q 750 132 740 219 l 753 107 l 836 99 l 828 -7 q 572 0 760 0 l 560 108 q 358 -6 478 -6 q 176 58 238 -6 q 114 242 114 121 l 114 451 l 100 576 l 24 596 l 36 699 q 192 686 133 686 l 293 689 l 322 663 q 308 410 308 479 l 308 261 q 333 168 308 203 q 412 133 358 133 q 506 185 465 133 q 546 325 546 236 l 546 451 l 532 572 l 428 596 l 440 699 q 603 686 544 686 l 725 689 l 754 663 q 740 410 740 479 m 279 924 q 279 955 279 924 q 315 1022 279 986 q 417 1057 350 1057 q 520 1022 485 1057 q 556 924 556 986 q 520 827 556 863 q 418 792 485 792 q 315 827 351 792 q 279 924 279 863 m 463 924 q 463 950 463 924 q 419 976 463 976 q 375 924 375 976 q 419 872 375 872 q 463 924 463 872 z "},"Ű":{"ha":1082,"x_min":36,"x_max":1047,"o":"m 943 753 l 943 372 q 839 85 943 190 q 540 -21 735 -21 q 242 85 346 -21 q 139 372 139 190 l 139 711 q 126 865 139 807 l 36 882 l 43 986 q 182 979 117 979 l 458 986 l 465 874 l 374 865 q 361 753 361 819 l 361 361 q 415 201 361 264 q 569 138 468 138 q 715 194 669 138 q 760 361 760 251 l 760 711 q 747 865 760 772 l 657 882 l 664 986 q 803 979 738 979 l 1040 986 l 1047 874 l 956 865 q 943 753 943 807 m 585 1275 l 635 1165 q 415 1075 442 1083 l 313 1019 l 258 1107 l 585 1275 m 897 1268 l 947 1151 q 722 1072 749 1081 l 619 1019 l 569 1106 l 897 1268 z "},"ű":{"ha":864,"x_min":24,"x_max":836,"o":"m 740 410 l 740 268 q 750 132 740 219 l 753 107 l 836 99 l 828 -7 q 572 0 760 0 l 560 108 q 358 -6 478 -6 q 176 58 238 -6 q 114 242 114 121 l 114 451 l 100 576 l 24 596 l 36 699 q 192 686 133 686 l 293 689 l 322 663 q 308 410 308 479 l 308 261 q 333 168 308 203 q 412 133 358 133 q 506 185 465 133 q 546 325 546 236 l 546 451 l 532 572 l 428 596 l 440 699 q 603 686 544 686 l 725 689 l 754 663 q 740 410 740 479 m 736 1058 l 803 951 q 592 853 617 865 l 499 785 l 433 865 l 736 1058 m 478 1058 l 535 967 q 333 853 358 869 l 240 785 l 175 865 l 478 1058 z "},"Ų":{"ha":1082,"x_min":36,"x_max":1047,"o":"m 943 753 l 943 372 q 869 121 943 221 q 656 -8 796 21 q 592 -118 592 -56 q 608 -166 592 -147 q 650 -185 624 -185 q 701 -175 676 -185 l 726 -242 q 594 -274 663 -274 q 484 -242 525 -274 q 443 -144 443 -211 q 518 -21 443 -78 q 236 90 333 -15 q 139 372 139 194 l 139 711 q 126 865 139 807 l 36 882 l 43 986 q 182 979 117 979 l 458 986 l 465 874 l 374 865 q 361 753 361 819 l 361 361 q 415 201 361 264 q 569 138 468 138 q 715 194 669 138 q 760 361 760 251 l 760 711 q 747 865 760 772 l 657 882 l 664 986 q 803 979 738 979 l 1040 986 l 1047 874 l 956 865 q 943 753 943 807 z "},"ų":{"ha":864,"x_min":24,"x_max":836,"o":"m 740 410 l 740 268 q 750 132 740 219 l 753 107 l 836 99 l 828 -7 q 690 0 786 -3 q 614 -118 614 -54 q 630 -166 614 -147 q 672 -185 646 -185 q 724 -175 699 -185 l 749 -242 q 616 -274 685 -274 q 506 -242 547 -274 q 465 -156 465 -211 q 494 -66 465 -100 q 572 1 522 -32 l 560 108 q 358 -6 478 -6 q 176 58 238 -6 q 114 242 114 121 l 114 451 l 100 576 l 24 596 l 36 699 q 192 686 133 686 l 293 689 l 322 663 q 308 410 308 479 l 308 261 q 333 168 308 203 q 412 133 358 133 q 506 185 465 133 q 546 325 546 236 l 546 451 l 532 572 l 428 596 l 440 699 q 603 686 544 686 l 725 689 l 754 663 q 740 410 740 479 z "},"Ŵ":{"ha":1429,"x_min":3,"x_max":1422,"o":"m 343 872 q 342 846 342 864 q 349 800 342 828 l 474 288 l 658 938 l 815 938 l 997 288 l 1138 819 q 1140 872 1146 847 l 1051 889 l 1058 986 q 1211 979 1146 979 l 1415 986 l 1422 885 l 1353 875 q 1297 756 1315 811 l 1056 0 l 896 0 l 718 588 l 532 0 l 372 0 l 118 801 l 86 876 l 3 889 l 10 986 q 138 979 86 979 l 426 986 l 433 885 l 343 872 m 715 1261 l 990 1076 l 925 996 l 832 1064 l 715 1121 l 599 1064 l 506 996 l 440 1076 l 715 1261 z "},"ŵ":{"ha":1157,"x_min":3,"x_max":1150,"o":"m 1150 594 l 1090 586 q 1025 443 1033 465 l 863 0 l 682 0 l 579 335 l 467 0 l 288 0 q 118 490 132 447 q 79 588 104 532 l 3 603 l 10 699 q 203 686 106 686 l 374 693 l 381 594 l 289 589 q 308 490 307 497 l 386 206 l 533 686 l 656 686 l 785 206 l 875 493 q 900 589 885 521 l 819 594 l 826 693 q 1024 686 926 686 l 1143 693 l 1150 594 m 579 1063 l 854 864 l 789 783 l 696 857 q 579 918 640 885 l 463 857 l 369 783 l 304 864 l 579 1063 z "},"Ŷ":{"ha":989,"x_min":-8,"x_max":986,"o":"m 376 107 l 389 226 l 389 346 l 142 801 q 88 865 125 832 l 75 876 l -8 889 l -1 986 q 126 979 75 979 l 415 986 l 422 885 l 349 872 q 372 800 358 826 l 518 513 l 671 819 l 676 872 l 615 889 l 622 986 q 775 979 710 979 l 979 986 l 986 885 l 903 875 q 817 756 840 800 l 604 347 l 604 268 q 617 107 604 194 l 707 99 l 700 -7 q 431 0 588 0 l 292 -7 l 285 90 l 376 107 m 494 1303 l 769 1118 l 704 1038 l 611 1106 l 494 1163 l 378 1106 l 285 1038 l 219 1118 l 494 1303 z "},"ŷ":{"ha":793,"x_min":6,"x_max":789,"o":"m 418 219 l 503 497 q 519 588 517 540 l 458 594 l 467 693 q 632 686 542 686 l 783 693 l 789 594 l 721 588 q 663 456 690 535 l 360 -326 l 85 -308 l 100 -199 l 176 -201 q 238 -193 211 -201 q 281 -115 264 -162 l 324 0 l 151 451 q 93 588 111 554 l 6 603 l 14 699 q 207 686 117 686 l 364 693 l 369 594 l 311 588 q 331 494 317 535 l 418 219 m 397 1063 l 672 864 l 607 783 l 514 857 q 397 918 458 885 l 281 857 l 188 783 l 122 864 l 397 1063 z "},"Ÿ":{"ha":989,"x_min":-8,"x_max":986,"o":"m 376 107 l 389 226 l 389 346 l 142 801 q 88 865 125 832 l 75 876 l -8 889 l -1 986 q 126 979 75 979 l 415 986 l 422 885 l 349 872 q 372 800 358 826 l 518 513 l 671 819 l 676 872 l 615 889 l 622 986 q 775 979 710 979 l 979 986 l 986 885 l 903 875 q 817 756 840 800 l 604 347 l 604 268 q 617 107 604 194 l 707 99 l 700 -7 q 431 0 588 0 l 292 -7 l 285 90 l 376 107 m 261 1218 q 274 1231 261 1218 q 331 1244 286 1244 q 399 1219 375 1244 q 424 1148 424 1193 q 399 1077 424 1103 q 331 1051 375 1051 q 261 1078 286 1051 q 236 1148 236 1104 q 261 1218 236 1192 m 591 1218 q 603 1231 591 1218 q 660 1244 615 1244 q 728 1219 704 1244 q 753 1148 753 1193 q 728 1077 753 1103 q 660 1051 704 1051 q 591 1077 615 1051 q 567 1147 567 1103 q 591 1218 567 1192 z "},"Ź":{"ha":849,"x_min":44,"x_max":803,"o":"m 299 856 q 183 849 253 856 l 165 810 q 144 704 150 753 l 44 711 l 54 968 l 82 993 q 242 979 214 979 l 768 979 l 782 868 l 633 644 l 417 294 l 328 124 l 546 124 q 663 135 604 124 q 697 222 689 189 q 708 282 706 256 l 803 275 l 782 19 l 754 -6 q 594 0 622 0 l 58 0 l 44 111 q 199 329 165 272 l 442 717 l 511 856 l 299 856 m 592 1247 l 642 1131 q 417 1067 443 1075 l 314 1014 l 263 1103 l 592 1247 z "},"ź":{"ha":639,"x_min":29,"x_max":626,"o":"m 196 686 l 594 686 l 604 590 l 497 454 l 331 197 q 286 111 317 178 l 399 111 q 446 118 406 111 q 499 126 486 125 q 526 201 521 178 q 531 246 531 224 l 626 238 l 611 24 l 583 -4 q 453 0 481 0 l 49 0 l 29 97 q 146 233 126 203 l 315 489 q 361 575 333 514 l 251 575 q 210 568 246 575 q 161 560 174 561 q 143 501 143 519 l 138 422 l 32 426 l 39 663 l 68 690 q 196 686 168 686 m 444 1049 l 510 943 q 315 853 340 865 l 222 785 l 157 865 l 444 1049 z "},"Ż":{"ha":849,"x_min":44,"x_max":803,"o":"m 299 856 q 183 849 253 856 l 165 810 q 144 704 150 753 l 44 711 l 54 968 l 82 993 q 242 979 214 979 l 768 979 l 782 868 l 633 644 l 417 294 l 328 124 l 546 124 q 663 135 604 124 q 697 222 689 189 q 708 282 706 256 l 803 275 l 782 19 l 754 -6 q 594 0 622 0 l 58 0 l 44 111 q 199 329 165 272 l 442 717 l 511 856 l 299 856 m 344 1226 q 359 1242 344 1226 q 425 1257 374 1257 q 506 1227 476 1257 q 535 1147 535 1197 q 506 1066 535 1096 q 425 1036 478 1036 q 344 1066 372 1036 q 315 1146 315 1096 q 344 1226 315 1196 z "},"ż":{"ha":639,"x_min":29,"x_max":626,"o":"m 196 686 l 594 686 l 604 590 l 497 454 l 331 197 q 286 111 317 178 l 399 111 q 446 118 406 111 q 499 126 486 125 q 526 201 521 178 q 531 246 531 224 l 626 238 l 611 24 l 583 -4 q 453 0 481 0 l 49 0 l 29 97 q 146 233 126 203 l 315 489 q 361 575 333 514 l 251 575 q 210 568 246 575 q 161 560 174 561 q 143 501 143 519 l 138 422 l 32 426 l 39 663 l 68 690 q 196 686 168 686 m 225 990 q 240 1006 225 990 q 306 1021 254 1021 q 386 991 357 1021 q 415 910 415 961 q 387 830 415 860 q 306 800 358 800 q 224 830 253 800 q 196 910 196 860 q 225 990 196 960 z "},"Ž":{"ha":849,"x_min":44,"x_max":803,"o":"m 299 856 q 183 849 253 856 l 165 810 q 144 704 150 753 l 44 711 l 54 968 l 82 993 q 242 979 214 979 l 768 979 l 782 868 l 633 644 l 417 294 l 328 124 l 546 124 q 663 135 604 124 q 697 222 689 189 q 708 282 706 256 l 803 275 l 782 19 l 754 -6 q 594 0 622 0 l 58 0 l 44 111 q 199 329 165 272 l 442 717 l 511 856 l 299 856 m 635 1290 l 700 1210 l 425 1025 l 150 1210 l 215 1290 l 308 1222 l 425 1165 l 542 1222 l 635 1290 z "},"ž":{"ha":639,"x_min":29,"x_max":626,"o":"m 196 686 l 594 686 l 604 590 l 497 454 l 331 197 q 286 111 317 178 l 399 111 q 446 118 406 111 q 499 126 486 125 q 526 201 521 178 q 531 246 531 224 l 626 238 l 611 24 l 583 -4 q 453 0 481 0 l 49 0 l 29 97 q 146 233 126 203 l 315 489 q 361 575 333 514 l 251 575 q 210 568 246 575 q 161 560 174 561 q 143 501 143 519 l 138 422 l 32 426 l 39 663 l 68 690 q 196 686 168 686 m 103 1063 l 196 989 q 218 975 201 986 q 306 924 243 960 q 415 989 389 976 l 508 1063 l 581 982 l 306 783 l 31 982 l 103 1063 z "},"ƒ":{"ha":535,"x_min":7,"x_max":589,"o":"m 385 1069 q 558 1056 469 1069 l 589 1050 l 568 818 l 464 822 l 465 885 l 460 946 q 409 957 435 957 q 367 946 383 957 q 344 908 351 935 q 328 778 331 860 l 324 686 l 490 686 l 478 582 l 321 582 l 300 -29 q 219 -205 294 -140 q 7 -269 143 -269 l 10 -161 q 85 -120 68 -161 q 106 14 103 -79 l 126 582 l 49 582 l 44 669 q 131 697 115 690 l 136 829 q 206 1005 140 940 q 385 1069 271 1069 z "},"Ơ":{"ha":1067,"x_min":38,"x_max":1097,"o":"m 1071 1115 q 1097 992 1097 1056 q 1060 886 1097 929 q 922 831 1024 843 q 1029 489 1029 693 q 894 114 1029 254 q 533 -26 760 -26 q 172 114 307 -26 q 38 490 38 254 q 172 865 38 725 q 533 1006 307 1006 q 844 908 717 1006 q 954 969 954 910 q 931 1058 954 1010 l 922 1076 l 1071 1115 m 533 871 q 471 871 533 871 q 348 777 408 871 q 288 490 288 683 q 348 202 288 296 q 533 108 408 108 q 719 202 658 108 q 779 490 779 296 q 719 777 779 683 q 533 871 658 871 z "},"ơ":{"ha":756,"x_min":35,"x_max":842,"o":"m 815 829 q 842 707 842 769 q 807 602 842 644 q 675 546 772 560 q 721 339 721 463 q 632 72 721 165 q 378 -21 543 -21 q 124 72 213 -21 q 35 339 35 165 q 124 606 35 513 q 369 699 213 699 q 613 624 525 699 q 699 683 699 632 q 675 772 699 718 l 667 790 l 815 829 m 472 154 q 486 183 472 154 q 500 339 500 211 q 472 524 500 467 q 378 581 443 581 q 284 524 313 581 q 256 339 256 467 q 284 154 256 211 q 378 97 313 97 q 472 154 443 97 z "},"Ư":{"ha":1104,"x_min":36,"x_max":1160,"o":"m 1160 1079 q 1115 935 1160 985 q 956 879 1069 885 q 943 753 943 813 l 943 372 q 839 85 943 190 q 540 -21 735 -21 q 242 85 346 -21 q 139 372 139 190 l 139 711 q 126 865 139 807 l 36 882 l 43 986 q 182 979 117 979 l 458 986 l 465 874 l 374 865 q 361 753 361 819 l 361 361 q 415 201 361 264 q 569 138 468 138 q 715 194 669 138 q 760 361 760 251 l 760 711 q 747 865 760 772 l 657 882 l 664 986 q 820 979 738 979 q 947 985 903 979 q 1004 1002 992 990 q 1017 1036 1017 1014 q 992 1131 1017 1076 l 985 1149 l 1133 1188 q 1160 1079 1160 1128 z "},"ư":{"ha":864,"x_min":24,"x_max":915,"o":"m 889 893 q 915 771 915 833 q 881 666 915 708 q 750 610 846 624 q 740 410 740 474 l 740 268 q 750 132 740 219 l 753 107 l 836 99 l 828 -7 q 572 0 760 0 l 560 108 q 358 -6 478 -6 q 176 58 238 -6 q 114 242 114 121 l 114 451 l 100 576 l 24 596 l 36 699 q 192 686 133 686 l 293 689 l 322 663 q 308 410 308 479 l 308 261 q 333 168 308 203 q 412 133 358 133 q 506 185 465 133 q 546 325 546 236 l 546 451 l 532 572 l 428 596 l 440 699 q 603 686 544 686 l 692 688 q 772 747 772 697 q 747 836 772 782 l 740 854 l 889 893 z "},"Ǎ":{"ha":926,"x_min":1,"x_max":928,"o":"m 928 90 l 921 -7 q 804 0 853 0 l 521 -7 l 514 94 l 596 107 l 589 179 l 569 249 l 307 249 l 283 160 l 275 107 l 356 90 l 349 -7 q 201 0 267 0 l 8 -7 l 1 94 l 64 104 l 122 224 l 385 979 l 540 994 l 818 178 l 850 103 l 928 90 m 674 1304 l 739 1224 l 464 1039 l 189 1224 l 254 1304 l 347 1236 l 464 1179 l 581 1236 l 674 1304 m 444 692 l 344 363 l 533 365 l 444 692 z "},"ǎ":{"ha":726,"x_min":39,"x_max":710,"o":"m 243 -14 q 94 39 149 -14 q 39 183 39 92 q 222 375 39 346 l 419 407 l 419 447 q 396 544 419 515 q 315 572 372 572 q 203 546 258 572 l 193 490 l 194 431 l 90 426 l 69 661 q 324 699 219 699 q 538 633 461 699 q 614 449 614 567 l 614 268 q 622 132 614 197 l 626 107 l 710 99 l 701 -7 q 446 0 633 0 l 435 100 q 243 -14 372 -14 m 133 1063 l 226 989 q 249 975 232 986 q 336 924 274 960 q 446 989 419 976 l 539 1063 l 611 982 l 336 783 l 61 982 l 133 1063 m 244 214 q 319 129 244 129 q 382 153 356 129 q 419 218 408 176 l 419 317 l 317 300 q 261 273 278 293 q 244 214 244 253 z "},"Ǐ":{"ha":563,"x_min":7,"x_max":557,"o":"m 161 107 l 174 226 l 174 711 q 161 865 174 765 l 71 882 l 78 986 q 217 979 151 979 l 486 986 l 493 874 l 401 865 q 389 753 389 803 l 389 268 q 401 107 389 194 l 492 99 l 485 -7 q 215 0 372 0 l 76 -7 l 69 90 l 161 107 m 492 1290 l 557 1210 l 282 1025 l 7 1210 l 72 1290 l 165 1222 l 282 1165 l 399 1222 l 492 1290 z "},"ǐ":{"ha":467,"x_min":-42,"x_max":508,"o":"m 146 226 l 146 451 l 132 572 l 28 596 l 40 699 q 203 686 144 686 l 325 689 l 354 663 q 340 410 340 479 l 340 268 q 350 132 340 219 l 353 107 l 443 99 l 436 -7 q 188 0 344 0 l 49 -7 l 42 90 l 133 107 q 146 226 146 199 m 31 1063 l 124 989 q 146 975 129 986 q 233 924 171 960 q 343 989 317 976 l 436 1063 l 508 982 l 233 783 l -42 982 l 31 1063 z "},"Ǒ":{"ha":1067,"x_min":38,"x_max":1029,"o":"m 533 1006 q 647 1006 533 1006 q 894 865 760 1006 q 1029 490 1029 725 q 894 114 1029 254 q 533 -26 760 -26 q 172 114 307 -26 q 38 490 38 254 q 172 865 38 725 q 533 1006 307 1006 m 533 871 q 471 871 533 871 q 348 777 408 871 q 288 490 288 683 q 348 202 288 296 q 533 108 408 108 q 719 202 658 108 q 779 490 779 296 q 719 777 779 683 q 533 871 658 871 m 742 1290 l 807 1210 l 532 1025 l 257 1210 l 322 1290 l 415 1222 l 532 1165 l 649 1222 l 742 1290 z "},"ǒ":{"ha":756,"x_min":35,"x_max":721,"o":"m 632 606 q 676 559 632 606 q 721 339 721 513 q 632 72 721 165 q 378 -21 543 -21 q 124 72 213 -21 q 35 339 35 165 q 124 606 35 513 q 378 699 213 699 q 632 606 543 699 m 472 154 q 486 183 472 154 q 500 339 500 211 q 472 524 500 467 q 378 581 443 581 q 284 524 313 581 q 256 339 256 467 q 284 154 256 211 q 378 97 313 97 q 472 154 443 97 m 175 1063 l 268 989 q 290 975 274 986 q 378 924 315 960 q 488 989 461 976 l 581 1063 l 653 982 l 378 783 l 103 982 l 175 1063 z "},"Ǔ":{"ha":1082,"x_min":36,"x_max":1047,"o":"m 943 753 l 943 372 q 839 85 943 190 q 540 -21 735 -21 q 242 85 346 -21 q 139 372 139 190 l 139 711 q 126 865 139 807 l 36 882 l 43 986 q 182 979 117 979 l 458 986 l 465 874 l 374 865 q 361 753 361 819 l 361 361 q 415 201 361 264 q 569 138 468 138 q 715 194 669 138 q 760 361 760 251 l 760 711 q 747 865 760 772 l 657 882 l 664 986 q 803 979 738 979 l 1040 986 l 1047 874 l 956 865 q 943 753 943 807 m 765 1290 l 831 1210 l 556 1025 l 281 1210 l 346 1290 l 439 1222 l 556 1165 l 672 1222 l 765 1290 z "},"ǔ":{"ha":864,"x_min":24,"x_max":836,"o":"m 740 410 l 740 268 q 750 132 740 219 l 753 107 l 836 99 l 828 -7 q 572 0 760 0 l 560 108 q 358 -6 478 -6 q 176 58 238 -6 q 114 242 114 121 l 114 451 l 100 576 l 24 596 l 36 699 q 192 686 133 686 l 293 689 l 322 663 q 308 410 308 479 l 308 261 q 333 168 308 203 q 412 133 358 133 q 506 185 465 133 q 546 325 546 236 l 546 451 l 532 572 l 428 596 l 440 699 q 603 686 544 686 l 725 689 l 754 663 q 740 410 740 479 m 229 1063 l 322 989 q 344 975 328 986 q 432 924 369 960 q 542 989 515 976 l 635 1063 l 707 982 l 432 783 l 157 982 l 229 1063 z "},"Ǖ":{"ha":1082,"x_min":36,"x_max":1047,"o":"m 943 753 l 943 372 q 839 85 943 190 q 540 -21 735 -21 q 242 85 346 -21 q 139 372 139 190 l 139 711 q 126 865 139 807 l 36 882 l 43 986 q 182 979 117 979 l 458 986 l 465 874 l 374 865 q 361 753 361 819 l 361 361 q 415 201 361 264 q 569 138 468 138 q 715 194 669 138 q 760 361 760 251 l 760 711 q 747 865 760 772 l 657 882 l 664 986 q 803 979 738 979 l 1040 986 l 1047 874 l 956 865 q 943 753 943 807 m 585 1123 q 585 1143 585 1123 q 608 1188 585 1164 q 673 1211 632 1211 q 738 1187 714 1211 q 761 1122 761 1163 q 738 1058 761 1082 q 672 1035 714 1035 q 608 1058 631 1035 q 585 1123 585 1082 m 322 1123 q 322 1143 322 1123 q 346 1188 322 1164 q 410 1211 369 1211 q 474 1187 451 1211 q 497 1122 497 1163 q 474 1058 497 1082 q 410 1035 451 1035 q 345 1058 368 1035 q 322 1123 322 1082 m 346 1267 l 346 1368 l 738 1368 l 728 1267 l 346 1267 z "},"ǖ":{"ha":864,"x_min":24,"x_max":836,"o":"m 740 410 l 740 268 q 750 132 740 219 l 753 107 l 836 99 l 828 -7 q 572 0 760 0 l 560 108 q 358 -6 478 -6 q 176 58 238 -6 q 114 242 114 121 l 114 451 l 100 576 l 24 596 l 36 699 q 192 686 133 686 l 293 689 l 322 663 q 308 410 308 479 l 308 261 q 333 168 308 203 q 412 133 358 133 q 506 185 465 133 q 546 325 546 236 l 546 451 l 532 572 l 428 596 l 440 699 q 603 686 544 686 l 725 689 l 754 663 q 740 410 740 479 m 461 830 q 461 850 461 830 q 485 894 461 871 q 549 918 508 918 q 614 894 590 918 q 638 829 638 869 q 614 765 638 789 q 549 742 590 742 q 484 765 507 742 q 461 830 461 789 m 199 830 q 199 850 199 830 q 222 894 199 871 q 287 918 246 918 q 351 894 328 918 q 374 829 374 869 q 351 765 374 789 q 286 742 328 742 q 222 765 244 742 q 199 830 199 789 m 222 974 l 222 1075 l 614 1075 l 604 974 l 222 974 z "},"Ǘ":{"ha":1082,"x_min":36,"x_max":1047,"o":"m 943 753 l 943 372 q 839 85 943 190 q 540 -21 735 -21 q 242 85 346 -21 q 139 372 139 190 l 139 711 q 126 865 139 807 l 36 882 l 43 986 q 182 979 117 979 l 458 986 l 465 874 l 374 865 q 361 753 361 819 l 361 361 q 415 201 361 264 q 569 138 468 138 q 715 194 669 138 q 760 361 760 251 l 760 711 q 747 865 760 772 l 657 882 l 664 986 q 803 979 738 979 l 1040 986 l 1047 874 l 956 865 q 943 753 943 807 m 642 1406 l 681 1307 q 531 1269 549 1278 l 442 1231 l 403 1308 l 642 1406 m 322 1122 q 322 1142 322 1122 q 346 1187 322 1163 q 410 1211 369 1211 q 475 1188 451 1211 q 499 1123 499 1164 q 476 1058 499 1082 q 411 1035 453 1035 q 346 1058 369 1035 q 322 1122 322 1082 m 586 1122 q 586 1142 586 1122 q 609 1187 586 1163 q 673 1211 632 1211 q 738 1188 714 1211 q 761 1123 761 1164 q 738 1058 761 1082 q 674 1035 715 1035 q 609 1058 632 1035 q 586 1122 586 1082 z "},"ǘ":{"ha":864,"x_min":24,"x_max":836,"o":"m 740 410 l 740 268 q 750 132 740 219 l 753 107 l 836 99 l 828 -7 q 572 0 760 0 l 560 108 q 358 -6 478 -6 q 176 58 238 -6 q 114 242 114 121 l 114 451 l 100 576 l 24 596 l 36 699 q 192 686 133 686 l 293 689 l 322 663 q 308 410 308 479 l 308 261 q 333 168 308 203 q 412 133 358 133 q 506 185 465 133 q 546 325 546 236 l 546 451 l 532 572 l 428 596 l 440 699 q 603 686 544 686 l 725 689 l 754 663 q 740 410 740 479 m 518 1113 l 557 1014 q 407 976 425 985 l 318 938 l 279 1015 l 518 1113 m 199 829 q 199 849 199 829 q 222 894 199 869 q 287 918 246 918 q 351 894 328 918 q 375 830 375 871 q 352 765 375 789 q 288 742 329 742 q 222 765 246 742 q 199 829 199 789 m 463 829 q 463 849 463 829 q 485 894 463 869 q 549 918 508 918 q 614 894 590 918 q 638 830 638 871 q 615 765 638 789 q 550 742 592 742 q 485 765 508 742 q 463 829 463 789 z "},"Ǚ":{"ha":1082,"x_min":36,"x_max":1047,"o":"m 943 753 l 943 372 q 839 85 943 190 q 540 -21 735 -21 q 242 85 346 -21 q 139 372 139 190 l 139 711 q 126 865 139 807 l 36 882 l 43 986 q 182 979 117 979 l 458 986 l 465 874 l 374 865 q 361 753 361 819 l 361 361 q 415 201 361 264 q 569 138 468 138 q 715 194 669 138 q 760 361 760 251 l 760 711 q 747 865 760 772 l 657 882 l 664 986 q 803 979 738 979 l 1040 986 l 1047 874 l 956 865 q 943 753 943 807 m 542 1214 l 315 1335 l 356 1407 l 443 1365 q 542 1336 468 1356 q 640 1365 625 1358 l 728 1407 l 768 1335 l 542 1214 m 585 1123 q 585 1143 585 1123 q 608 1188 585 1164 q 673 1211 632 1211 q 738 1187 714 1211 q 761 1122 761 1163 q 738 1058 761 1082 q 672 1035 714 1035 q 608 1058 631 1035 q 585 1123 585 1082 m 322 1123 q 322 1143 322 1123 q 346 1188 322 1164 q 410 1211 369 1211 q 474 1187 451 1211 q 497 1122 497 1163 q 474 1058 497 1082 q 410 1035 451 1035 q 345 1058 368 1035 q 322 1123 322 1082 z "},"ǚ":{"ha":864,"x_min":24,"x_max":836,"o":"m 740 410 l 740 268 q 750 132 740 219 l 753 107 l 836 99 l 828 -7 q 572 0 760 0 l 560 108 q 358 -6 478 -6 q 176 58 238 -6 q 114 242 114 121 l 114 451 l 100 576 l 24 596 l 36 699 q 192 686 133 686 l 293 689 l 322 663 q 308 410 308 479 l 308 261 q 333 168 308 203 q 412 133 358 133 q 506 185 465 133 q 546 325 546 236 l 546 451 l 532 572 l 428 596 l 440 699 q 603 686 544 686 l 725 689 l 754 663 q 740 410 740 479 m 418 921 l 192 1042 l 232 1114 l 319 1072 q 418 1043 344 1063 q 517 1072 501 1065 l 604 1114 l 644 1042 l 418 921 m 461 830 q 461 850 461 830 q 485 894 461 871 q 549 918 508 918 q 614 894 590 918 q 638 829 638 869 q 614 765 638 789 q 549 742 590 742 q 484 765 507 742 q 461 830 461 789 m 199 830 q 199 850 199 830 q 222 894 199 871 q 287 918 246 918 q 351 894 328 918 q 374 829 374 869 q 351 765 374 789 q 286 742 328 742 q 222 765 244 742 q 199 830 199 789 z "},"Ǜ":{"ha":1082,"x_min":36,"x_max":1047,"o":"m 943 753 l 943 372 q 839 85 943 190 q 540 -21 735 -21 q 242 85 346 -21 q 139 372 139 190 l 139 711 q 126 865 139 807 l 36 882 l 43 986 q 182 979 117 979 l 458 986 l 465 874 l 374 865 q 361 753 361 819 l 361 361 q 415 201 361 264 q 569 138 468 138 q 715 194 669 138 q 760 361 760 251 l 760 711 q 747 865 760 772 l 657 882 l 664 986 q 803 979 738 979 l 1040 986 l 1047 874 l 956 865 q 943 753 943 807 m 442 1406 l 681 1308 l 642 1231 l 553 1269 l 403 1307 l 442 1406 m 322 1123 q 322 1143 322 1123 q 346 1188 322 1164 q 410 1211 369 1211 q 474 1187 451 1211 q 497 1122 497 1163 q 474 1058 497 1082 q 410 1035 451 1035 q 345 1058 368 1035 q 322 1123 322 1082 m 585 1123 q 585 1143 585 1123 q 608 1188 585 1164 q 673 1211 632 1211 q 738 1187 714 1211 q 761 1122 761 1163 q 738 1058 761 1082 q 672 1035 714 1035 q 608 1058 631 1035 q 585 1123 585 1082 z "},"ǜ":{"ha":864,"x_min":24,"x_max":836,"o":"m 740 410 l 740 268 q 750 132 740 219 l 753 107 l 836 99 l 828 -7 q 572 0 760 0 l 560 108 q 358 -6 478 -6 q 176 58 238 -6 q 114 242 114 121 l 114 451 l 100 576 l 24 596 l 36 699 q 192 686 133 686 l 293 689 l 322 663 q 308 410 308 479 l 308 261 q 333 168 308 203 q 412 133 358 133 q 506 185 465 133 q 546 325 546 236 l 546 451 l 532 572 l 428 596 l 440 699 q 603 686 544 686 l 725 689 l 754 663 q 740 410 740 479 m 318 1113 l 557 1015 l 518 938 l 429 976 l 279 1014 l 318 1113 m 199 830 q 199 850 199 830 q 222 894 199 871 q 287 918 246 918 q 351 894 328 918 q 374 829 374 869 q 351 765 374 789 q 286 742 328 742 q 222 765 244 742 q 199 830 199 789 m 461 830 q 461 850 461 830 q 485 894 461 871 q 549 918 508 918 q 614 894 590 918 q 638 829 638 869 q 614 765 638 789 q 549 742 590 742 q 484 765 507 742 q 461 830 461 789 z "},"Ǫ":{"ha":1067,"x_min":38,"x_max":1029,"o":"m 533 1006 q 647 1006 533 1006 q 894 865 760 1006 q 1029 501 1029 725 q 918 140 1029 276 q 615 -21 807 4 q 565 -118 565 -65 q 581 -166 565 -147 q 624 -185 597 -185 q 675 -175 650 -185 l 700 -242 q 567 -274 636 -274 q 458 -242 499 -274 q 417 -147 417 -211 q 486 -25 417 -82 q 158 128 279 -10 q 38 496 38 267 q 172 865 38 725 q 533 1006 307 1006 m 533 871 q 471 871 533 871 q 348 777 408 871 q 288 490 288 683 q 348 202 288 296 q 533 108 408 108 q 719 202 658 108 q 779 490 779 296 q 719 777 779 683 q 533 871 658 871 z "},"ǫ":{"ha":756,"x_min":35,"x_max":721,"o":"m 378 699 q 460 699 378 699 q 632 606 543 699 q 721 353 721 513 q 472 -11 721 38 q 411 -118 411 -60 q 427 -166 411 -147 q 469 -185 443 -185 q 521 -175 496 -185 l 546 -242 q 413 -274 482 -274 q 303 -242 344 -274 q 263 -144 263 -211 q 339 -19 263 -78 q 113 84 192 -8 q 35 344 35 176 q 124 606 35 513 q 378 699 213 699 m 472 154 q 486 183 472 154 q 500 339 500 211 q 472 524 500 467 q 378 581 443 581 q 284 524 313 581 q 256 339 256 467 q 284 154 256 211 q 378 97 313 97 q 472 154 443 97 z "},"Ǻ":{"ha":926,"x_min":1,"x_max":928,"o":"m 928 90 l 921 -7 q 804 0 853 0 l 521 -7 l 514 94 l 596 107 l 589 179 l 569 249 l 307 249 l 283 160 l 275 107 l 356 90 l 349 -7 q 201 0 267 0 l 8 -7 l 1 94 l 64 104 l 122 224 l 385 979 l 540 994 l 818 178 l 850 103 l 928 90 m 444 692 l 344 363 l 533 365 l 444 692 m 367 1222 q 382 1238 367 1222 q 454 1253 397 1253 q 541 1222 511 1253 q 571 1140 571 1192 q 541 1057 571 1088 q 454 1026 511 1026 q 367 1057 397 1026 q 336 1140 336 1088 q 367 1222 336 1192 m 492 1140 q 492 1163 492 1140 q 455 1185 492 1185 q 418 1140 418 1185 q 455 1096 418 1096 q 492 1140 492 1096 m 564 1443 l 608 1339 q 407 1281 431 1289 l 314 1233 l 268 1314 l 564 1443 z "},"ǻ":{"ha":726,"x_min":39,"x_max":710,"o":"m 243 -14 q 94 39 149 -14 q 39 183 39 92 q 222 375 39 346 l 419 407 l 419 447 q 396 544 419 515 q 315 572 372 572 q 203 546 258 572 l 193 490 l 194 431 l 90 426 l 69 661 q 324 699 219 699 q 538 633 461 699 q 614 449 614 567 l 614 268 q 622 132 614 197 l 626 107 l 710 99 l 701 -7 q 446 0 633 0 l 435 100 q 243 -14 372 -14 m 244 214 q 319 129 244 129 q 382 153 356 129 q 419 218 408 176 l 419 317 l 317 300 q 261 273 278 293 q 244 214 244 253 m 439 1169 l 483 1065 q 282 1007 306 1015 l 189 960 l 143 1040 l 439 1169 m 242 949 q 257 964 242 949 q 329 979 272 979 q 416 949 386 979 q 446 866 446 918 q 416 783 446 814 q 329 753 386 753 q 242 783 272 753 q 211 866 211 814 q 242 949 211 918 m 367 867 q 367 889 367 867 q 330 911 367 911 q 293 867 293 911 q 330 822 293 822 q 367 867 367 822 z "},"Ǽ":{"ha":1267,"x_min":1,"x_max":1263,"o":"m 996 858 l 764 858 q 772 753 768 789 l 803 556 q 839 553 814 553 l 951 553 q 1013 565 981 553 l 1025 654 l 1111 647 q 1110 536 1110 564 l 1114 360 l 1025 351 l 1013 435 q 924 443 951 443 l 846 443 q 821 440 829 443 l 847 268 l 875 121 l 1015 121 q 1122 132 1067 121 q 1154 213 1147 186 q 1165 271 1161 239 l 1263 264 l 1242 19 l 1215 -6 q 1057 0 1085 0 l 681 0 l 568 -7 l 561 90 l 654 107 q 651 183 654 167 l 640 256 l 339 256 l 285 160 q 281 150 283 158 q 263 107 276 140 l 358 99 l 351 -7 q 147 0 263 0 l 8 -7 l 1 90 l 72 103 q 156 224 139 194 l 521 865 l 432 882 l 439 986 q 578 979 513 979 l 1038 979 l 1196 993 l 1222 968 l 1232 744 l 1132 738 q 1122 813 1124 804 q 1107 851 1119 821 q 996 858 1038 858 m 403 369 l 622 372 l 576 665 l 574 676 l 403 369 m 911 1247 l 961 1131 q 736 1067 763 1075 l 633 1014 l 582 1103 l 911 1247 z "},"ǽ":{"ha":1010,"x_min":26,"x_max":1008,"o":"m 57 661 q 323 699 204 699 q 517 640 442 699 q 725 699 596 699 q 931 617 854 699 q 1008 388 1008 535 l 979 333 l 604 311 q 651 158 611 204 q 779 113 690 113 q 866 124 824 113 q 928 147 908 136 l 947 158 l 996 78 q 724 -21 886 -21 q 479 107 561 -21 q 378 15 433 43 q 235 -14 322 -14 q 87 40 147 -14 q 26 181 26 94 q 73 317 26 268 q 210 375 119 367 l 407 394 l 407 449 q 303 586 407 586 q 186 556 251 586 l 182 501 l 182 433 l 78 429 l 57 661 m 232 211 q 307 129 232 129 q 407 253 407 129 l 407 297 l 304 288 q 248 265 264 282 q 232 211 232 249 m 703 589 q 606 408 613 589 l 789 421 l 790 432 q 703 589 790 589 m 658 1049 l 724 943 q 529 853 554 865 l 436 785 l 371 865 l 658 1049 z "},"Ǿ":{"ha":1067,"x_min":38,"x_max":1029,"o":"m 1029 489 q 894 114 1029 254 q 533 -26 760 -26 q 332 8 425 -26 l 228 -190 l 149 -150 l 253 49 q 94 227 150 114 q 38 489 38 340 q 172 865 38 725 q 533 1006 307 1006 q 736 969 644 1006 l 839 1164 l 921 1124 l 817 928 q 974 749 918 863 q 1029 489 1029 636 m 533 871 q 348 777 408 871 q 288 495 288 683 q 339 214 288 307 l 665 833 q 533 871 611 871 m 533 108 q 779 481 779 108 q 729 760 779 667 l 403 143 q 533 108 456 108 m 699 1247 l 749 1131 q 524 1067 550 1075 l 421 1014 l 369 1103 l 699 1247 z "},"ǿ":{"ha":739,"x_min":26,"x_max":713,"o":"m 713 339 q 624 72 713 165 q 369 -21 535 -21 q 242 -3 303 -21 l 171 -137 l 92 -97 l 161 33 q 26 339 26 122 q 115 606 26 513 q 369 699 204 699 q 503 679 440 699 l 583 831 l 665 790 l 585 639 q 713 339 713 547 m 369 581 q 276 524 304 581 q 247 364 247 467 q 257 214 247 261 l 438 557 q 369 581 410 581 m 492 339 q 485 450 492 399 l 306 117 q 369 97 329 97 q 463 154 435 97 q 492 339 492 211 m 532 1049 l 597 943 q 403 853 428 865 l 310 785 l 244 865 l 532 1049 z "},"Ș":{"ha":796,"x_min":61,"x_max":742,"o":"m 197 307 q 199 213 199 226 q 218 153 199 200 q 361 114 292 114 q 472 144 431 114 q 513 226 513 174 q 480 315 513 278 q 398 376 447 353 q 292 430 349 399 q 185 494 235 461 q 103 587 136 528 q 71 724 71 646 q 162 925 71 850 q 394 1000 253 1000 q 703 950 536 1000 l 683 682 l 568 689 l 568 792 q 551 839 568 799 q 434 871 493 871 q 338 841 375 871 q 300 760 300 811 q 346 669 300 708 q 456 601 392 631 q 585 536 521 572 q 696 436 650 500 q 742 283 742 372 q 640 62 742 144 q 385 -21 539 -21 q 220 -4 301 -21 q 100 29 139 13 l 61 46 l 82 314 l 197 307 m 353 -250 q 296 -181 296 -231 q 322 -106 296 -131 q 388 -81 349 -81 q 452 -108 428 -81 q 476 -178 476 -136 q 455 -269 476 -221 q 413 -350 433 -318 l 392 -381 l 328 -364 q 353 -250 353 -287 z "},"ș":{"ha":585,"x_min":42,"x_max":558,"o":"m 46 492 q 115 647 46 594 q 303 699 185 699 q 528 665 422 699 l 511 446 l 418 453 l 418 513 q 399 565 418 526 q 301 588 349 588 q 211 535 211 588 q 247 487 211 507 q 334 448 283 467 q 435 404 385 429 q 522 328 486 379 q 558 203 558 276 q 485 42 558 99 q 288 -14 413 -14 q 81 11 204 -14 l 42 18 l 58 247 l 157 240 l 157 178 q 160 161 157 174 q 165 142 164 149 q 169 126 167 135 q 287 96 244 96 q 355 112 329 96 q 381 156 381 128 q 346 206 381 185 q 263 246 311 228 q 165 290 214 264 q 81 367 115 315 q 46 492 46 418 m 265 -250 q 208 -181 208 -231 q 235 -106 208 -131 q 301 -81 261 -81 q 365 -108 340 -81 q 389 -178 389 -136 q 368 -269 389 -221 q 325 -350 347 -318 l 304 -381 l 240 -364 q 265 -250 265 -287 z "},"Ț":{"ha":869,"x_min":14,"x_max":857,"o":"m 315 107 l 328 226 l 328 711 q 315 865 328 758 l 250 865 q 139 858 208 865 q 122 812 126 828 q 114 731 118 796 l 14 738 l 24 968 l 50 993 q 208 979 181 979 l 661 979 l 819 993 l 846 968 l 857 738 l 757 731 q 749 812 753 796 q 732 858 744 828 q 626 865 669 865 l 556 865 q 543 753 543 799 l 543 268 q 556 107 543 194 l 646 99 l 639 -7 q 369 0 526 0 l 231 -7 l 224 90 l 315 107 m 419 -250 q 363 -181 363 -231 q 389 -106 363 -131 q 455 -81 415 -81 q 519 -108 494 -81 q 543 -178 543 -136 q 522 -269 543 -221 q 479 -350 500 -318 l 458 -381 l 394 -364 q 419 -250 419 -287 z "},"ț":{"ha":497,"x_min":19,"x_max":506,"o":"m 326 137 q 336 124 326 137 q 379 111 346 111 q 454 139 413 111 l 506 60 q 311 -14 413 -14 q 161 42 210 -14 q 113 217 113 99 l 113 582 l 24 582 l 19 669 q 154 728 149 721 l 231 849 l 307 843 l 307 686 l 472 686 l 460 582 l 307 582 l 307 199 q 326 137 307 163 m 258 -250 q 201 -181 201 -231 q 228 -106 201 -131 q 294 -81 254 -81 q 358 -108 333 -81 q 382 -178 382 -136 q 360 -269 382 -221 q 318 -350 339 -318 l 297 -381 l 233 -364 q 258 -250 258 -287 z "},"ȷ":{"ha":429,"x_min":19,"x_max":346,"o":"m 332 410 l 332 -14 q 274 -117 332 -39 q 157 -261 215 -194 l 99 -326 l 33 -290 q 138 29 138 -26 l 138 451 l 124 572 l 19 596 l 32 699 q 194 686 136 686 l 317 689 l 346 663 q 332 410 332 479 z "},"ˆ":{"ha":500,"x_min":-25,"x_max":525,"o":"m 250 1063 l 525 864 l 460 783 l 367 857 q 250 918 311 885 l 133 857 l 40 783 l -25 864 l 250 1063 z "},"ˇ":{"ha":500,"x_min":-25,"x_max":525,"o":"m 47 1063 l 140 989 q 163 975 146 986 q 250 924 188 960 q 360 989 333 976 l 453 1063 l 525 982 l 250 783 l -25 982 l 47 1063 z "},"˘":{"ha":500,"x_min":36,"x_max":464,"o":"m 372 1010 l 464 1010 q 406 851 464 907 q 250 794 349 794 q 94 851 151 794 q 36 1010 36 907 l 128 1010 q 162 929 128 958 q 250 900 196 900 q 338 929 304 900 q 372 1010 372 958 z "},"˙":{"ha":500,"x_min":140,"x_max":360,"o":"m 169 990 q 184 1006 169 990 q 250 1021 199 1021 q 331 991 301 1021 q 360 910 360 961 q 331 830 360 860 q 250 800 303 800 q 169 830 197 800 q 140 910 140 860 q 169 990 140 960 z "},"˚":{"ha":500,"x_min":111,"x_max":388,"o":"m 147 1022 q 165 1039 147 1022 q 250 1057 183 1057 q 352 1022 317 1057 q 388 924 388 986 q 352 827 388 863 q 250 792 317 792 q 147 827 183 792 q 111 924 111 863 q 147 1022 111 986 m 294 924 q 294 950 294 924 q 251 976 294 976 q 207 924 207 976 q 251 872 207 872 q 294 924 294 872 z "},"˛":{"ha":500,"x_min":188,"x_max":471,"o":"m 336 -118 q 352 -166 336 -147 q 394 -185 368 -185 q 446 -175 421 -185 l 471 -242 q 338 -274 407 -274 q 228 -242 269 -274 q 188 -150 188 -211 q 208 -82 188 -114 q 248 -33 228 -50 q 304 8 268 -15 l 426 8 q 336 -118 336 -49 z "},"˜":{"ha":500,"x_min":7,"x_max":492,"o":"m 473 926 q 467 915 473 926 q 428 864 461 903 q 367 825 396 825 q 254 851 339 825 q 147 878 169 878 q 82 833 111 878 l 72 819 l 7 858 q 67 958 29 911 q 132 1004 104 1004 q 245 978 160 1004 q 353 951 331 951 q 415 992 390 951 l 424 1004 l 492 965 q 473 926 485 950 z "},"˝":{"ha":500,"x_min":-35,"x_max":593,"o":"m 526 1058 l 593 951 q 382 853 407 865 l 289 785 l 224 865 l 526 1058 m 268 1058 l 325 967 q 124 853 149 869 l 31 785 l -35 865 l 268 1058 z "},"̃":{"ha":500,"x_min":7,"x_max":492,"o":"m 473 926 q 467 915 473 926 q 428 864 461 903 q 367 825 396 825 q 254 851 339 825 q 147 878 169 878 q 82 833 111 878 l 72 819 l 7 858 q 67 958 29 911 q 132 1004 104 1004 q 245 978 160 1004 q 353 951 331 951 q 415 992 390 951 l 424 1004 l 492 965 q 473 926 485 950 z "},"̉":{"ha":500,"x_min":135,"x_max":365,"o":"m 215 961 q 157 946 197 961 l 135 1014 q 236 1039 185 1039 q 326 1011 288 1039 q 365 944 365 983 q 342 884 365 906 q 297 849 319 863 q 275 822 275 835 l 283 786 q 245 776 274 776 q 199 791 217 776 q 182 829 182 806 l 182 835 q 216 885 182 860 q 250 929 250 911 q 215 961 250 961 z "},"̣":{"ha":500,"x_min":143,"x_max":357,"o":"m 143 -199 q 143 -174 143 -199 q 171 -120 143 -150 q 249 -90 199 -90 q 328 -119 300 -90 q 357 -197 357 -147 q 329 -276 357 -247 q 250 -306 301 -306 q 171 -276 199 -306 q 143 -199 143 -247 z "},"Δ":{"ha":944,"x_min":31,"x_max":914,"o":"m 883 0 l 68 0 l 31 92 l 126 285 l 397 979 l 542 994 q 844 242 833 272 l 914 96 l 883 0 m 249 113 q 334 111 289 111 q 646 117 379 111 q 617 243 626 217 l 442 682 l 272 221 q 249 113 263 182 z "},"Ω":{"ha":1203,"x_min":28,"x_max":1175,"o":"m 126 529 q 252 871 126 742 q 601 1000 378 1000 q 951 871 825 1000 q 1076 529 1076 742 q 1007 274 1076 385 q 808 114 938 163 l 928 118 q 1040 133 985 122 q 1078 271 1071 214 l 1175 264 l 1154 19 l 1128 -6 q 969 0 997 0 l 694 0 l 676 178 q 826 529 826 236 q 767 772 826 678 q 601 865 707 865 q 436 772 496 865 q 376 529 376 678 q 526 178 376 236 l 508 0 l 233 0 l 75 -6 l 49 19 l 28 264 l 125 271 q 137 206 129 239 q 163 133 144 174 q 275 118 218 122 l 394 114 q 196 274 265 163 q 126 529 126 385 z "},"π":{"ha":961,"x_min":17,"x_max":913,"o":"m 396 232 l 400 0 l 340 0 l 210 -3 l 181 24 q 202 210 200 163 q 208 550 204 258 l 196 550 q 156 533 181 550 q 114 500 131 517 l 96 482 l 17 556 q 51 600 31 574 q 119 670 72 626 q 192 714 167 714 l 736 690 q 817 742 765 690 l 833 758 l 913 685 q 881 645 900 669 q 817 578 861 621 q 747 528 774 535 l 746 232 q 758 124 746 142 q 801 92 771 107 q 833 76 831 78 l 807 -21 q 776 -17 801 -19 q 739 -12 750 -14 q 702 -7 728 -11 q 663 2 676 -3 q 629 15 650 7 q 597 32 608 22 q 572 53 585 42 q 550 118 550 76 q 556 533 550 272 l 396 542 l 396 232 z "},"Ẁ":{"ha":1429,"x_min":3,"x_max":1422,"o":"m 343 872 q 342 846 342 864 q 349 800 342 828 l 474 288 l 658 938 l 815 938 l 997 288 l 1138 819 q 1140 872 1146 847 l 1051 889 l 1058 986 q 1211 979 1146 979 l 1415 986 l 1422 885 l 1353 875 q 1297 756 1315 811 l 1056 0 l 896 0 l 718 588 l 532 0 l 372 0 l 118 801 l 86 876 l 3 889 l 10 986 q 138 979 86 979 l 426 986 l 433 885 l 343 872 m 876 1117 l 825 1028 l 722 1081 l 497 1144 l 547 1261 l 876 1117 z "},"ẁ":{"ha":1157,"x_min":3,"x_max":1150,"o":"m 1150 594 l 1090 586 q 1025 443 1033 465 l 863 0 l 682 0 l 579 335 l 467 0 l 288 0 q 118 490 132 447 q 79 588 104 532 l 3 603 l 10 699 q 203 686 106 686 l 374 693 l 381 594 l 289 589 q 308 490 307 497 l 386 206 l 533 686 l 656 686 l 785 206 l 875 493 q 900 589 885 521 l 819 594 l 826 693 q 1024 686 926 686 l 1143 693 l 1150 594 m 728 865 l 663 785 l 569 853 l 375 943 l 440 1049 l 728 865 z "},"Ẃ":{"ha":1429,"x_min":3,"x_max":1422,"o":"m 343 872 q 342 846 342 864 q 349 800 342 828 l 474 288 l 658 938 l 815 938 l 997 288 l 1138 819 q 1140 872 1146 847 l 1051 889 l 1058 986 q 1211 979 1146 979 l 1415 986 l 1422 885 l 1353 875 q 1297 756 1315 811 l 1056 0 l 896 0 l 718 588 l 532 0 l 372 0 l 118 801 l 86 876 l 3 889 l 10 986 q 138 979 86 979 l 426 986 l 433 885 l 343 872 m 882 1247 l 932 1131 q 707 1067 733 1075 l 604 1014 l 553 1103 l 882 1247 z "},"ẃ":{"ha":1157,"x_min":3,"x_max":1150,"o":"m 1150 594 l 1090 586 q 1025 443 1033 465 l 863 0 l 682 0 l 579 335 l 467 0 l 288 0 q 118 490 132 447 q 79 588 104 532 l 3 603 l 10 699 q 203 686 106 686 l 374 693 l 381 594 l 289 589 q 308 490 307 497 l 386 206 l 533 686 l 656 686 l 785 206 l 875 493 q 900 589 885 521 l 819 594 l 826 693 q 1024 686 926 686 l 1143 693 l 1150 594 m 718 1049 l 783 943 q 589 853 614 865 l 496 785 l 431 865 l 718 1049 z "},"Ẅ":{"ha":1429,"x_min":3,"x_max":1422,"o":"m 343 872 q 342 846 342 864 q 349 800 342 828 l 474 288 l 658 938 l 815 938 l 997 288 l 1138 819 q 1140 872 1146 847 l 1051 889 l 1058 986 q 1211 979 1146 979 l 1415 986 l 1422 885 l 1353 875 q 1297 756 1315 811 l 1056 0 l 896 0 l 718 588 l 532 0 l 372 0 l 118 801 l 86 876 l 3 889 l 10 986 q 138 979 86 979 l 426 986 l 433 885 l 343 872 m 482 1218 q 494 1231 482 1218 q 551 1244 507 1244 q 620 1219 596 1244 q 644 1148 644 1193 q 620 1077 644 1103 q 551 1051 596 1051 q 482 1078 507 1051 q 457 1148 457 1104 q 482 1218 457 1192 m 812 1218 q 824 1231 812 1218 q 881 1244 836 1244 q 949 1219 925 1244 q 974 1148 974 1193 q 949 1077 974 1103 q 881 1051 925 1051 q 812 1077 836 1051 q 788 1147 788 1103 q 812 1218 788 1192 z "},"ẅ":{"ha":1157,"x_min":3,"x_max":1150,"o":"m 1150 594 l 1090 586 q 1025 443 1033 465 l 863 0 l 682 0 l 579 335 l 467 0 l 288 0 q 118 490 132 447 q 79 588 104 532 l 3 603 l 10 699 q 203 686 106 686 l 374 693 l 381 594 l 289 589 q 308 490 307 497 l 386 206 l 533 686 l 656 686 l 785 206 l 875 493 q 900 589 885 521 l 819 594 l 826 693 q 1024 686 926 686 l 1143 693 l 1150 594 m 346 981 q 358 994 346 981 q 415 1007 371 1007 q 484 981 460 1007 q 508 910 508 956 q 484 840 508 865 q 415 814 460 814 q 346 840 371 814 q 321 910 321 867 q 346 981 321 954 m 676 981 q 688 994 676 981 q 744 1007 700 1007 q 813 981 789 1007 q 838 910 838 956 q 813 840 838 865 q 744 814 789 814 q 676 840 700 814 q 651 910 651 865 q 676 981 651 954 z "},"ẞ":{"ha":1049,"x_min":35,"x_max":1021,"o":"m 708 792 q 557 842 654 842 q 410 781 460 842 q 360 615 360 719 l 360 268 q 374 0 360 125 l 214 0 l 42 -7 l 35 90 l 126 107 q 139 224 139 182 l 139 610 q 245 897 139 794 q 543 1000 351 1000 q 760 969 650 1000 q 954 882 869 938 l 717 551 q 958 401 896 464 q 1021 251 1021 339 q 928 54 1021 131 q 689 -22 836 -22 q 566 -7 626 -22 q 478 25 506 8 l 449 40 l 468 293 l 582 285 q 583 176 582 258 l 601 143 q 693 111 636 111 q 800 213 800 111 q 742 316 800 271 q 478 468 685 361 l 708 792 z "},"Ạ":{"ha":926,"x_min":1,"x_max":928,"o":"m 928 90 l 921 -7 q 804 0 853 0 l 521 -7 l 514 94 l 596 107 l 589 179 l 569 249 l 307 249 l 283 160 l 275 107 l 356 90 l 349 -7 q 201 0 267 0 l 8 -7 l 1 94 l 64 104 l 122 224 l 385 979 l 540 994 l 818 178 l 850 103 l 928 90 m 444 692 l 344 363 l 533 365 l 444 692 m 338 -199 q 338 -174 338 -199 q 365 -120 338 -150 q 444 -90 393 -90 q 523 -119 494 -90 q 551 -197 551 -147 q 524 -276 551 -247 q 444 -306 496 -306 q 365 -276 393 -306 q 338 -199 338 -247 z "},"ạ":{"ha":726,"x_min":39,"x_max":710,"o":"m 243 -14 q 94 39 149 -14 q 39 183 39 92 q 222 375 39 346 l 419 407 l 419 447 q 396 544 419 515 q 315 572 372 572 q 203 546 258 572 l 193 490 l 194 431 l 90 426 l 69 661 q 324 699 219 699 q 538 633 461 699 q 614 449 614 567 l 614 268 q 622 132 614 197 l 626 107 l 710 99 l 701 -7 q 446 0 633 0 l 435 100 q 243 -14 372 -14 m 244 214 q 319 129 244 129 q 382 153 356 129 q 419 218 408 176 l 419 317 l 317 300 q 261 273 278 293 q 244 214 244 253 m 225 -199 q 225 -174 225 -199 q 253 -120 225 -150 q 331 -90 281 -90 q 410 -119 382 -90 q 439 -197 439 -147 q 411 -276 439 -247 q 332 -306 383 -306 q 253 -276 281 -306 q 225 -199 225 -247 z "},"Ả":{"ha":926,"x_min":1,"x_max":928,"o":"m 928 90 l 921 -7 q 804 0 853 0 l 521 -7 l 514 94 l 596 107 l 589 179 l 569 249 l 307 249 l 283 160 l 275 107 l 356 90 l 349 -7 q 201 0 267 0 l 8 -7 l 1 94 l 64 104 l 122 224 l 385 979 l 540 994 l 818 178 l 850 103 l 928 90 m 444 692 l 344 363 l 533 365 l 444 692 m 410 1226 q 351 1211 385 1226 l 329 1279 q 431 1304 379 1304 q 521 1276 482 1304 q 560 1210 560 1249 q 537 1149 560 1171 q 492 1114 514 1128 q 469 1088 469 1100 l 478 1051 q 440 1042 468 1042 q 394 1056 411 1042 q 376 1094 376 1071 l 376 1100 q 410 1151 376 1125 q 444 1194 444 1176 q 410 1226 444 1226 z "},"ả":{"ha":726,"x_min":39,"x_max":710,"o":"m 243 -14 q 94 39 149 -14 q 39 183 39 92 q 222 375 39 346 l 419 407 l 419 447 q 396 544 419 515 q 315 572 372 572 q 203 546 258 572 l 193 490 l 194 431 l 90 426 l 69 661 q 324 699 219 699 q 538 633 461 699 q 614 449 614 567 l 614 268 q 622 132 614 197 l 626 107 l 710 99 l 701 -7 q 446 0 633 0 l 435 100 q 243 -14 372 -14 m 244 214 q 319 129 244 129 q 382 153 356 129 q 419 218 408 176 l 419 317 l 317 300 q 261 273 278 293 q 244 214 244 253 m 297 961 q 239 946 279 961 l 217 1014 q 318 1039 267 1039 q 408 1011 369 1039 q 447 936 447 983 q 433 892 447 911 q 403 864 419 874 q 357 822 357 842 l 365 786 q 327 776 356 776 q 281 791 299 776 q 264 829 264 806 l 264 835 q 298 885 264 860 q 332 929 332 911 q 297 961 332 961 z "},"Ấ":{"ha":926,"x_min":1,"x_max":928,"o":"m 928 90 l 921 -7 q 804 0 853 0 l 521 -7 l 514 94 l 596 107 l 589 179 l 569 249 l 307 249 l 283 160 l 275 107 l 356 90 l 349 -7 q 201 0 267 0 l 8 -7 l 1 94 l 64 104 l 122 224 l 385 979 l 540 994 l 818 178 l 850 103 l 928 90 m 469 1289 l 679 1093 l 611 1039 l 524 1107 l 469 1146 l 415 1107 l 328 1039 l 260 1093 l 469 1289 m 444 692 l 344 363 l 533 365 l 444 692 m 740 1400 l 817 1328 q 711 1235 719 1243 l 656 1174 l 586 1229 l 740 1400 z "},"ấ":{"ha":726,"x_min":39,"x_max":710,"o":"m 243 -14 q 94 39 149 -14 q 39 183 39 92 q 222 375 39 346 l 419 407 l 419 447 q 396 544 419 515 q 315 572 372 572 q 203 546 258 572 l 193 490 l 194 431 l 90 426 l 69 661 q 324 699 219 699 q 538 633 461 699 q 614 449 614 567 l 614 268 q 622 132 614 197 l 626 107 l 710 99 l 701 -7 q 446 0 633 0 l 435 100 q 243 -14 372 -14 m 342 996 l 551 800 l 483 746 l 396 814 l 342 853 l 288 814 l 200 746 l 132 800 l 342 996 m 244 214 q 319 129 244 129 q 382 153 356 129 q 419 218 408 176 l 419 317 l 317 300 q 261 273 278 293 q 244 214 244 253 m 613 1107 l 689 1035 q 583 942 592 950 l 528 881 l 458 936 l 613 1107 z "},"Ầ":{"ha":926,"x_min":1,"x_max":928,"o":"m 928 90 l 921 -7 q 804 0 853 0 l 521 -7 l 514 94 l 596 107 l 589 179 l 569 249 l 307 249 l 283 160 l 275 107 l 356 90 l 349 -7 q 201 0 267 0 l 8 -7 l 1 94 l 64 104 l 122 224 l 385 979 l 540 994 l 818 178 l 850 103 l 928 90 m 467 1289 l 676 1093 l 608 1039 l 521 1107 l 467 1146 l 413 1107 l 325 1039 l 257 1093 l 467 1289 m 444 692 l 344 363 l 533 365 l 444 692 m 739 1229 l 669 1174 l 614 1235 l 508 1328 l 585 1400 l 739 1229 z "},"ầ":{"ha":726,"x_min":39,"x_max":710,"o":"m 243 -14 q 94 39 149 -14 q 39 183 39 92 q 222 375 39 346 l 419 407 l 419 447 q 396 544 419 515 q 315 572 372 572 q 203 546 258 572 l 193 490 l 194 431 l 90 426 l 69 661 q 324 699 219 699 q 538 633 461 699 q 614 449 614 567 l 614 268 q 622 132 614 197 l 626 107 l 710 99 l 701 -7 q 446 0 633 0 l 435 100 q 243 -14 372 -14 m 339 996 l 549 800 l 481 746 l 393 814 l 339 853 l 285 814 l 197 746 l 129 800 l 339 996 m 244 214 q 319 129 244 129 q 382 153 356 129 q 419 218 408 176 l 419 317 l 317 300 q 261 273 278 293 q 244 214 244 253 m 611 936 l 542 881 l 486 942 l 381 1035 l 457 1107 l 611 936 z "},"Ẩ":{"ha":926,"x_min":1,"x_max":928,"o":"m 928 90 l 921 -7 q 804 0 853 0 l 521 -7 l 514 94 l 596 107 l 589 179 l 569 249 l 307 249 l 283 160 l 275 107 l 356 90 l 349 -7 q 201 0 267 0 l 8 -7 l 1 94 l 64 104 l 122 224 l 385 979 l 540 994 l 818 178 l 850 103 l 928 90 m 467 1289 l 676 1093 l 608 1039 l 521 1107 l 467 1146 l 413 1107 l 325 1039 l 257 1093 l 467 1289 m 444 692 l 344 363 l 533 365 l 444 692 m 635 1200 q 663 1243 635 1222 q 692 1282 692 1264 q 668 1300 692 1300 q 617 1288 644 1300 l 596 1346 q 691 1363 646 1363 q 764 1342 736 1363 q 792 1289 792 1321 q 773 1239 792 1257 q 735 1210 754 1221 q 717 1188 717 1199 l 724 1163 q 688 1156 714 1156 q 635 1194 635 1156 l 635 1200 z "},"ẩ":{"ha":726,"x_min":39,"x_max":710,"o":"m 243 -14 q 94 39 149 -14 q 39 183 39 92 q 222 375 39 346 l 419 407 l 419 447 q 396 544 419 515 q 315 572 372 572 q 203 546 258 572 l 193 490 l 194 431 l 90 426 l 69 661 q 324 699 219 699 q 538 633 461 699 q 614 449 614 567 l 614 268 q 622 132 614 197 l 626 107 l 710 99 l 701 -7 q 446 0 633 0 l 435 100 q 243 -14 372 -14 m 339 996 l 549 800 l 481 746 l 393 814 l 339 853 l 285 814 l 197 746 l 129 800 l 339 996 m 244 214 q 319 129 244 129 q 382 153 356 129 q 419 218 408 176 l 419 317 l 317 300 q 261 273 278 293 q 244 214 244 253 m 507 907 q 535 950 507 929 q 564 989 564 971 q 544 1007 564 1007 q 489 994 524 1007 l 468 1053 q 563 1069 518 1069 q 636 1049 608 1069 q 664 996 664 1028 q 645 946 664 964 q 608 917 626 928 q 589 894 589 906 l 596 869 q 560 863 586 863 q 507 901 507 863 l 507 907 z "},"Ẫ":{"ha":926,"x_min":1,"x_max":928,"o":"m 928 90 l 921 -7 q 804 0 853 0 l 521 -7 l 514 94 l 596 107 l 589 179 l 569 249 l 307 249 l 283 160 l 275 107 l 356 90 l 349 -7 q 201 0 267 0 l 8 -7 l 1 94 l 64 104 l 122 224 l 385 979 l 540 994 l 818 178 l 850 103 l 928 90 m 444 692 l 344 363 l 533 365 l 444 692 m 478 1217 l 704 1096 l 664 1024 l 576 1065 q 478 1094 551 1075 q 379 1065 404 1075 l 292 1024 l 251 1096 l 478 1217 m 615 1263 q 600 1249 615 1263 q 561 1235 585 1235 q 481 1252 538 1235 q 403 1269 424 1269 q 333 1244 368 1269 l 321 1236 l 275 1274 q 292 1299 282 1283 q 331 1339 303 1314 q 383 1364 360 1364 q 465 1347 407 1364 q 542 1331 522 1331 q 614 1356 578 1331 l 625 1364 l 668 1328 q 615 1263 644 1290 z "},"ẫ":{"ha":726,"x_min":39,"x_max":710,"o":"m 243 -14 q 94 39 149 -14 q 39 183 39 92 q 222 375 39 346 l 419 407 l 419 447 q 396 544 419 515 q 315 572 372 572 q 203 546 258 572 l 193 490 l 194 431 l 90 426 l 69 661 q 324 699 219 699 q 538 633 461 699 q 614 449 614 567 l 614 268 q 622 132 614 197 l 626 107 l 710 99 l 701 -7 q 446 0 633 0 l 435 100 q 243 -14 372 -14 m 244 214 q 319 129 244 129 q 382 153 356 129 q 419 218 408 176 l 419 317 l 317 300 q 261 273 278 293 q 244 214 244 253 m 336 924 l 563 803 l 522 731 l 435 772 q 336 801 410 782 q 238 772 263 782 l 150 731 l 110 803 l 336 924 m 473 969 q 458 956 473 969 q 419 942 443 942 q 339 959 396 942 q 261 976 282 976 q 192 951 226 976 l 179 943 l 133 981 q 151 1006 140 990 q 190 1046 161 1021 q 242 1071 218 1071 q 323 1054 265 1071 q 400 1038 381 1038 q 472 1063 436 1038 l 483 1071 l 526 1035 q 473 969 503 997 z "},"Ậ":{"ha":926,"x_min":1,"x_max":928,"o":"m 928 90 l 921 -7 q 804 0 853 0 l 521 -7 l 514 94 l 596 107 l 589 179 l 569 249 l 307 249 l 283 160 l 275 107 l 356 90 l 349 -7 q 201 0 267 0 l 8 -7 l 1 94 l 64 104 l 122 224 l 385 979 l 540 994 l 818 178 l 850 103 l 928 90 m 444 692 l 344 363 l 533 365 l 444 692 m 464 1261 l 739 1076 l 674 996 l 581 1064 l 464 1121 l 347 1064 l 254 996 l 189 1076 l 464 1261 m 332 -199 q 332 -174 332 -199 q 360 -120 332 -150 q 438 -90 388 -90 q 517 -119 489 -90 q 546 -197 546 -147 q 518 -276 546 -247 q 439 -306 490 -306 q 360 -276 388 -306 q 332 -199 332 -247 z "},"ậ":{"ha":726,"x_min":39,"x_max":710,"o":"m 243 -14 q 94 39 149 -14 q 39 183 39 92 q 222 375 39 346 l 419 407 l 419 447 q 396 544 419 515 q 315 572 372 572 q 203 546 258 572 l 193 490 l 194 431 l 90 426 l 69 661 q 324 699 219 699 q 538 633 461 699 q 614 449 614 567 l 614 268 q 622 132 614 197 l 626 107 l 710 99 l 701 -7 q 446 0 633 0 l 435 100 q 243 -14 372 -14 m 244 214 q 319 129 244 129 q 382 153 356 129 q 419 218 408 176 l 419 317 l 317 300 q 261 273 278 293 q 244 214 244 253 m 336 1063 l 611 864 l 546 783 l 453 857 q 336 918 397 885 l 219 857 l 126 783 l 61 864 l 336 1063 m 225 -199 q 225 -174 225 -199 q 253 -120 225 -150 q 331 -90 281 -90 q 410 -119 382 -90 q 439 -197 439 -147 q 411 -276 439 -247 q 332 -306 383 -306 q 253 -276 281 -306 q 225 -199 225 -247 z "},"Ắ":{"ha":926,"x_min":1,"x_max":928,"o":"m 928 90 l 921 -7 q 804 0 853 0 l 521 -7 l 514 94 l 596 107 l 589 179 l 569 249 l 307 249 l 283 160 l 275 107 l 356 90 l 349 -7 q 201 0 267 0 l 8 -7 l 1 94 l 64 104 l 122 224 l 385 979 l 540 994 l 818 178 l 850 103 l 928 90 m 444 692 l 344 363 l 533 365 l 444 692 m 613 1079 q 583 1055 613 1079 q 464 1031 553 1031 q 315 1079 375 1031 q 250 1208 256 1128 l 344 1208 q 383 1147 350 1168 q 464 1126 415 1126 q 545 1147 513 1126 q 583 1208 578 1168 l 678 1208 q 613 1079 672 1128 m 603 1361 l 658 1271 q 517 1208 533 1219 l 436 1154 l 385 1225 l 603 1361 z "},"ắ":{"ha":726,"x_min":39,"x_max":710,"o":"m 243 -14 q 94 39 149 -14 q 39 183 39 92 q 222 375 39 346 l 419 407 l 419 447 q 396 544 419 515 q 315 572 372 572 q 203 546 258 572 l 193 490 l 194 431 l 90 426 l 69 661 q 324 699 219 699 q 538 633 461 699 q 614 449 614 567 l 614 268 q 622 132 614 197 l 626 107 l 710 99 l 701 -7 q 446 0 633 0 l 435 100 q 243 -14 372 -14 m 244 214 q 319 129 244 129 q 382 153 356 129 q 419 218 408 176 l 419 317 l 317 300 q 261 273 278 293 q 244 214 244 253 m 485 788 q 455 763 485 788 q 336 739 425 739 q 188 788 247 739 q 122 917 128 836 l 217 917 q 255 856 222 876 q 336 835 288 835 q 417 856 385 835 q 456 917 450 876 l 550 917 q 485 788 544 836 m 475 1069 l 531 979 q 389 917 406 928 l 308 863 l 257 933 l 475 1069 z "},"Ằ":{"ha":926,"x_min":1,"x_max":928,"o":"m 928 90 l 921 -7 q 804 0 853 0 l 521 -7 l 514 94 l 596 107 l 589 179 l 569 249 l 307 249 l 283 160 l 275 107 l 356 90 l 349 -7 q 201 0 267 0 l 8 -7 l 1 94 l 64 104 l 122 224 l 385 979 l 540 994 l 818 178 l 850 103 l 928 90 m 444 692 l 344 363 l 533 365 l 444 692 m 613 1079 q 583 1055 613 1079 q 464 1031 553 1031 q 315 1079 375 1031 q 250 1208 256 1128 l 344 1208 q 383 1147 350 1168 q 464 1126 415 1126 q 545 1147 513 1126 q 583 1208 578 1168 l 678 1208 q 613 1079 672 1128 m 549 1225 l 497 1154 l 417 1208 l 275 1271 l 331 1361 l 549 1225 z "},"ằ":{"ha":726,"x_min":39,"x_max":710,"o":"m 243 -14 q 94 39 149 -14 q 39 183 39 92 q 222 375 39 346 l 419 407 l 419 447 q 396 544 419 515 q 315 572 372 572 q 203 546 258 572 l 193 490 l 194 431 l 90 426 l 69 661 q 324 699 219 699 q 538 633 461 699 q 614 449 614 567 l 614 268 q 622 132 614 197 l 626 107 l 710 99 l 701 -7 q 446 0 633 0 l 435 100 q 243 -14 372 -14 m 244 214 q 319 129 244 129 q 382 153 356 129 q 419 218 408 176 l 419 317 l 317 300 q 261 273 278 293 q 244 214 244 253 m 485 788 q 455 763 485 788 q 336 739 425 739 q 188 788 247 739 q 122 917 128 836 l 217 917 q 255 856 222 876 q 336 835 288 835 q 417 856 385 835 q 456 917 450 876 l 550 917 q 485 788 544 836 m 421 933 l 369 863 l 289 917 l 147 979 l 203 1069 l 421 933 z "},"Ẳ":{"ha":926,"x_min":1,"x_max":928,"o":"m 928 90 l 921 -7 q 804 0 853 0 l 521 -7 l 514 94 l 596 107 l 589 179 l 569 249 l 307 249 l 283 160 l 275 107 l 356 90 l 349 -7 q 201 0 267 0 l 8 -7 l 1 94 l 64 104 l 122 224 l 385 979 l 540 994 l 818 178 l 850 103 l 928 90 m 444 692 l 344 363 l 533 365 l 444 692 m 418 1199 q 447 1242 418 1221 q 475 1281 475 1263 q 455 1299 475 1299 q 400 1286 435 1299 l 379 1344 q 474 1361 429 1361 q 547 1340 519 1361 q 575 1288 575 1319 q 556 1238 575 1256 q 519 1208 538 1219 q 500 1186 500 1197 l 507 1161 q 469 1154 496 1154 q 418 1193 418 1154 l 418 1199 m 613 1079 q 583 1055 613 1079 q 464 1031 553 1031 q 315 1079 375 1031 q 250 1208 256 1128 l 344 1208 q 383 1147 350 1168 q 464 1126 415 1126 q 545 1147 513 1126 q 583 1208 578 1168 l 678 1208 q 613 1079 672 1128 z "},"ẳ":{"ha":726,"x_min":39,"x_max":710,"o":"m 243 -14 q 94 39 149 -14 q 39 183 39 92 q 222 375 39 346 l 419 407 l 419 447 q 396 544 419 515 q 315 572 372 572 q 203 546 258 572 l 193 490 l 194 431 l 90 426 l 69 661 q 324 699 219 699 q 538 633 461 699 q 614 449 614 567 l 614 268 q 622 132 614 197 l 626 107 l 710 99 l 701 -7 q 446 0 633 0 l 435 100 q 243 -14 372 -14 m 244 214 q 319 129 244 129 q 382 153 356 129 q 419 218 408 176 l 419 317 l 317 300 q 261 273 278 293 q 244 214 244 253 m 290 907 q 319 950 290 929 q 347 989 347 971 q 327 1007 347 1007 q 272 994 307 1007 l 251 1053 q 347 1069 301 1069 q 419 1049 392 1069 q 447 996 447 1028 q 428 946 447 964 q 391 917 410 928 q 372 894 372 906 l 379 869 q 343 863 369 863 q 290 901 290 863 l 290 907 m 485 788 q 455 763 485 788 q 336 739 425 739 q 188 788 247 739 q 122 917 128 836 l 217 917 q 255 856 222 876 q 336 835 288 835 q 417 856 385 835 q 456 917 450 876 l 550 917 q 485 788 544 836 z "},"Ẵ":{"ha":926,"x_min":1,"x_max":928,"o":"m 928 90 l 921 -7 q 804 0 853 0 l 521 -7 l 514 94 l 596 107 l 589 179 l 569 249 l 307 249 l 283 160 l 275 107 l 356 90 l 349 -7 q 201 0 267 0 l 8 -7 l 1 94 l 64 104 l 122 224 l 385 979 l 540 994 l 818 178 l 850 103 l 928 90 m 444 692 l 344 363 l 533 365 l 444 692 m 608 1260 q 593 1246 608 1260 q 554 1232 578 1232 q 474 1249 531 1232 q 396 1267 417 1267 q 325 1242 361 1267 l 314 1233 l 268 1271 q 285 1296 275 1281 q 324 1336 296 1311 q 376 1361 353 1361 q 458 1344 400 1361 q 536 1328 515 1328 q 606 1353 571 1328 l 618 1361 l 661 1325 q 608 1260 638 1288 m 613 1079 q 583 1055 613 1079 q 464 1031 553 1031 q 315 1079 375 1031 q 250 1208 256 1128 l 344 1208 q 383 1147 350 1168 q 464 1126 415 1126 q 545 1147 513 1126 q 583 1208 578 1168 l 678 1208 q 613 1079 672 1128 z "}}}
